{
.appVersion = "1346";
classes = (
{
automatic = 1;

glyphs = (
{
color = 6;
glyphname = A;
lastChange = "2020-09-10 12:23:18 +0000";
layers = (
{
anchors = (
{
name = bottom;
position = "{652, 0}";
},
{
name = ogonek;
position = "{1246, 0}";
},
{
name = top;
position = "{652, 1400}";
}
);
layerId = "5521DC30-183F-421A-91F3-644B5E24AFE6";
paths = (
{
closed = 1;
nodes = (
"942 1400 LINE",
"362 1400 LINE",
"58 0 LINE",
"435 0 LINE",
"485 282 LINE",
"819 282 LINE",
"869 0 LINE",
"1246 0 LINE"
);
},
{
closed = 1;
nodes = (
"662 1130 LINE",
"767 552 LINE",
"537 552 LINE",
"642 1130 LINE"
);
}
);
width = 1300;
},
{
anchors = (
{
name = bottom;
position = "{652, 0}";
},
{
name = ogonek;
position = "{1140, 0}";
},
{
name = top;
position = "{652, 1400}";
}
);
layerId = "BE68D89F-AB3F-4BDF-B332-ED50D7C47704";
paths = (
{
closed = 1;
nodes = (
"723 1400 LINE",
"581 1400 LINE",
"164 0 LINE",
"240 0 LINE",
"360 408 LINE",
"944 408 LINE",
"1064 0 LINE",
"1140 0 LINE"
);
},
{
closed = 1;
nodes = (
"668 1336 LINE",
"927 472 LINE",
"377 472 LINE",
"636 1336 LINE"
);
}
);
width = 1300;
},
{
anchors = (
{
name = bottom;
position = "{450, 0}";
},
{
name = ogonek;
position = "{734, 0}";
},
{
name = top;
position = "{450, 1400}";
}
);
layerId = "2E286313-D5BF-4FB4-A4B7-BD9BC13B574E";
paths = (
{
closed = 1;
nodes = (
"505 1400 LINE",
"395 1400 LINE",
"166 0 LINE",
"234 0 LINE",
"287 336 LINE",
"613 336 LINE",
"666 0 LINE",
"734 0 LINE"
);
},
{
closed = 1;
nodes = (
"452 1336 LINE",
"604 400 LINE",
"296 400 LINE",
"448 1336 LINE"
);
}
);
width = 900;
},
{
anchors = (
{
name = bottom;
position = "{1099, 0}";
},
{
name = ogonek;
position = "{1923, 0}";
},
{
name = top;
position = "{1099, 1400}";
}
);
layerId = "E338D14E-1DA5-418D-88BC-8956EEA80AB9";
paths = (
{
closed = 1;
nodes = (
"1227 1400 LINE",
"971 1400 LINE",
"277 0 LINE",
"363 0 LINE",
"586 448 LINE",
"1612 448 LINE",
"1835 0 LINE",
"1923 0 LINE"
);
},
{
closed = 1;
nodes = (
"1171 1336 LINE",
"1581 512 LINE",
"617 512 LINE",
"1027 1336 LINE"
);
}
);
width = 2200;
},
{
anchors = (
{
name = bottom;
position = "{452, 0}";
},
{
name = ogonek;
position = "{878, 0}";
},
{
name = top;
position = "{452, 1400}";
}
);
layerId = "5D8A6BC1-E275-4777-AF98-AB9B3DC0EDC1";
paths = (
{
closed = 1;
nodes = (
"740 1400 LINE",
"160 1400 LINE",
"22 0 LINE",
"396 0 LINE",
"405 240 LINE",
"495 240 LINE",
"504 0 LINE",
"878 0 LINE"
);
},
{
closed = 1;
nodes = (
"454 1130 LINE",
"485 508 LINE",
"415 508 LINE",
"446 1130 LINE"
);
}
);
width = 900;
},
{
anchors = (
{
name = bottom;
position = "{1047, 0}";
},
{
name = ogonek;
position = "{1953, 0}";
},
{
name = top;
position = "{1047, 1400}";
}
);
layerId = "16EBFD8D-F4C1-4BAA-8DD7-EBE82D779ED1";
paths = (
{
closed = 1;
nodes = (
"1417 1400 LINE",
"677 1400 LINE",
"141 0 LINE",
"577 0 LINE",
"686 316 LINE",
"1408 316 LINE",
"1517 0 LINE",
"1953 0 LINE"
);
},
{
closed = 1;
nodes = (
"1141 1110 LINE",
"1317 600 LINE",
"777 600 LINE",
"953 1110 LINE"
);
}
);
width = 2100;
}
);
leftKerningGroup = A;
rightKerningGroup = A;
unicode = 0041;
},
{
color = 6;
glyphname = AE;
lastChange = "2020-09-10 12:23:18 +0000";
layers = (
{
anchors = (
{
name = bottom;
position = "{880, 0}";
},
{
name = top;
position = "{880, 1400}";
}
);
layerId = "5521DC30-183F-421A-91F3-644B5E24AFE6";
paths = (
{
closed = 1;
nodes = (
"1616 0 LINE",
"1616 270 LINE",
"1218 270 LINE",
"1218 554 LINE",
"1564 554 LINE",
"1564 822 LINE",
"1218 822 LINE",
"1218 1130 LINE",
"1616 1130 LINE",
"1616 1400 LINE",
"658 1400 LINE",
"624 1130 LINE",
"844 1130 LINE",
"844 0 LINE"
);
},
{
closed = 1;
nodes = (
"936 162 LINE",
"976 412 LINE",
"514 412 LINE",
"480 162 LINE"
);
},
{
closed = 1;
nodes = (
"464 0 LINE",
"924 1400 LINE",
"572 1400 LINE",
"60 0 LINE"
);
}
);
width = 1700;
},
{
anchors = (
{
name = bottom;
position = "{890, 0}";
},
{
name = top;
position = "{890, 1400}";
}
);
layerId = "BE68D89F-AB3F-4BDF-B332-ED50D7C47704";
paths = (
{
closed = 1;
nodes = (
"1456 0 LINE",
"1456 64 LINE",
"894 64 LINE",
"894 656 LINE",
"1388 656 LINE",
"1388 720 LINE",
"894 720 LINE",
"894 1336 LINE",
"1456 1336 LINE",
"1456 1400 LINE",
"728 1400 LINE",
"694 1336 LINE",
"828 1336 LINE",
"828 0 LINE"
);
},
{
closed = 1;
nodes = (
"848 388 LINE",
"856 452 LINE",
"394 452 LINE",
"360 388 LINE"
);
},
{
closed = 1;
nodes = (
"246 0 LINE",
"754 1400 LINE",
"684 1400 LINE",
"176 0 LINE"
);
}
);
width = 1700;
},
{
anchors = (
{
name = bottom;
position = "{630, 0}";
},
{
name = top;
position = "{630, 1400}";
}
);
layerId = "2E286313-D5BF-4FB4-A4B7-BD9BC13B574E";
paths = (
{
closed = 1;
nodes = (
"1052 0 LINE",
"1052 64 LINE",
"744 64 LINE",
"744 656 LINE",
"1032 656 LINE",
"1032 720 LINE",
"744 720 LINE",
"744 1336 LINE",
"1052 1336 LINE",
"1052 1400 LINE",
"546 1400 LINE",
"522 1336 LINE",
"674 1336 LINE",
"674 0 LINE"
);
},
{
closed = 1;
nodes = (
"714 348 LINE",
"722 412 LINE",
"324 412 LINE",
"298 348 LINE"
);
},
{
closed = 1;
nodes = (
"260 0 LINE",
"582 1400 LINE",
"508 1400 LINE",
"188 0 LINE"
);
}
);
width = 1200;
},
{
anchors = (
{
name = bottom;
position = "{1300, 0}";
},
{
name = top;
position = "{1300, 1400}";
}
);
layerId = "E338D14E-1DA5-418D-88BC-8956EEA80AB9";
paths = (
{
closed = 1;
nodes = (
"2388 0 LINE",
"2388 64 LINE",
"1454 64 LINE",
"1454 656 LINE",
"2348 656 LINE",
"2348 720 LINE",
"1454 720 LINE",
"1454 1336 LINE",
"2388 1336 LINE",
"2388 1400 LINE",
"1074 1400 LINE",
"1016 1336 LINE",
"1384 1336 LINE",
"1384 0 LINE"
);
},
{
closed = 1;
nodes = (
"1406 410 LINE",
"1420 474 LINE",
"502 474 LINE",
"454 410 LINE"
);
},
{
closed = 1;
nodes = (
"206 0 LINE",
"1116 1400 LINE",
"1032 1400 LINE",
"124 0 LINE"
);
}
);
width = 2600;
},
{
anchors = (
{
name = bottom;
position = "{610, 0}";
},
{
name = top;
position = "{610, 1400}";
}
);
layerId = "5D8A6BC1-E275-4777-AF98-AB9B3DC0EDC1";
paths = (
{
closed = 1;
nodes = (
"1186 0 LINE",
"1186 270 LINE",
"994 270 LINE",
"994 554 LINE",
"1196 554 LINE",
"1196 822 LINE",
"994 822 LINE",
"994 1130 LINE",
"1186 1130 LINE",
"1186 1400 LINE",
"572 1400 LINE",
"550 1130 LINE",
"628 1130 LINE",
"628 0 LINE"
);
},
{
closed = 1;
nodes = (
"706 276 LINE",
"706 526 LINE",
"364 526 LINE",
"334 276 LINE"
);
},
{
closed = 1;
nodes = (
"426 0 LINE",
"678 1400 LINE",
"328 1400 LINE",
"44 0 LINE"
);
}
);
width = 1200;
},
{
anchors = (
{
name = bottom;
position = "{1330, 0}";
},
{
name = top;
position = "{1330, 1400}";
}
);
layerId = "16EBFD8D-F4C1-4BAA-8DD7-EBE82D779ED1";
paths = (
{
closed = 1;
nodes = (
"2506 0 LINE",
"2506 270 LINE",
"1696 270 LINE",
"1696 554 LINE",
"2330 554 LINE",
"2330 822 LINE",
"1696 822 LINE",
"1696 1130 LINE",
"2506 1130 LINE",
"2506 1400 LINE",
"1080 1400 LINE",
"992 1130 LINE",
"1326 1130 LINE",
"1326 0 LINE"
);
},
{
closed = 1;
nodes = (
"1404 244 LINE",
"1524 494 LINE",
"624 494 LINE",
"582 244 LINE"
);
},
{
closed = 1;
nodes = (
"500 0 LINE",
"1466 1400 LINE",
"1060 1400 LINE",
"72 0 LINE"
);
}
);
width = 2600;
}
);
leftKerningGroup = A;
rightKerningGroup = E;
unicode = 00C6;
},
{
color = 6;
glyphname = AE.ss01;
lastChange = "2020-09-10 12:23:18 +0000";
layers = (
{
anchors = (
{
name = bottom;
position = "{650, 0}";
},
{
name = top;
position = "{650, 1400}";
}
);
layerId = "5521DC30-183F-421A-91F3-644B5E24AFE6";
paths = (
{
closed = 1;
nodes = (
"1236 0 LINE",
"1236 270 LINE",
"960 270 LINE",
"960 554 LINE",
"1184 554 LINE",
"1184 822 LINE",
"960 822 LINE",
"960 1130 LINE",
"1236 1130 LINE",
"1236 1400 LINE",
"470 1400 LINE",
"436 1130 LINE",
"594 1130 LINE",
"594 0 LINE"
);
},
{
closed = 1;
nodes = (
"686 212 LINE",
"728 462 LINE",
"404 462 LINE",
"370 212 LINE"
);
},
{
closed = 1;
nodes = (
"356 0 LINE",
"664 1400 LINE",
"334 1400 LINE",
"-28 0 LINE"
);
}
);
width = 1300;
},
{
anchors = (
{
name = bottom;
position = "{650, 0}";
},
{
name = top;
position = "{650, 1400}";
}
);
layerId = "BE68D89F-AB3F-4BDF-B332-ED50D7C47704";
paths = (
{
closed = 1;
nodes = (
"1162 0 LINE",
"1162 64 LINE",
"700 64 LINE",
"700 656 LINE",
"1054 656 LINE",
"1054 720 LINE",
"700 720 LINE",
"700 1336 LINE",
"1162 1336 LINE",
"1162 1400 LINE",
"534 1400 LINE",
"500 1336 LINE",
"634 1336 LINE",
"634 0 LINE"
);
},
{
closed = 1;
nodes = (
"654 388 LINE",
"662 452 LINE",
"274 452 LINE",
"250 388 LINE"
);
},
{
closed = 1;
nodes = (
"172 0 LINE",
"560 1400 LINE",
"490 1400 LINE",
"102 0 LINE"
);
}
);
width = 1300;
},
{
anchors = (
{
name = bottom;
position = "{450, 0}";
},
{
name = top;
position = "{450, 1400}";
}
);
layerId = "2E286313-D5BF-4FB4-A4B7-BD9BC13B574E";
paths = (
{
closed = 1;
nodes = (
"822 0 LINE",
"822 64 LINE",
"594 64 LINE",
"594 656 LINE",
"802 656 LINE",
"802 720 LINE",
"594 720 LINE",
"594 1336 LINE",
"822 1336 LINE",
"822 1400 LINE",
"425 1400 LINE",
"401 1336 LINE",
"524 1336 LINE",
"524 0 LINE"
);
},
{
closed = 1;
nodes = (
"564 348 LINE",
"572 412 LINE",
"174 412 LINE",
"140 348 LINE"
);
},
{
closed = 1;
nodes = (
"110 0 LINE",
"461 1400 LINE",
"387 1400 LINE",
"38 0 LINE"
);
}
);
width = 900;
},
{
anchors = (
{
name = bottom;
position = "{1100, 0}";
},
{
name = top;
position = "{1100, 1400}";
}
);
layerId = "E338D14E-1DA5-418D-88BC-8956EEA80AB9";
paths = (
{
closed = 1;
nodes = (
"2098 0 LINE",
"2098 64 LINE",
"1214 64 LINE",
"1214 656 LINE",
"1970 656 LINE",
"1970 720 LINE",
"1214 720 LINE",
"1214 1336 LINE",
"2098 1336 LINE",
"2098 1400 LINE",
"934 1400 LINE",
"876 1336 LINE",
"1144 1336 LINE",
"1144 0 LINE"
);
},
{
closed = 1;
nodes = (
"1174 488 LINE",
"1188 552 LINE",
"470 552 LINE",
"422 488 LINE"
);
},
{
closed = 1;
nodes = (
"226 0 LINE",
"976 1400 LINE",
"892 1400 LINE",
"144 0 LINE"
);
}
);
width = 2200;
},
{
anchors = (
{
name = bottom;
position = "{450, 0}";
},
{
name = top;
position = "{450, 1400}";
}
);
layerId = "5D8A6BC1-E275-4777-AF98-AB9B3DC0EDC1";
paths = (
{
closed = 1;
nodes = (
"866 0 LINE",
"866 270 LINE",
"764 270 LINE",
"764 554 LINE",
"866 554 LINE",
"866 822 LINE",
"764 822 LINE",
"764 1130 LINE",
"866 1130 LINE",
"866 1400 LINE",
"282 1400 LINE",
"260 1130 LINE",
"428 1130 LINE",
"428 0 LINE"
);
},
{
closed = 1;
nodes = (
"526 236 LINE",
"566 466 LINE",
"324 466 LINE",
"294 236 LINE"
);
},
{
closed = 1;
nodes = (
"335 0 LINE",
"438 1400 LINE",
"128 1400 LINE",
"-16 0 LINE"
);
}
);
width = 900;
},
{
anchors = (
{
name = bottom;
position = "{1100, 0}";
},
{
name = top;
position = "{1100, 1400}";
}
);
layerId = "16EBFD8D-F4C1-4BAA-8DD7-EBE82D779ED1";
paths = (
{
closed = 1;
nodes = (
"1946 0 LINE",
"1946 270 LINE",
"1302 270 LINE",
"1302 554 LINE",
"1770 554 LINE",
"1770 822 LINE",
"1302 822 LINE",
"1302 1130 LINE",
"1946 1130 LINE",
"1946 1400 LINE",
"806 1400 LINE",
"748 1130 LINE",
"926 1130 LINE",
"926 0 LINE"
);
},
{
closed = 1;
nodes = (
"1006 254 LINE",
"1052 544 LINE",
"564 544 LINE",
"522 254 LINE"
);
},
{
closed = 1;
nodes = (
"396 0 LINE",
"1086 1400 LINE",
"716 1400 LINE",
"8 0 LINE"
);
}
);
width = 2200;
}
);
leftKerningGroup = A;
rightKerningGroup = E;
},
{
color = 6;
glyphname = B;
lastChange = "2020-09-10 12:23:18 +0000";
layers = (
{
anchors = (
{
name = bottom;
position = "{630, 0}";
},
{
name = top;
position = "{630, 1400}";
}
);
layerId = "5521DC30-183F-421A-91F3-644B5E24AFE6";
paths = (
{
closed = 1;
nodes = (
"806 0 LINE SMOOTH",
"1044 0 OFFCURVE",
"1234 132 OFFCURVE",
"1234 400 CURVE SMOOTH",
"1234 632 OFFCURVE",
"1061 726 OFFCURVE",
"938 737 CURVE",
"1039 746 OFFCURVE",
"1174 845 OFFCURVE",
"1174 1058 CURVE SMOOTH",
"1174 1370 OFFCURVE",
"842 1400 OFFCURVE",
"674 1400 CURVE SMOOTH",
"144 1400 LINE",
"144 0 LINE"
);
},
{
closed = 1;
nodes = (
"518 588 LINE",
"652 588 LINE SMOOTH",
"766 588 OFFCURVE",
"858 570 OFFCURVE",
"858 428 CURVE SMOOTH",
"858 302 OFFCURVE",
"766 270 OFFCURVE",
"654 270 CURVE SMOOTH",
"518 270 LINE"
);
},
{
closed = 1;
nodes = (
"518 1130 LINE",
"622 1130 LINE SMOOTH",
"748 1130 OFFCURVE",
"812 1098 OFFCURVE",
"812 998 CURVE SMOOTH",
"812 888 OFFCURVE",
"742 856 OFFCURVE",
"622 856 CURVE SMOOTH",
"518 856 LINE"
);
}
);
width = 1300;
},
{
anchors = (
{
name = bottom;
position = "{640, 0}";
},
{
name = top;
position = "{640, 1400}";
}
);
layerId = "BE68D89F-AB3F-4BDF-B332-ED50D7C47704";
paths = (
{
closed = 1;
nodes = (
"730 0 LINE SMOOTH",
"968 0 OFFCURVE",
"1088 148 OFFCURVE",
"1088 390 CURVE SMOOTH",
"1088 629 OFFCURVE",
"910 722 OFFCURVE",
"828 732 CURVE",
"894 751 OFFCURVE",
"1028 864 OFFCURVE",
"1028 1058 CURVE SMOOTH",
"1028 1340 OFFCURVE",
"856 1400 OFFCURVE",
"688 1400 CURVE SMOOTH",
"280 1400 LINE",
"280 0 LINE"
);
},
{
closed = 1;
nodes = (
"346 690 LINE",
"736 690 LINE SMOOTH",
"850 690 OFFCURVE",
"1020 610 OFFCURVE",
"1020 390 CURVE SMOOTH",
"1020 172 OFFCURVE",
"906 64 OFFCURVE",
"736 64 CURVE SMOOTH",
"346 64 LINE"
);
},
{
closed = 1;
nodes = (
"346 1336 LINE",
"680 1336 LINE SMOOTH",
"836 1336 OFFCURVE",
"956 1286 OFFCURVE",
"956 1058 CURVE SMOOTH",
"956 870 OFFCURVE",
"816 754 OFFCURVE",
"696 754 CURVE SMOOTH",
"346 754 LINE"
);
}
);
width = 1300;
},
{
anchors = (
{
name = bottom;
position = "{388, 0}";
},
{
name = top;
position = "{388, 1400}";
}
);
layerId = "2E286313-D5BF-4FB4-A4B7-BD9BC13B574E";
paths = (
{
closed = 1;
nodes = (
"478 0 LINE SMOOTH",
"676 0 OFFCURVE",
"736 172 OFFCURVE",
"736 390 CURVE SMOOTH",
"736 633 OFFCURVE",
"608 738 OFFCURVE",
"552 748 CURVE",
"591 767 OFFCURVE",
"702 828 OFFCURVE",
"702 1078 CURVE SMOOTH",
"702 1330 OFFCURVE",
"570 1400 OFFCURVE",
"422 1400 CURVE SMOOTH",
"218 1400 LINE",
"218 0 LINE"
);
},
{
closed = 1;
nodes = (
"284 710 LINE",
"445 710 LINE SMOOTH",
"559 710 OFFCURVE",
"668 604 OFFCURVE",
"668 390 CURVE SMOOTH",
"668 196 OFFCURVE",
"614 64 OFFCURVE",
"484 64 CURVE SMOOTH",
"284 64 LINE"
);
},
{
closed = 1;
nodes = (
"284 1336 LINE",
"424 1336 LINE SMOOTH",
"520 1336 OFFCURVE",
"630 1286 OFFCURVE",
"630 1078 CURVE SMOOTH",
"630 890 OFFCURVE",
"554 774 OFFCURVE",
"434 774 CURVE SMOOTH",
"284 774 LINE"
);
}
);
width = 900;
},
{
anchors = (
{
name = bottom;
position = "{1090, 0}";
},
{
name = top;
position = "{1090, 1400}";
}
);
layerId = "E338D14E-1DA5-418D-88BC-8956EEA80AB9";
paths = (
{
closed = 1;
nodes = (
"1308 0 LINE SMOOTH",
"1724 0 OFFCURVE",
"1862 157 OFFCURVE",
"1862 407 CURVE SMOOTH",
"1862 636 OFFCURVE",
"1652 737 OFFCURVE",
"1530 744 CURVE",
"1624 766 OFFCURVE",
"1750 888 OFFCURVE",
"1750 1068 CURVE SMOOTH",
"1750 1370 OFFCURVE",
"1458 1400 OFFCURVE",
"1164 1400 CURVE SMOOTH",
"460 1400 LINE",
"460 0 LINE"
);
},
{
closed = 1;
nodes = (
"536 700 LINE",
"1388 700 LINE SMOOTH",
"1588 700 OFFCURVE",
"1784 621 OFFCURVE",
"1784 397 CURVE SMOOTH",
"1784 163 OFFCURVE",
"1616 64 OFFCURVE",
"1318 64 CURVE SMOOTH",
"536 64 LINE"
);
},
{
closed = 1;
nodes = (
"536 1336 LINE",
"1256 1336 LINE SMOOTH",
"1458 1336 OFFCURVE",
"1672 1296 OFFCURVE",
"1672 1068 CURVE SMOOTH",
"1672 880 OFFCURVE",
"1528 764 OFFCURVE",
"1318 764 CURVE SMOOTH",
"536 764 LINE"
);
}
);
width = 2200;
},
{
anchors = (
{
name = bottom;
position = "{450, 0}";
},
{
name = top;
position = "{450, 1400}";
}
);
layerId = "5D8A6BC1-E275-4777-AF98-AB9B3DC0EDC1";
paths = (
{
closed = 1;
nodes = (
"506 0 LINE SMOOTH",
"700 0 OFFCURVE",
"840 138 OFFCURVE",
"840 410 CURVE SMOOTH",
"840 643 OFFCURVE",
"709 731 OFFCURVE",
"616 743 CURVE",
"701 750 OFFCURVE",
"816 836 OFFCURVE",
"816 1058 CURVE SMOOTH",
"816 1365 OFFCURVE",
"598 1400 OFFCURVE",
"452 1400 CURVE SMOOTH",
"81 1400 LINE",
"81 0 LINE"
);
},
{
closed = 1;
nodes = (
"419 589 LINE",
"448 589 LINE SMOOTH",
"477 589 OFFCURVE",
"510 566 OFFCURVE",
"510 425 CURVE SMOOTH",
"510 306 OFFCURVE",
"478 267 OFFCURVE",
"449 267 CURVE SMOOTH",
"419 267 LINE"
);
},
{
closed = 1;
nodes = (
"419 1133 LINE",
"446 1133 LINE SMOOTH",
"474 1133 OFFCURVE",
"508 1094 OFFCURVE",
"508 1000 CURVE SMOOTH",
"508 891 OFFCURVE",
"476 855 OFFCURVE",
"442 855 CURVE SMOOTH",
"419 855 LINE"
);
}
);
width = 900;
},
{
anchors = (
{
name = bottom;
position = "{1121, 0}";
},
{
name = top;
position = "{1121, 1400}";
}
);
layerId = "16EBFD8D-F4C1-4BAA-8DD7-EBE82D779ED1";
paths = (
{
closed = 1;
nodes = (
"1359 0 LINE SMOOTH",
"1723 0 OFFCURVE",
"1975 149 OFFCURVE",
"1975 410 CURVE SMOOTH",
"1975 647 OFFCURVE",
"1757 735 OFFCURVE",
"1585 744 CURVE",
"1700 754 OFFCURVE",
"1852 841 OFFCURVE",
"1852 1048 CURVE SMOOTH",
"1852 1328 OFFCURVE",
"1572 1400 OFFCURVE",
"1269 1400 CURVE SMOOTH",
"286 1400 LINE",
"286 0 LINE"
);
},
{
closed = 1;
nodes = (
"698 577 LINE",
"1273 577 LINE SMOOTH",
"1390 577 OFFCURVE",
"1539 573 OFFCURVE",
"1539 437 CURVE SMOOTH",
"1539 314 OFFCURVE",
"1400 293 OFFCURVE",
"1289 293 CURVE SMOOTH",
"698 293 LINE"
);
},
{
closed = 1;
nodes = (
"698 1107 LINE",
"1159 1107 LINE SMOOTH",
"1312 1107 OFFCURVE",
"1427 1088 OFFCURVE",
"1427 991 CURVE SMOOTH",
"1427 877 OFFCURVE",
"1316 867 OFFCURVE",
"1152 867 CURVE SMOOTH",
"698 867 LINE"
);
}
);
width = 2200;
}
);
leftKerningGroup = H;
rightKerningGroup = B;
unicode = 0042;
},
{
color = 6;
glyphname = C;
lastChange = "2020-09-10 12:23:18 +0000";
layers = (
{
anchors = (
{
name = bottom;
position = "{686, 0}";
},
{
name = top;
position = "{686, 1400}";
}
);
layerId = "5521DC30-183F-421A-91F3-644B5E24AFE6";
paths = (
{
closed = 1;
nodes = (
"939 -22 OFFCURVE",
"1133 108 OFFCURVE",
"1221 352 CURVE",
"897 514 LINE",
"870 411 OFFCURVE",
"817 252 OFFCURVE",
"689 252 CURVE SMOOTH",
"563 252 OFFCURVE",
"449 372 OFFCURVE",
"449 696 CURVE SMOOTH",
"449 1018 OFFCURVE",
"563 1138 OFFCURVE",
"689 1138 CURVE SMOOTH",
"817 1138 OFFCURVE",
"870 979 OFFCURVE",
"897 876 CURVE",
"1221 1038 LINE",
"1133 1282 OFFCURVE",
"939 1412 OFFCURVE",
"689 1412 CURVE SMOOTH",
"405 1412 OFFCURVE",
"69 1262 OFFCURVE",
"69 696 CURVE SMOOTH",
"69 130 OFFCURVE",
"405 -22 OFFCURVE",
"689 -22 CURVE SMOOTH"
);
}
);
width = 1300;
},
{
anchors = (
{
name = bottom;
position = "{718, 0}";
},
{
name = top;
position = "{718, 1400}";
}
);
layerId = "BE68D89F-AB3F-4BDF-B332-ED50D7C47704";
paths = (
{
closed = 1;
nodes = (
"922 -22 OFFCURVE",
"1058 116 OFFCURVE",
"1120 238 CURVE",
"1056 272 LINE",
"1000 166 OFFCURVE",
"890 44 OFFCURVE",
"707 44 CURVE SMOOTH",
"480 44 OFFCURVE",
"232 240 OFFCURVE",
"232 696 CURVE SMOOTH",
"232 1152 OFFCURVE",
"483 1346 OFFCURVE",
"715 1346 CURVE SMOOTH",
"895 1346 OFFCURVE",
"1002 1230 OFFCURVE",
"1056 1108 CURVE",
"1120 1140 LINE",
"1056 1278 OFFCURVE",
"922 1412 OFFCURVE",
"716 1412 CURVE SMOOTH",
"430 1412 OFFCURVE",
"160 1186 OFFCURVE",
"160 696 CURVE SMOOTH",
"160 206 OFFCURVE",
"422 -22 OFFCURVE",
"708 -22 CURVE SMOOTH"
);
}
);
width = 1300;
},
{
anchors = (
{
name = bottom;
position = "{502, 0}";
},
{
name = top;
position = "{502, 1400}";
}
);
layerId = "2E286313-D5BF-4FB4-A4B7-BD9BC13B574E";
paths = (
{
closed = 1;
nodes = (
"670 -20 OFFCURVE",
"736 176 OFFCURVE",
"754 292 CURVE",
"690 324 LINE",
"680 252 OFFCURVE",
"634 46 OFFCURVE",
"502 46 CURVE SMOOTH",
"330 46 OFFCURVE",
"256 310 OFFCURVE",
"256 696 CURVE SMOOTH",
"256 1082 OFFCURVE",
"330 1346 OFFCURVE",
"502 1346 CURVE SMOOTH",
"634 1346 OFFCURVE",
"680 1140 OFFCURVE",
"690 1068 CURVE",
"754 1100 LINE",
"736 1216 OFFCURVE",
"670 1412 OFFCURVE",
"500 1412 CURVE SMOOTH",
"274 1412 OFFCURVE",
"186 1126 OFFCURVE",
"186 696 CURVE SMOOTH",
"186 266 OFFCURVE",
"274 -20 OFFCURVE",
"500 -20 CURVE SMOOTH"
);
}
);
width = 900;
},
{
anchors = (
{
name = bottom;
position = "{1176, 0}";
},
{
name = top;
position = "{1176, 1400}";
}
);
layerId = "E338D14E-1DA5-418D-88BC-8956EEA80AB9";
paths = (
{
closed = 1;
nodes = (
"1514 -22 OFFCURVE",
"1706 64 OFFCURVE",
"1852 184 CURVE",
"1798 236 LINE",
"1680 130 OFFCURVE",
"1482 44 OFFCURVE",
"1176 44 CURVE SMOOTH",
"718 44 OFFCURVE",
"388 290 OFFCURVE",
"388 696 CURVE SMOOTH",
"388 1102 OFFCURVE",
"718 1346 OFFCURVE",
"1176 1346 CURVE SMOOTH",
"1482 1346 OFFCURVE",
"1680 1260 OFFCURVE",
"1798 1154 CURVE",
"1852 1206 LINE",
"1706 1326 OFFCURVE",
"1514 1412 OFFCURVE",
"1176 1412 CURVE SMOOTH",
"682 1412 OFFCURVE",
"310 1146 OFFCURVE",
"310 696 CURVE SMOOTH",
"310 246 OFFCURVE",
"682 -22 OFFCURVE",
"1176 -22 CURVE SMOOTH"
);
}
);
width = 2200;
},
{
anchors = (
{
name = bottom;
position = "{472, 0}";
},
{
name = top;
position = "{472, 1400}";
}
);
layerId = "5D8A6BC1-E275-4777-AF98-AB9B3DC0EDC1";
paths = (
{
closed = 1;
nodes = (
"733 -20 OFFCURVE",
"847 208 OFFCURVE",
"861 398 CURVE",
"561 504 LINE",
"559 456 OFFCURVE",
"547 251 OFFCURVE",
"485 251 CURVE SMOOTH",
"421 251 OFFCURVE",
"405 386 OFFCURVE",
"405 696 CURVE SMOOTH",
"405 1006 OFFCURVE",
"421 1141 OFFCURVE",
"485 1141 CURVE SMOOTH",
"547 1141 OFFCURVE",
"559 936 OFFCURVE",
"561 888 CURVE",
"861 994 LINE",
"847 1184 OFFCURVE",
"733 1412 OFFCURVE",
"481 1412 CURVE SMOOTH",
"248 1412 OFFCURVE",
"62 1250 OFFCURVE",
"62 696 CURVE SMOOTH",
"62 142 OFFCURVE",
"248 -20 OFFCURVE",
"481 -20 CURVE SMOOTH"
);
}
);
width = 900;
},
{
anchors = (
{
name = bottom;
position = "{1196, 0}";
},
{
name = top;
position = "{1196, 1400}";
}
);
layerId = "16EBFD8D-F4C1-4BAA-8DD7-EBE82D779ED1";
paths = (
{
closed = 1;
nodes = (
"1602 -22 OFFCURVE",
"1887 85 OFFCURVE",
"1976 160 CURVE",
"1711 421 LINE",
"1650 362 OFFCURVE",
"1460 275 OFFCURVE",
"1182 275 CURVE SMOOTH",
"898 275 OFFCURVE",
"571 364 OFFCURVE",
"571 696 CURVE SMOOTH",
"571 1026 OFFCURVE",
"907 1115 OFFCURVE",
"1191 1115 CURVE SMOOTH",
"1467 1115 OFFCURVE",
"1653 1012 OFFCURVE",
"1711 938 CURVE",
"2008 1177 LINE",
"1905 1275 OFFCURVE",
"1604 1412 OFFCURVE",
"1200 1412 CURVE SMOOTH",
"776 1412 OFFCURVE",
"143 1293 OFFCURVE",
"143 696 CURVE SMOOTH",
"143 104 OFFCURVE",
"766 -22 OFFCURVE",
"1191 -22 CURVE SMOOTH"
);
}
);
width = 2200;
}
);
leftKerningGroup = O;
rightKerningGroup = O;
unicode = 0043;
},
{
color = 3;
glyphname = Ccedilla;
lastChange = "2020-09-10 12:23:29 +0000";
layers = (
{
anchors = (
{
name = bottom;
position = "{732, -421}";
}
);
components = (
{
name = C;
}
);
layerId = "5521DC30-183F-421A-91F3-644B5E24AFE6";
paths = (
{
closed = 1;
nodes = (
"901 -421 OFFCURVE",
"1047 -349 OFFCURVE",
"1047 -200 CURVE SMOOTH",
"1047 -94 OFFCURVE",
"967 -56 OFFCURVE",
"874 -56 CURVE SMOOTH",
"789 -56 OFFCURVE",
"724 -85 OFFCURVE",
"702 -128 CURVE",
"714 -152 LINE",
"793 0 LINE",
"587 0 LINE",
"510 -161 LINE",
"686 -205 LINE",
"712 -179 OFFCURVE",
"760 -169 OFFCURVE",
"785 -169 CURVE SMOOTH",
"824 -169 OFFCURVE",
"839 -181 OFFCURVE",
"839 -205 CURVE SMOOTH",
"839 -243 OFFCURVE",
"792 -261 OFFCURVE",
"713 -261 CURVE SMOOTH",
"640 -261 OFFCURVE",
"572 -248 OFFCURVE",
"485 -222 CURVE",
"406 -382 LINE",
"471 -403 OFFCURVE",
"597 -421 OFFCURVE",
"683 -421 CURVE SMOOTH"
);
}
);
width = 1300;
},
{
anchors = (
{
name = bottom;
position = "{773, -396}";
}
);
components = (
{
name = C;
}
);
layerId = "BE68D89F-AB3F-4BDF-B332-ED50D7C47704";
paths = (
{
closed = 1;
nodes = (
"881 -396 OFFCURVE",
"989 -324 OFFCURVE",
"989 -202 CURVE SMOOTH",
"989 -102 OFFCURVE",
"916 -79 OFFCURVE",
"850 -79 CURVE SMOOTH",
"784 -79 OFFCURVE",
"715 -111 OFFCURVE",
"692 -138 CURVE",
"707 -156 LINE",
"750 0 LINE",
"686 0 LINE",
"637 -178 LINE",
"689 -194 LINE",
"715 -173 OFFCURVE",
"774 -138 OFFCURVE",
"830 -138 CURVE SMOOTH",
"875 -138 OFFCURVE",
"920 -147 OFFCURVE",
"920 -208 CURVE SMOOTH",
"920 -281 OFFCURVE",
"844 -333 OFFCURVE",
"743 -333 CURVE SMOOTH",
"676 -333 OFFCURVE",
"636 -320 OFFCURVE",
"599 -303 CURVE",
"577 -368 LINE",
"624 -384 OFFCURVE",
"665 -396 OFFCURVE",
"739 -396 CURVE SMOOTH"
);
}
);
width = 1300;
},
{
anchors = (
{
name = bottom;
position = "{537, -396}";
}
);
components = (
{
name = C;
}
);
layerId = "2E286313-D5BF-4FB4-A4B7-BD9BC13B574E";
paths = (
{
closed = 1;
nodes = (
"603 -396 OFFCURVE",
"711 -348 OFFCURVE",
"711 -207 CURVE SMOOTH",
"711 -118 OFFCURVE",
"649 -82 OFFCURVE",
"595 -82 CURVE SMOOTH",
"532 -82 OFFCURVE",
"477 -110 OFFCURVE",
"452 -168 CURVE",
"483 -179 LINE",
"533 0 LINE",
"471 0 LINE",
"422 -190 LINE",
"476 -206 LINE",
"491 -167 OFFCURVE",
"525 -138 OFFCURVE",
"575 -138 CURVE SMOOTH",
"620 -138 OFFCURVE",
"644 -164 OFFCURVE",
"644 -214 CURVE SMOOTH",
"644 -298 OFFCURVE",
"573 -333 OFFCURVE",
"491 -333 CURVE SMOOTH",
"451 -333 OFFCURVE",
"419 -328 OFFCURVE",
"378 -316 CURVE",
"353 -378 LINE",
"396 -391 OFFCURVE",
"443 -396 OFFCURVE",
"489 -396 CURVE SMOOTH"
);
}
);
width = 900;
},
{
anchors = (
{
name = bottom;
position = "{1273, -396}";
}
);
components = (
{
name = C;
}
);
layerId = "E338D14E-1DA5-418D-88BC-8956EEA80AB9";
paths = (
{
closed = 1;
nodes = (
"1396 -396 OFFCURVE",
"1573 -338 OFFCURVE",
"1573 -206 CURVE SMOOTH",
"1573 -96 OFFCURVE",
"1471 -69 OFFCURVE",
"1375 -69 CURVE SMOOTH",
"1279 -69 OFFCURVE",
"1164 -111 OFFCURVE",
"1141 -138 CURVE",
"1156 -156 LINE",
"1209 0 LINE",
"1145 0 LINE",
"1086 -178 LINE",
"1138 -194 LINE",
"1164 -173 OFFCURVE",
"1262 -128 OFFCURVE",
"1348 -128 CURVE SMOOTH",
"1423 -128 OFFCURVE",
"1504 -141 OFFCURVE",
"1504 -212 CURVE SMOOTH",
"1504 -295 OFFCURVE",
"1359 -333 OFFCURVE",
"1228 -333 CURVE SMOOTH",
"1128 -333 OFFCURVE",
"1034 -312 OFFCURVE",
"998 -293 CURVE",
"973 -357 LINE",
"1021 -379 OFFCURVE",
"1117 -396 OFFCURVE",
"1224 -396 CURVE SMOOTH"
);
}
);
width = 2200;
},
{
anchors = (
{
name = bottom;
position = "{506, -421}";
}
);
components = (
{
name = C;
}
);
layerId = "5D8A6BC1-E275-4777-AF98-AB9B3DC0EDC1";
paths = (
{
closed = 1;
nodes = (
"652 -417 OFFCURVE",
"786 -349 OFFCURVE",
"786 -200 CURVE SMOOTH",
"786 -94 OFFCURVE",
"708 -56 OFFCURVE",
"625 -56 CURVE SMOOTH",
"540 -56 OFFCURVE",
"503 -85 OFFCURVE",
"481 -128 CURVE",
"503 -152 LINE",
"562 0 LINE",
"376 0 LINE",
"319 -161 LINE",
"485 -207 LINE",
"501 -181 OFFCURVE",
"525 -169 OFFCURVE",
"550 -169 CURVE SMOOTH",
"589 -169 OFFCURVE",
"598 -186 OFFCURVE",
"598 -205 CURVE SMOOTH",
"598 -236 OFFCURVE",
"561 -267 OFFCURVE",
"492 -267 CURVE SMOOTH",
"419 -267 OFFCURVE",
"360 -251 OFFCURVE",
"300 -222 CURVE",
"231 -372 LINE",
"296 -403 OFFCURVE",
"388 -417 OFFCURVE",
"474 -417 CURVE SMOOTH"
);
}
);
width = 900;
},
{
anchors = (
{
name = bottom;
position = "{1275, -428}";
}
);
components = (
{
name = C;
}
);
layerId = "16EBFD8D-F4C1-4BAA-8DD7-EBE82D779ED1";
paths = (
{
closed = 1;
nodes = (
"1487 -428 OFFCURVE",
"1693 -349 OFFCURVE",
"1693 -200 CURVE SMOOTH",
"1693 -94 OFFCURVE",
"1594 -46 OFFCURVE",
"1436 -46 CURVE SMOOTH",
"1351 -46 OFFCURVE",
"1196 -85 OFFCURVE",
"1174 -128 CURVE",
"1233 -152 LINE",
"1312 0 LINE",
"1086 0 LINE",
"1009 -161 LINE",
"1205 -205 LINE",
"1241 -179 OFFCURVE",
"1309 -169 OFFCURVE",
"1354 -169 CURVE SMOOTH",
"1413 -169 OFFCURVE",
"1445 -181 OFFCURVE",
"1445 -205 CURVE SMOOTH",
"1445 -243 OFFCURVE",
"1368 -261 OFFCURVE",
"1242 -261 CURVE SMOOTH",
"1169 -261 OFFCURVE",
"1031 -248 OFFCURVE",
"944 -222 CURVE",
"856 -392 LINE",
"921 -413 OFFCURVE",
"1146 -428 OFFCURVE",
"1232 -428 CURVE SMOOTH"
);
}
);
width = 2200;
}
);
leftKerningGroup = O;
rightKerningGroup = C;
unicode = 00C7;
},
{
color = 6;
glyphname = D;
lastChange = "2020-09-10 12:23:18 +0000";
layers = (
{
anchors = (
{
name = bottom;
position = "{590, 0}";
},
{
name = center;
position = "{304, 700}";
},
{
name = top;
position = "{590, 1400}";
}
);
layerId = "5521DC30-183F-421A-91F3-644B5E24AFE6";
paths = (
{
closed = 1;
nodes = (
"579 0 LINE SMOOTH",
"875 0 OFFCURVE",
"1221 90 OFFCURVE",
"1221 700 CURVE SMOOTH",
"1221 1310 OFFCURVE",
"875 1400 OFFCURVE",
"579 1400 CURVE SMOOTH",
"105 1400 LINE",
"105 0 LINE"
);
},
{
closed = 1;
nodes = (
"479 1130 LINE",
"549 1130 LINE SMOOTH",
"747 1130 OFFCURVE",
"837 1012 OFFCURVE",
"837 700 CURVE SMOOTH",
"837 388 OFFCURVE",
"747 270 OFFCURVE",
"549 270 CURVE SMOOTH",
"479 270 LINE"
);
}
);
width = 1300;
},
{
anchors = (
{
name = bottom;
position = "{600, 0}";
},
{
name = center;
position = "{332, 700}";
},
{
name = top;
position = "{600, 1400}";
}
);
layerId = "BE68D89F-AB3F-4BDF-B332-ED50D7C47704";
paths = (
{
closed = 1;
nodes = (
"550 0 LINE SMOOTH",
"820 0 OFFCURVE",
"1114 140 OFFCURVE",
"1114 700 CURVE SMOOTH",
"1114 1260 OFFCURVE",
"820 1400 OFFCURVE",
"550 1400 CURVE SMOOTH",
"266 1400 LINE",
"266 0 LINE"
);
},
{
closed = 1;
nodes = (
"332 1336 LINE",
"546 1336 LINE SMOOTH",
"790 1336 OFFCURVE",
"1046 1212 OFFCURVE",
"1046 700 CURVE SMOOTH",
"1046 188 OFFCURVE",
"790 64 OFFCURVE",
"546 64 CURVE SMOOTH",
"332 64 LINE"
);
}
);
width = 1300;
},
{
anchors = (
{
name = bottom;
position = "{430, 0}";
},
{
name = center;
position = "{232, 700}";
},
{
name = top;
position = "{480, 1400}";
}
);
layerId = "2E286313-D5BF-4FB4-A4B7-BD9BC13B574E";
paths = (
{
closed = 1;
nodes = (
"422 0 LINE SMOOTH",
"582 0 OFFCURVE",
"764 140 OFFCURVE",
"764 700 CURVE SMOOTH",
"764 1260 OFFCURVE",
"582 1400 OFFCURVE",
"422 1400 CURVE SMOOTH",
"246 1400 LINE",
"246 0 LINE"
);
},
{
closed = 1;
nodes = (
"312 1336 LINE",
"413 1336 LINE SMOOTH",
"555 1336 OFFCURVE",
"694 1172 OFFCURVE",
"694 700 CURVE SMOOTH",
"694 228 OFFCURVE",
"555 64 OFFCURVE",
"413 64 CURVE SMOOTH",
"312 64 LINE"
);
}
);
width = 900;
},
{
anchors = (
{
name = bottom;
position = "{1030, 0}";
},
{
name = center;
position = "{562, 700}";
},
{
name = top;
position = "{1030, 1400}";
}
);
layerId = "E338D14E-1DA5-418D-88BC-8956EEA80AB9";
paths = (
{
closed = 1;
nodes = (
"1070 0 LINE SMOOTH",
"1562 0 OFFCURVE",
"1884 180 OFFCURVE",
"1884 700 CURVE SMOOTH",
"1884 1220 OFFCURVE",
"1562 1400 OFFCURVE",
"1070 1400 CURVE SMOOTH",
"440 1400 LINE",
"440 0 LINE"
);
},
{
closed = 1;
nodes = (
"516 1336 LINE",
"1100 1336 LINE SMOOTH",
"1528 1336 OFFCURVE",
"1808 1172 OFFCURVE",
"1808 700 CURVE SMOOTH",
"1808 228 OFFCURVE",
"1528 64 OFFCURVE",
"1100 64 CURVE SMOOTH",
"516 64 LINE"
);
}
);
width = 2200;
},
{
anchors = (
{
name = bottom;
position = "{406, 0}";
},
{
name = center;
position = "{207, 700}";
},
{
name = top;
position = "{432, 1400}";
}
);
layerId = "5D8A6BC1-E275-4777-AF98-AB9B3DC0EDC1";
paths = (
{
closed = 1;
nodes = (
"455 0 LINE SMOOTH",
"609 0 OFFCURVE",
"871 48 OFFCURVE",
"871 700 CURVE SMOOTH",
"871 1352 OFFCURVE",
"609 1400 OFFCURVE",
"455 1400 CURVE SMOOTH",
"100 1400 LINE",
"100 0 LINE"
);
},
{
closed = 1;
nodes = (
"439 1133 LINE",
"458 1133 LINE SMOOTH",
"506 1133 OFFCURVE",
"531 1014 OFFCURVE",
"531 700 CURVE SMOOTH",
"531 389 OFFCURVE",
"503 267 OFFCURVE",
"458 267 CURVE SMOOTH",
"439 267 LINE"
);
}
);
width = 900;
},
{
anchors = (
{
name = bottom;
position = "{1022, 0}";
},
{
name = center;
position = "{565, 700}";
},
{
name = top;
position = "{973, 1400}";
}
);
layerId = "16EBFD8D-F4C1-4BAA-8DD7-EBE82D779ED1";
paths = (
{
closed = 1;
nodes = (
"1006 0 LINE SMOOTH",
"1397 0 OFFCURVE",
"1998 10 OFFCURVE",
"1998 700 CURVE SMOOTH",
"1998 1390 OFFCURVE",
"1397 1400 OFFCURVE",
"1006 1400 CURVE SMOOTH",
"236 1400 LINE",
"236 0 LINE"
);
},
{
closed = 1;
nodes = (
"644 1107 LINE",
"1037 1107 LINE SMOOTH",
"1320 1107 OFFCURVE",
"1567 1056 OFFCURVE",
"1567 700 CURVE SMOOTH",
"1567 344 OFFCURVE",
"1329 293 OFFCURVE",
"1037 293 CURVE SMOOTH",
"644 293 LINE"
);
}
);
width = 2200;
}
);
leftKerningGroup = H;
rightKerningGroup = O;
unicode = 0044;
},
{
color = 6;
glyphname = DZcaron;
lastChange = "2020-09-23 17:52:10 +0000";
layers = (
{
layerId = "2E286313-D5BF-4FB4-A4B7-BD9BC13B574E";
paths = (
{
closed = 1;
nodes = (
"255 0 LINE SMOOTH",
"415 0 OFFCURVE",
"597 140 OFFCURVE",
"597 700 CURVE SMOOTH",
"597 1260 OFFCURVE",
"415 1400 OFFCURVE",
"255 1400 CURVE SMOOTH",
"79 1400 LINE",
"79 0 LINE"
);
},
{
closed = 1;
nodes = (
"145 1336 LINE",
"246 1336 LINE SMOOTH",
"388 1336 OFFCURVE",
"527 1172 OFFCURVE",
"527 700 CURVE SMOOTH",
"527 228 OFFCURVE",
"388 64 OFFCURVE",
"246 64 CURVE SMOOTH",
"145 64 LINE"
);
},
{
closed = 1;
nodes = (
"1162 0 LINE",
"1162 64 LINE",
"712 64 LINE",
"1148 1336 LINE",
"1148 1400 LINE",
"664 1400 LINE",
"664 1336 LINE",
"1084 1336 LINE",
"648 64 LINE",
"648 0 LINE"
);
},
{
closed = 1;
nodes = (
"893 1545 LINE",
"935 1545 LINE",
"1177 1787 LINE",
"1089 1787 LINE",
"915 1605 LINE",
"739 1787 LINE",
"651 1787 LINE"
);
}
);
width = 1200;
},
{
layerId = "5D8A6BC1-E275-4777-AF98-AB9B3DC0EDC1";
paths = (
{
closed = 1;
nodes = (
"342 0 LINE SMOOTH",
"496 0 OFFCURVE",
"708 48 OFFCURVE",
"708 700 CURVE SMOOTH",
"708 1352 OFFCURVE",
"496 1400 OFFCURVE",
"342 1400 CURVE SMOOTH",
"17 1400 LINE",
"17 0 LINE"
);
},
{
closed = 1;
nodes = (
"326 1133 LINE",
"345 1133 LINE SMOOTH",
"393 1133 OFFCURVE",
"408 1014 OFFCURVE",
"408 700 CURVE SMOOTH",
"408 389 OFFCURVE",
"390 267 OFFCURVE",
"345 267 CURVE SMOOTH",
"326 267 LINE"
);
},
{
closed = 1;
nodes = (
"1207 0 LINE",
"1207 290 LINE",
"994 290 LINE",
"1181 1110 LINE",
"1181 1400 LINE",
"715 1400 LINE",
"715 1110 LINE",
"885 1110 LINE",
"703 290 LINE",
"703 0 LINE"
);
},
{
closed = 1;
nodes = (
"863 1523 LINE",
"1091 1523 LINE",
"1361 1817 LINE",
"1087 1817 LINE",
"977 1669 LINE",
"867 1817 LINE",
"593 1817 LINE"
);
}
);
width = 1200;
},
{
layerId = "BE68D89F-AB3F-4BDF-B332-ED50D7C47704";
paths = (
{
closed = 1;
nodes = (
"319 0 LINE SMOOTH",
"589 0 OFFCURVE",
"883 140 OFFCURVE",
"883 700 CURVE SMOOTH",
"883 1260 OFFCURVE",
"589 1400 OFFCURVE",
"319 1400 CURVE SMOOTH",
"35 1400 LINE",
"35 0 LINE"
);
},
{
closed = 1;
nodes = (
"101 1336 LINE",
"315 1336 LINE SMOOTH",
"559 1336 OFFCURVE",
"815 1212 OFFCURVE",
"815 700 CURVE SMOOTH",
"815 188 OFFCURVE",
"559 64 OFFCURVE",
"315 64 CURVE SMOOTH",
"101 64 LINE"
);
},
{
closed = 1;
nodes = (
"1698 4 LINE",
"1698 68 LINE",
"942 68 LINE",
"1684 1340 LINE",
"1684 1404 LINE",
"880 1404 LINE",
"880 1340 LINE",
"1608 1340 LINE",
"864 68 LINE",
"864 4 LINE"
);
},
{
closed = 1;
nodes = (
"1237 1549 LINE",
"1303 1549 LINE",
"1563 1791 LINE",
"1465 1791 LINE",
"1271 1599 LINE",
"1075 1791 LINE",
"977 1791 LINE"
);
}
);
width = 1700;
},
{
layerId = "5521DC30-183F-421A-91F3-644B5E24AFE6";
paths = (
{
closed = 1;
nodes = (
"459 0 LINE SMOOTH",
"685 0 OFFCURVE",
"981 90 OFFCURVE",
"981 700 CURVE SMOOTH",
"981 1310 OFFCURVE",
"685 1400 OFFCURVE",
"459 1400 CURVE SMOOTH",
"25 1400 LINE",
"25 0 LINE"
);
},
{
closed = 1;
nodes = (
"359 1130 LINE",
"429 1130 LINE SMOOTH",
"557 1130 OFFCURVE",
"617 1012 OFFCURVE",
"617 700 CURVE SMOOTH",
"617 388 OFFCURVE",
"557 270 OFFCURVE",
"429 270 CURVE SMOOTH",
"359 270 LINE"
);
},
{
closed = 1;
nodes = (
"1710 0 LINE",
"1710 270 LINE",
"1328 270 LINE",
"1690 1130 LINE",
"1690 1400 LINE",
"1008 1400 LINE",
"1008 1130 LINE",
"1350 1130 LINE",
"992 270 LINE",
"992 0 LINE"
);
},
{
closed = 1;
nodes = (
"1264 1523 LINE",
"1492 1523 LINE",
"1802 1817 LINE",
"1518 1817 LINE",
"1378 1669 LINE",
"1238 1817 LINE",
"954 1817 LINE"
);
}
);
width = 1700;
},
{
layerId = "E338D14E-1DA5-418D-88BC-8956EEA80AB9";
paths = (
{
closed = 1;
nodes = (
"566 0 LINE SMOOTH",
"1058 0 OFFCURVE",
"1380 180 OFFCURVE",
"1380 700 CURVE SMOOTH",
"1380 1220 OFFCURVE",
"1058 1400 OFFCURVE",
"566 1400 CURVE SMOOTH",
"66 1400 LINE",
"66 0 LINE"
);
},
{
closed = 1;
nodes = (
"142 1336 LINE",
"596 1336 LINE SMOOTH",
"1024 1336 OFFCURVE",
"1304 1172 OFFCURVE",
"1304 700 CURVE SMOOTH",
"1304 228 OFFCURVE",
"1024 64 OFFCURVE",
"596 64 CURVE SMOOTH",
"142 64 LINE"
);
},
{
closed = 1;
nodes = (
"2610 0 LINE",
"2610 64 LINE",
"1438 64 LINE",
"2578 1336 LINE",
"2578 1400 LINE",
"1366 1400 LINE",
"1366 1336 LINE",
"2486 1336 LINE",
"1338 64 LINE",
"1338 0 LINE"
);
},
{
closed = 1;
nodes = (
"1939 1545 LINE",
"2009 1545 LINE",
"2297 1787 LINE",
"2189 1787 LINE",
"1975 1598 LINE",
"1759 1787 LINE",
"1651 1787 LINE"
);
}
);
width = 2600;
},
{
layerId = "16EBFD8D-F4C1-4BAA-8DD7-EBE82D779ED1";
paths = (
{
closed = 1;
nodes = (
"545 0 LINE SMOOTH",
"896 0 OFFCURVE",
"1407 10 OFFCURVE",
"1407 700 CURVE SMOOTH",
"1407 1390 OFFCURVE",
"896 1400 OFFCURVE",
"545 1400 CURVE SMOOTH",
"45 1400 LINE",
"45 0 LINE"
);
},
{
closed = 1;
nodes = (
"453 1107 LINE",
"576 1107 LINE SMOOTH",
"819 1107 OFFCURVE",
"976 1056 OFFCURVE",
"976 700 CURVE SMOOTH",
"976 344 OFFCURVE",
"828 293 OFFCURVE",
"576 293 CURVE SMOOTH",
"453 293 LINE"
);
},
{
closed = 1;
nodes = (
"2590 0 LINE",
"2590 290 LINE",
"1912 290 LINE",
"2582 1110 LINE",
"2582 1400 LINE",
"1470 1400 LINE",
"1470 1110 LINE",
"2112 1110 LINE",
"1446 290 LINE",
"1446 0 LINE"
);
},
{
closed = 1;
nodes = (
"1860 1523 LINE",
"2128 1523 LINE",
"2528 1817 LINE",
"2174 1817 LINE",
"1994 1669 LINE",
"1814 1817 LINE",
"1460 1817 LINE"
);
}
);
width = 2600;
}
);
leftKerningGroup = H;
rightKerningGroup = Z;
unicode = 01C4;
},
{
color = 6;
glyphname = Eth;
lastChange = "2020-09-23 16:50:10 +0000";
layers = (
{
anchors = (
{
name = bottom;
position = "{590, 0}";
},
{
name = center;
position = "{304, 700}";
},
{
name = top;
position = "{590, 1400}";
}
);
layerId = "5521DC30-183F-421A-91F3-644B5E24AFE6";
paths = (
{
closed = 1;
nodes = (
"579 0 LINE SMOOTH",
"875 0 OFFCURVE",
"1221 90 OFFCURVE",
"1221 700 CURVE SMOOTH",
"1221 1310 OFFCURVE",
"875 1400 OFFCURVE",
"579 1400 CURVE SMOOTH",
"105 1400 LINE",
"105 820 LINE",
"3 820 LINE",
"3 580 LINE",
"105 580 LINE",
"105 0 LINE"
);
},
{
closed = 1;
nodes = (
"479 580 LINE",
"664 580 LINE",
"664 820 LINE",
"479 820 LINE",
"479 1130 LINE",
"549 1130 LINE SMOOTH",
"747 1130 OFFCURVE",
"837 1012 OFFCURVE",
"837 700 CURVE SMOOTH",
"837 388 OFFCURVE",
"747 270 OFFCURVE",
"549 270 CURVE SMOOTH",
"479 270 LINE"
);
}
);
width = 1300;
},
{
anchors = (
{
name = bottom;
position = "{600, 0}";
},
{
name = center;
position = "{332, 700}";
},
{
name = top;
position = "{600, 1400}";
}
);
layerId = "BE68D89F-AB3F-4BDF-B332-ED50D7C47704";
paths = (
{
closed = 1;
nodes = (
"550 0 LINE SMOOTH",
"820 0 OFFCURVE",
"1114 140 OFFCURVE",
"1114 700 CURVE SMOOTH",
"1114 1260 OFFCURVE",
"820 1400 OFFCURVE",
"550 1400 CURVE SMOOTH",
"266 1400 LINE",
"266 732 LINE",
"74 732 LINE",
"74 668 LINE",
"266 668 LINE",
"266 0 LINE"
);
},
{
closed = 1;
nodes = (
"332 668 LINE",
"674 668 LINE",
"674 732 LINE",
"332 732 LINE",
"332 1336 LINE",
"546 1336 LINE SMOOTH",
"790 1336 OFFCURVE",
"1046 1212 OFFCURVE",
"1046 700 CURVE SMOOTH",
"1046 188 OFFCURVE",
"790 64 OFFCURVE",
"546 64 CURVE SMOOTH",
"332 64 LINE"
);
}
);
width = 1300;
},
{
anchors = (
{
name = bottom;
position = "{439, 0}";
},
{
name = center;
position = "{241, 700}";
},
{
name = top;
position = "{489, 1400}";
}
);
layerId = "2E286313-D5BF-4FB4-A4B7-BD9BC13B574E";
paths = (
{
closed = 1;
nodes = (
"431 0 LINE SMOOTH",
"591 0 OFFCURVE",
"773 140 OFFCURVE",
"773 700 CURVE SMOOTH",
"773 1260 OFFCURVE",
"591 1400 OFFCURVE",
"431 1400 CURVE SMOOTH",
"255 1400 LINE",
"255 732 LINE",
"165 732 LINE",
"165 668 LINE",
"255 668 LINE",
"255 0 LINE"
);
},
{
closed = 1;
nodes = (
"321 668 LINE",
"512 668 LINE",
"512 732 LINE",
"321 732 LINE",
"321 1336 LINE",
"422 1336 LINE SMOOTH",
"564 1336 OFFCURVE",
"703 1172 OFFCURVE",
"703 700 CURVE SMOOTH",
"703 228 OFFCURVE",
"564 64 OFFCURVE",
"422 64 CURVE SMOOTH",
"321 64 LINE"
);
}
);
width = 900;
},
{
anchors = (
{
name = bottom;
position = "{1030, 0}";
},
{
name = center;
position = "{562, 700}";
},
{
name = top;
position = "{1030, 1400}";
}
);
layerId = "E338D14E-1DA5-418D-88BC-8956EEA80AB9";
paths = (
{
closed = 1;
nodes = (
"1070 0 LINE SMOOTH",
"1562 0 OFFCURVE",
"1884 180 OFFCURVE",
"1884 700 CURVE SMOOTH",
"1884 1220 OFFCURVE",
"1562 1400 OFFCURVE",
"1070 1400 CURVE SMOOTH",
"440 1400 LINE",
"440 732 LINE",
"146 732 LINE",
"146 668 LINE",
"440 668 LINE",
"440 0 LINE"
);
},
{
closed = 1;
nodes = (
"516 668 LINE",
"1078 668 LINE",
"1078 732 LINE",
"516 732 LINE",
"516 1336 LINE",
"1100 1336 LINE SMOOTH",
"1528 1336 OFFCURVE",
"1808 1172 OFFCURVE",
"1808 700 CURVE SMOOTH",
"1808 228 OFFCURVE",
"1528 64 OFFCURVE",
"1100 64 CURVE SMOOTH",
"516 64 LINE"
);
}
);
width = 2200;
},
{
anchors = (
{
name = bottom;
position = "{472, 0}";
},
{
name = center;
position = "{273, 700}";
},
{
name = top;
position = "{498, 1400}";
}
);
layerId = "5D8A6BC1-E275-4777-AF98-AB9B3DC0EDC1";
paths = (
{
closed = 1;
nodes = (
"521 0 LINE SMOOTH",
"675 0 OFFCURVE",
"937 48 OFFCURVE",
"937 700 CURVE SMOOTH",
"937 1352 OFFCURVE",
"675 1400 OFFCURVE",
"521 1400 CURVE SMOOTH",
"166 1400 LINE",
"166 820 LINE",
"90 820 LINE",
"90 580 LINE",
"166 580 LINE",
"166 0 LINE"
);
},
{
closed = 1;
nodes = (
"505 580 LINE",
"562 580 LINE",
"562 820 LINE",
"505 820 LINE",
"505 1133 LINE",
"524 1133 LINE SMOOTH",
"572 1133 OFFCURVE",
"597 1014 OFFCURVE",
"597 700 CURVE SMOOTH",
"597 389 OFFCURVE",
"569 267 OFFCURVE",
"524 267 CURVE SMOOTH",
"505 267 LINE"
);
}
);
width = 900;
},
{
anchors = (
{
name = bottom;
position = "{1056, 0}";
},
{
name = center;
position = "{599, 700}";
},
{
name = top;
position = "{1007, 1400}";
}
);
layerId = "16EBFD8D-F4C1-4BAA-8DD7-EBE82D779ED1";
paths = (
{
closed = 1;
nodes = (
"1040 0 LINE SMOOTH",
"1431 0 OFFCURVE",
"2032 10 OFFCURVE",
"2032 700 CURVE SMOOTH",
"2032 1390 OFFCURVE",
"1431 1400 OFFCURVE",
"1040 1400 CURVE SMOOTH",
"270 1400 LINE",
"270 820 LINE",
"98 820 LINE",
"98 580 LINE",
"270 580 LINE",
"270 0 LINE"
);
},
{
closed = 1;
nodes = (
"678 580 LINE",
"1134 580 LINE",
"1134 820 LINE",
"678 820 LINE",
"678 1107 LINE",
"1071 1107 LINE SMOOTH",
"1354 1107 OFFCURVE",
"1601 1056 OFFCURVE",
"1601 700 CURVE SMOOTH",
"1601 344 OFFCURVE",
"1363 293 OFFCURVE",
"1071 293 CURVE SMOOTH",
"678 293 LINE"
);
}
);
width = 2200;
}
);
leftKerningGroup = H;
rightKerningGroup = O;
unicode = 00D0;
},
{
color = 6;
glyphname = Dzcaron;
lastChange = "2020-09-23 17:52:13 +0000";
layers = (
{
layerId = "2E286313-D5BF-4FB4-A4B7-BD9BC13B574E";
paths = (
{
closed = 1;
nodes = (
"231 0 LINE SMOOTH",
"391 0 OFFCURVE",
"573 140 OFFCURVE",
"573 700 CURVE SMOOTH",
"573 1260 OFFCURVE",
"391 1400 OFFCURVE",
"231 1400 CURVE SMOOTH",
"55 1400 LINE",
"55 0 LINE"
);
},
{
closed = 1;
nodes = (
"121 1336 LINE",
"222 1336 LINE SMOOTH",
"364 1336 OFFCURVE",
"503 1172 OFFCURVE",
"503 700 CURVE SMOOTH",
"503 228 OFFCURVE",
"364 64 OFFCURVE",
"222 64 CURVE SMOOTH",
"121 64 LINE"
);
},
{
closed = 1;
nodes = (
"1121 0 LINE",
"1121 64 LINE",
"761 64 LINE",
"1117 936 LINE",
"1117 1000 LINE",
"699 1000 LINE",
"699 936 LINE",
"1045 936 LINE",
"689 64 LINE",
"689 0 LINE"
);
},
{
closed = 1;
nodes = (
"890 1145 LINE",
"932 1145 LINE",
"1174 1387 LINE",
"1086 1387 LINE",
"912 1205 LINE",
"736 1387 LINE",
"648 1387 LINE"
);
}
);
width = 1200;
},
{
layerId = "5D8A6BC1-E275-4777-AF98-AB9B3DC0EDC1";
paths = (
{
closed = 1;
nodes = (
"342 0 LINE SMOOTH",
"496 0 OFFCURVE",
"708 48 OFFCURVE",
"708 700 CURVE SMOOTH",
"708 1352 OFFCURVE",
"496 1400 OFFCURVE",
"342 1400 CURVE SMOOTH",
"17 1400 LINE",
"17 0 LINE"
);
},
{
closed = 1;
nodes = (
"326 1133 LINE",
"345 1133 LINE SMOOTH",
"393 1133 OFFCURVE",
"408 1014 OFFCURVE",
"408 700 CURVE SMOOTH",
"408 389 OFFCURVE",
"390 267 OFFCURVE",
"345 267 CURVE SMOOTH",
"326 267 LINE"
);
},
{
closed = 1;
nodes = (
"1201 0 LINE",
"1201 270 LINE",
"1017 270 LINE",
"1193 730 LINE",
"1193 1000 LINE",
"755 1000 LINE",
"755 730 LINE",
"925 730 LINE",
"745 270 LINE",
"745 0 LINE"
);
},
{
closed = 1;
nodes = (
"861 1123 LINE",
"1089 1123 LINE",
"1359 1417 LINE",
"1085 1417 LINE",
"975 1269 LINE",
"865 1417 LINE",
"591 1417 LINE"
);
}
);
width = 1200;
},
{
layerId = "BE68D89F-AB3F-4BDF-B332-ED50D7C47704";
paths = (
{
closed = 1;
nodes = (
"367 0 LINE SMOOTH",
"637 0 OFFCURVE",
"871 140 OFFCURVE",
"871 700 CURVE SMOOTH",
"871 1260 OFFCURVE",
"637 1400 OFFCURVE",
"367 1400 CURVE SMOOTH",
"83 1400 LINE",
"83 0 LINE"
);
},
{
closed = 1;
nodes = (
"149 1336 LINE",
"363 1336 LINE SMOOTH",
"607 1336 OFFCURVE",
"813 1212 OFFCURVE",
"813 700 CURVE SMOOTH",
"813 188 OFFCURVE",
"607 64 OFFCURVE",
"363 64 CURVE SMOOTH",
"149 64 LINE"
);
},
{
closed = 1;
nodes = (
"1666 0 LINE",
"1666 64 LINE",
"1072 64 LINE",
"1662 936 LINE",
"1662 1000 LINE",
"1006 1000 LINE",
"1006 936 LINE",
"1584 936 LINE",
"990 64 LINE",
"990 0 LINE"
);
},
{
closed = 1;
nodes = (
"1301 1145 LINE",
"1367 1145 LINE",
"1627 1387 LINE",
"1529 1387 LINE",
"1335 1195 LINE",
"1139 1387 LINE",
"1041 1387 LINE"
);
}
);
width = 1700;
},
{
layerId = "5521DC30-183F-421A-91F3-644B5E24AFE6";
paths = (
{
closed = 1;
nodes = (
"459 0 LINE SMOOTH",
"665 0 OFFCURVE",
"951 90 OFFCURVE",
"951 700 CURVE SMOOTH",
"951 1311 OFFCURVE",
"665 1400 OFFCURVE",
"459 1400 CURVE SMOOTH",
"25 1400 LINE",
"25 0 LINE"
);
},
{
closed = 1;
nodes = (
"359 1130 LINE",
"429 1130 LINE SMOOTH",
"537 1130 OFFCURVE",
"587 1012 OFFCURVE",
"587 700 CURVE SMOOTH",
"587 388 OFFCURVE",
"537 270 OFFCURVE",
"429 270 CURVE SMOOTH",
"359 270 LINE"
);
},
{
closed = 1;
nodes = (
"1680 0 LINE",
"1680 270 LINE",
"1366 270 LINE",
"1670 730 LINE",
"1670 1000 LINE",
"1036 1000 LINE",
"1036 730 LINE",
"1320 730 LINE",
"1020 270 LINE",
"1020 0 LINE"
);
},
{
closed = 1;
nodes = (
"1272 1123 LINE",
"1500 1123 LINE",
"1810 1417 LINE",
"1526 1417 LINE",
"1386 1269 LINE",
"1246 1417 LINE",
"962 1417 LINE"
);
}
);
width = 1700;
},
{
layerId = "E338D14E-1DA5-418D-88BC-8956EEA80AB9";
paths = (
{
closed = 1;
nodes = (
"566 0 LINE SMOOTH",
"1038 0 OFFCURVE",
"1360 180 OFFCURVE",
"1360 700 CURVE SMOOTH",
"1360 1220 OFFCURVE",
"1038 1400 OFFCURVE",
"566 1400 CURVE SMOOTH",
"66 1400 LINE",
"66 0 LINE"
);
},
{
closed = 1;
nodes = (
"142 1336 LINE",
"596 1336 LINE SMOOTH",
"1004 1336 OFFCURVE",
"1284 1172 OFFCURVE",
"1284 700 CURVE SMOOTH",
"1284 228 OFFCURVE",
"1004 64 OFFCURVE",
"596 64 CURVE SMOOTH",
"142 64 LINE"
);
},
{
closed = 1;
nodes = (
"2560 0 LINE",
"2560 64 LINE",
"1544 64 LINE",
"2554 932 LINE",
"2554 1000 LINE",
"1474 1000 LINE",
"1474 936 LINE",
"2461 936 LINE",
"1446 68 LINE",
"1446 0 LINE"
);
},
{
closed = 1;
nodes = (
"1969 1145 LINE",
"2039 1145 LINE",
"2327 1387 LINE",
"2219 1387 LINE",
"2005 1198 LINE",
"1789 1387 LINE",
"1681 1387 LINE"
);
}
);
width = 2600;
},
{
layerId = "16EBFD8D-F4C1-4BAA-8DD7-EBE82D779ED1";
paths = (
{
closed = 1;
nodes = (
"670 0 LINE SMOOTH",
"971 0 OFFCURVE",
"1452 10 OFFCURVE",
"1452 700 CURVE SMOOTH",
"1452 1390 OFFCURVE",
"971 1400 OFFCURVE",
"670 1400 CURVE SMOOTH",
"170 1400 LINE",
"170 0 LINE"
);
},
{
closed = 1;
nodes = (
"578 1107 LINE",
"701 1107 LINE SMOOTH",
"894 1107 OFFCURVE",
"1021 1056 OFFCURVE",
"1021 700 CURVE SMOOTH",
"1021 344 OFFCURVE",
"903 293 OFFCURVE",
"701 293 CURVE SMOOTH",
"578 293 LINE"
);
},
{
closed = 1;
nodes = (
"2602 0 LINE",
"2602 293 LINE",
"2064 293 LINE",
"2587 706 LINE",
"2587 1000 LINE",
"1564 1000 LINE",
"1564 707 LINE",
"2060 707 LINE",
"1536 286 LINE",
"1536 0 LINE"
);
},
{
closed = 1;
nodes = (
"1944 1123 LINE",
"2212 1123 LINE",
"2612 1417 LINE",
"2258 1417 LINE",
"2078 1269 LINE",
"1898 1417 LINE",
"1544 1417 LINE"
);
}
);
width = 2600;
}
);
leftKerningGroup = H;
rightKerningGroup = z;
unicode = 01C5;
},
{
color = 6;
glyphname = E;
lastChange = "2020-09-10 12:23:18 +0000";
layers = (
{
anchors = (
{
name = bottom;
position = "{680, 0}";
},
{
name = ogonek;
position = "{1150, 0}";
},
{
name = top;
position = "{680, 1400}";
},
{
name = topleft;
position = "{80, 1400}";
}
);
layerId = "5521DC30-183F-421A-91F3-644B5E24AFE6";
paths = (
{
closed = 1;
nodes = (
"1150 0 LINE",
"1150 270 LINE",
"546 270 LINE",
"546 554 LINE",
"1082 554 LINE",
"1082 822 LINE",
"546 822 LINE",
"546 1130 LINE",
"1150 1130 LINE",
"1150 1400 LINE",
"172 1400 LINE",
"172 0 LINE"
);
}
);
width = 1300;
},
{
anchors = (
{
name = bottom;
position = "{700, 0}";
},
{
name = ogonek;
position = "{1076, 0}";
},
{
name = top;
position = "{700, 1400}";
},
{
name = topleft;
position = "{100, 1400}";
}
);
layerId = "BE68D89F-AB3F-4BDF-B332-ED50D7C47704";
paths = (
{
closed = 1;
nodes = (
"1076 0 LINE",
"1076 64 LINE",
"344 64 LINE",
"344 656 LINE",
"988 656 LINE",
"988 720 LINE",
"344 720 LINE",
"344 1336 LINE",
"1076 1336 LINE",
"1076 1400 LINE",
"278 1400 LINE",
"278 0 LINE"
);
}
);
width = 1300;
},
{
anchors = (
{
name = bottom;
position = "{458, 0}";
},
{
name = ogonek;
position = "{706, 0}";
},
{
name = top;
position = "{478, 1400}";
},
{
name = topleft;
position = "{168, 1400}";
}
);
layerId = "2E286313-D5BF-4FB4-A4B7-BD9BC13B574E";
paths = (
{
closed = 1;
nodes = (
"706 0 LINE",
"706 64 LINE",
"282 64 LINE",
"282 656 LINE",
"646 656 LINE",
"646 720 LINE",
"282 720 LINE",
"282 1336 LINE",
"706 1336 LINE",
"706 1400 LINE",
"216 1400 LINE",
"216 0 LINE"
);
}
);
width = 900;
},
{
anchors = (
{
name = bottom;
position = "{1130, 0}";
},
{
name = ogonek;
position = "{1810, 0}";
},
{
name = top;
position = "{1130, 1400}";
},
{
name = topleft;
position = "{80, 1400}";
}
);
layerId = "E338D14E-1DA5-418D-88BC-8956EEA80AB9";
paths = (
{
closed = 1;
nodes = (
"1810 0 LINE",
"1810 64 LINE",
"460 64 LINE",
"460 656 LINE",
"1700 656 LINE",
"1700 720 LINE",
"460 720 LINE",
"460 1336 LINE",
"1810 1336 LINE",
"1810 1400 LINE",
"384 1400 LINE",
"384 0 LINE"
);
}
);
width = 2200;
},
{
anchors = (
{
name = bottom;
position = "{488, 0}";
},
{
name = ogonek;
position = "{778, 0}";
},
{
name = top;
position = "{496, 1400}";
},
{
name = topleft;
position = "{128, 1400}";
}
);
layerId = "5D8A6BC1-E275-4777-AF98-AB9B3DC0EDC1";
paths = (
{
closed = 1;
nodes = (
"778 0 LINE",
"778 270 LINE",
"492 270 LINE",
"492 554 LINE",
"744 554 LINE",
"744 822 LINE",
"492 822 LINE",
"492 1130 LINE",
"778 1130 LINE",
"778 1400 LINE",
"120 1400 LINE",
"120 0 LINE"
);
}
);
width = 900;
},
{
anchors = (
{
name = bottom;
position = "{1124, 0}";
},
{
name = ogonek;
position = "{1924, 0}";
},
{
name = top;
position = "{1108, 1400}";
},
{
name = topleft;
position = "{14, 1400}";
}
);
layerId = "16EBFD8D-F4C1-4BAA-8DD7-EBE82D779ED1";
paths = (
{
closed = 1;
nodes = (
"1924 0 LINE",
"1924 290 LINE",
"664 290 LINE",
"664 544 LINE",
"1788 544 LINE",
"1788 832 LINE",
"664 832 LINE",
"664 1110 LINE",
"1924 1110 LINE",
"1924 1400 LINE",
"256 1400 LINE",
"256 0 LINE"
);
}
);
width = 2200;
}
);
leftKerningGroup = H;
rightKerningGroup = E;
unicode = 0045;
},
{
color = 6;
glyphname = F;
lastChange = "2020-09-10 12:23:18 +0000";
layers = (
{
anchors = (
{
name = bottom;
position = "{628, 0}";
},
{
name = top;
position = "{628, 1400}";
}
);
layerId = "5521DC30-183F-421A-91F3-644B5E24AFE6";
paths = (
{
closed = 1;
nodes = (
"608 0 LINE",
"608 449 LINE",
"1038 449 LINE",
"1038 719 LINE",
"608 719 LINE",
"608 1130 LINE",
"1136 1130 LINE",
"1136 1400 LINE",
"234 1400 LINE",
"234 0 LINE"
);
}
);
width = 1300;
},
{
anchors = (
{
name = bottom;
position = "{630, 0}";
},
{
name = top;
position = "{630, 1400}";
}
);
layerId = "BE68D89F-AB3F-4BDF-B332-ED50D7C47704";
paths = (
{
closed = 1;
nodes = (
"378 0 LINE",
"378 606 LINE",
"990 606 LINE",
"990 670 LINE",
"378 670 LINE",
"378 1336 LINE",
"1080 1336 LINE",
"1080 1400 LINE",
"312 1400 LINE",
"312 0 LINE"
);
}
);
width = 1300;
},
{
anchors = (
{
name = bottom;
position = "{460, 0}";
},
{
name = top;
position = "{460, 1400}";
}
);
layerId = "2E286313-D5BF-4FB4-A4B7-BD9BC13B574E";
paths = (
{
closed = 1;
nodes = (
"328 0 LINE",
"328 596 LINE",
"650 596 LINE",
"650 660 LINE",
"328 660 LINE",
"328 1336 LINE",
"716 1336 LINE",
"716 1400 LINE",
"262 1400 LINE",
"262 0 LINE"
);
}
);
width = 900;
},
{
anchors = (
{
name = bottom;
position = "{1140, 0}";
},
{
name = top;
position = "{1140, 1400}";
}
);
layerId = "E338D14E-1DA5-418D-88BC-8956EEA80AB9";
paths = (
{
closed = 1;
nodes = (
"568 0 LINE",
"568 596 LINE",
"1778 596 LINE",
"1778 660 LINE",
"568 660 LINE",
"568 1336 LINE",
"1848 1336 LINE",
"1848 1400 LINE",
"492 1400 LINE",
"492 0 LINE"
);
}
);
width = 2200;
},
{
anchors = (
{
name = bottom;
position = "{435, 0}";
},
{
name = top;
position = "{435, 1400}";
}
);
layerId = "5D8A6BC1-E275-4777-AF98-AB9B3DC0EDC1";
paths = (
{
closed = 1;
nodes = (
"496 0 LINE",
"496 484 LINE",
"714 484 LINE",
"714 731 LINE",
"496 731 LINE",
"496 1153 LINE",
"764 1153 LINE",
"764 1400 LINE",
"157 1400 LINE",
"157 0 LINE"
);
}
);
width = 900;
},
{
anchors = (
{
name = bottom;
position = "{1140, 0}";
},
{
name = top;
position = "{1140, 1400}";
}
);
layerId = "16EBFD8D-F4C1-4BAA-8DD7-EBE82D779ED1";
paths = (
{
closed = 1;
nodes = (
"823 0 LINE",
"823 461 LINE",
"1735 461 LINE",
"1735 754 LINE",
"823 754 LINE",
"823 1107 LINE",
"1880 1107 LINE",
"1880 1400 LINE",
"415 1400 LINE",
"415 0 LINE"
);
}
);
width = 2200;
}
);
leftKerningGroup = H;
rightKerningGroup = F;
unicode = 0046;
},
{
color = 6;
glyphname = G;
lastChange = "2020-09-10 12:23:18 +0000";
layers = (
{
anchors = (
{
name = bottom;
position = "{660, 0}";
},
{
name = top;
position = "{660, 1400}";
}
);
layerId = "5521DC30-183F-421A-91F3-644B5E24AFE6";
paths = (
{
closed = 1;
nodes = (
"964 -22 OFFCURVE",
"1204 172 OFFCURVE",
"1204 578 CURVE SMOOTH",
"1204 746 LINE",
"648 746 LINE",
"648 470 LINE",
"852 470 LINE",
"852 343 OFFCURVE",
"806 252 OFFCURVE",
"676 252 CURVE SMOOTH",
"540 252 OFFCURVE",
"432 372 OFFCURVE",
"432 696 CURVE SMOOTH",
"432 1020 OFFCURVE",
"540 1138 OFFCURVE",
"660 1138 CURVE SMOOTH",
"770 1138 OFFCURVE",
"832 1030 OFFCURVE",
"848 916 CURVE",
"1190 1044 LINE",
"1146 1279 OFFCURVE",
"938 1412 OFFCURVE",
"668 1412 CURVE SMOOTH",
"372 1412 OFFCURVE",
"60 1230 OFFCURVE",
"60 696 CURVE SMOOTH",
"60 160 OFFCURVE",
"376 -22 OFFCURVE",
"672 -22 CURVE SMOOTH"
);
}
);
width = 1300;
},
{
anchors = (
{
name = bottom;
position = "{720, 0}";
},
{
name = top;
position = "{690, 1400}";
}
);
layerId = "BE68D89F-AB3F-4BDF-B332-ED50D7C47704";
paths = (
{
closed = 1;
nodes = (
"942 -22 OFFCURVE",
"1188 140 OFFCURVE",
"1188 636 CURVE SMOOTH",
"1188 700 LINE",
"702 700 LINE",
"702 636 LINE",
"1120 636 LINE",
"1120 200 OFFCURVE",
"916 44 OFFCURVE",
"706 44 CURVE SMOOTH",
"492 44 OFFCURVE",
"230 230 OFFCURVE",
"230 696 CURVE SMOOTH",
"230 1152 OFFCURVE",
"480 1346 OFFCURVE",
"704 1346 CURVE SMOOTH",
"906 1346 OFFCURVE",
"1026 1240 OFFCURVE",
"1064 1126 CURVE",
"1130 1164 LINE",
"1088 1283 OFFCURVE",
"938 1412 OFFCURVE",
"704 1412 CURVE SMOOTH",
"460 1412 OFFCURVE",
"160 1230 OFFCURVE",
"160 696 CURVE SMOOTH",
"160 150 OFFCURVE",
"472 -22 OFFCURVE",
"706 -22 CURVE SMOOTH"
);
}
);
width = 1300;
},
{
anchors = (
{
name = bottom;
position = "{450, 0}";
},
{
name = top;
position = "{450, 1400}";
}
);
layerId = "2E286313-D5BF-4FB4-A4B7-BD9BC13B574E";
paths = (
{
closed = 1;
nodes = (
"660 -22 OFFCURVE",
"740 170 OFFCURVE",
"740 656 CURVE SMOOTH",
"740 720 LINE",
"464 720 LINE",
"464 656 LINE",
"672 656 LINE",
"672 180 OFFCURVE",
"610 44 OFFCURVE",
"460 44 CURVE SMOOTH",
"286 44 OFFCURVE",
"220 250 OFFCURVE",
"220 696 CURVE SMOOTH",
"220 1142 OFFCURVE",
"304 1346 OFFCURVE",
"458 1346 CURVE SMOOTH",
"598 1346 OFFCURVE",
"642 1175 OFFCURVE",
"656 1106 CURVE",
"715 1144 LINE",
"695 1233 OFFCURVE",
"626 1412 OFFCURVE",
"458 1412 CURVE SMOOTH",
"276 1412 OFFCURVE",
"152 1220 OFFCURVE",
"152 696 CURVE SMOOTH",
"152 170 OFFCURVE",
"264 -22 OFFCURVE",
"460 -22 CURVE SMOOTH"
);
}
);
width = 900;
},
{
anchors = (
{
name = bottom;
position = "{1100, 0}";
},
{
name = top;
position = "{1100, 1400}";
}
);
layerId = "E338D14E-1DA5-418D-88BC-8956EEA80AB9";
paths = (
{
closed = 1;
nodes = (
"1498 -22 OFFCURVE",
"1874 140 OFFCURVE",
"1874 646 CURVE SMOOTH",
"1874 710 LINE",
"1032 710 LINE",
"1032 646 LINE",
"1802 646 LINE",
"1802 200 OFFCURVE",
"1492 42 OFFCURVE",
"1110 42 CURVE SMOOTH",
"700 42 OFFCURVE",
"346 236 OFFCURVE",
"346 696 CURVE SMOOTH",
"346 1142 OFFCURVE",
"700 1348 OFFCURVE",
"1128 1348 CURVE SMOOTH",
"1426 1348 OFFCURVE",
"1642 1242 OFFCURVE",
"1740 1138 CURVE",
"1796 1186 LINE",
"1696 1294 OFFCURVE",
"1478 1412 OFFCURVE",
"1128 1412 CURVE SMOOTH",
"698 1412 OFFCURVE",
"268 1220 OFFCURVE",
"268 696 CURVE SMOOTH",
"268 170 OFFCURVE",
"682 -22 OFFCURVE",
"1110 -22 CURVE SMOOTH"
);
}
);
width = 2200;
},
{
anchors = (
{
name = bottom;
position = "{450, 0}";
},
{
name = top;
position = "{450, 1400}";
}
);
layerId = "5D8A6BC1-E275-4777-AF98-AB9B3DC0EDC1";
paths = (
{
closed = 1;
nodes = (
"735 -22 OFFCURVE",
"860 187 OFFCURVE",
"860 600 CURVE SMOOTH",
"860 755 LINE",
"457 755 LINE",
"457 503 LINE",
"547 503 LINE",
"547 349 OFFCURVE",
"533 249 OFFCURVE",
"471 249 CURVE SMOOTH",
"402 249 OFFCURVE",
"387 317 OFFCURVE",
"387 696 CURVE SMOOTH",
"387 1060 OFFCURVE",
"411 1141 OFFCURVE",
"460 1141 CURVE SMOOTH",
"508 1141 OFFCURVE",
"531 993 OFFCURVE",
"535 935 CURVE",
"835 1054 LINE",
"818 1243 OFFCURVE",
"687 1412 OFFCURVE",
"469 1412 CURVE SMOOTH",
"227 1412 OFFCURVE",
"51 1229 OFFCURVE",
"51 696 CURVE SMOOTH",
"51 161 OFFCURVE",
"208 -22 OFFCURVE",
"471 -22 CURVE SMOOTH"
);
}
);
width = 900;
},
{
anchors = (
{
name = bottom;
position = "{1190, 0}";
},
{
name = top;
position = "{1124, 1400}";
}
);
layerId = "16EBFD8D-F4C1-4BAA-8DD7-EBE82D779ED1";
paths = (
{
closed = 1;
nodes = (
"1559 -22 OFFCURVE",
"2052 180 OFFCURVE",
"2052 627 CURVE SMOOTH",
"2052 798 LINE",
"1138 798 LINE",
"1138 527 LINE",
"1637 527 LINE",
"1623 382 OFFCURVE",
"1436 276 OFFCURVE",
"1131 276 CURVE SMOOTH",
"899 276 OFFCURVE",
"566 326 OFFCURVE",
"566 696 CURVE SMOOTH",
"566 1067 OFFCURVE",
"931 1114 OFFCURVE",
"1162 1114 CURVE SMOOTH",
"1408 1114 OFFCURVE",
"1592 1025 OFFCURVE",
"1653 948 CURVE",
"1974 1178 LINE",
"1909 1252 OFFCURVE",
"1608 1412 OFFCURVE",
"1167 1412 CURVE SMOOTH",
"728 1412 OFFCURVE",
"150 1257 OFFCURVE",
"150 696 CURVE SMOOTH",
"150 135 OFFCURVE",
"685 -22 OFFCURVE",
"1126 -22 CURVE SMOOTH"
);
}
);
width = 2200;
}
);
leftKerningGroup = O;
rightKerningGroup = G;
unicode = 0047;
},
{
color = 6;
glyphname = H;
lastChange = "2020-09-10 12:23:18 +0000";
layers = (
{
anchors = (
{
name = bottom;
position = "{635, 0}";
},
{
name = center;
position = "{635, 1084}";
},
{
name = top;
position = "{635, 1400}";
},
{
name = topleft;
position = "{93, 1400}";
}
);
layerId = "5521DC30-183F-421A-91F3-644B5E24AFE6";
paths = (
{
closed = 1;
nodes = (
"467 0 LINE",
"467 594 LINE",
"835 594 LINE",
"835 0 LINE",
"1209 0 LINE",
"1209 1400 LINE",
"835 1400 LINE",
"835 862 LINE",
"467 862 LINE",
"467 1400 LINE",
"93 1400 LINE",
"93 0 LINE"
);
}
);
width = 1300;
},
{
anchors = (
{
name = bottom;
position = "{639, 0}";
},
{
name = center;
position = "{639, 1114}";
},
{
name = top;
position = "{639, 1400}";
},
{
name = topleft;
position = "{259, 1400}";
}
);
layerId = "BE68D89F-AB3F-4BDF-B332-ED50D7C47704";
paths = (
{
closed = 1;
nodes = (
"299 0 LINE",
"299 696 LINE",
"995 696 LINE",
"995 0 LINE",
"1061 0 LINE",
"1061 1400 LINE",
"995 1400 LINE",
"995 760 LINE",
"299 760 LINE",
"299 1400 LINE",
"233 1400 LINE",
"233 0 LINE"
);
}
);
width = 1300;
},
{
anchors = (
{
name = bottom;
position = "{452, 0}";
},
{
name = center;
position = "{452, 1062}";
},
{
name = top;
position = "{452, 1400}";
},
{
name = topleft;
position = "{180, 1400}";
}
);
layerId = "2E286313-D5BF-4FB4-A4B7-BD9BC13B574E";
paths = (
{
closed = 1;
nodes = (
"246 0 LINE",
"246 696 LINE",
"656 696 LINE",
"656 0 LINE",
"722 0 LINE",
"722 1400 LINE",
"656 1400 LINE",
"656 760 LINE",
"246 760 LINE",
"246 1400 LINE",
"180 1400 LINE",
"180 0 LINE"
);
}
);
width = 900;
},
{
anchors = (
{
name = bottom;
position = "{1050, 0}";
},
{
name = center;
position = "{1050, 1132}";
},
{
name = top;
position = "{1050, 1400}";
},
{
name = topleft;
position = "{374, 1400}";
}
);
layerId = "E338D14E-1DA5-418D-88BC-8956EEA80AB9";
paths = (
{
closed = 1;
nodes = (
"450 0 LINE",
"450 696 LINE",
"1708 696 LINE",
"1708 0 LINE",
"1784 0 LINE",
"1784 1400 LINE",
"1708 1400 LINE",
"1708 760 LINE",
"450 760 LINE",
"450 1400 LINE",
"374 1400 LINE",
"374 0 LINE"
);
}
);
width = 2200;
},
{
anchors = (
{
name = bottom;
position = "{458, 0}";
},
{
name = center;
position = "{458, 1056}";
},
{
name = top;
position = "{458, 1400}";
},
{
name = topleft;
position = "{48, 1400}";
}
);
layerId = "5D8A6BC1-E275-4777-AF98-AB9B3DC0EDC1";
paths = (
{
closed = 1;
nodes = (
"422 0 LINE",
"422 594 LINE",
"478 594 LINE",
"478 0 LINE",
"852 0 LINE",
"852 1400 LINE",
"478 1400 LINE",
"478 862 LINE",
"422 862 LINE",
"422 1400 LINE",
"48 1400 LINE",
"48 0 LINE"
);
}
);
width = 900;
},
{
anchors = (
{
name = bottom;
position = "{1024, 0}";
},
{
name = center;
position = "{1024, 1140}";
},
{
name = top;
position = "{1024, 1400}";
},
{
name = topleft;
position = "{243, 1400}";
}
);
layerId = "16EBFD8D-F4C1-4BAA-8DD7-EBE82D779ED1";
paths = (
{
closed = 1;
nodes = (
"652 0 LINE",
"652 579 LINE",
"1494 579 LINE",
"1494 0 LINE",
"1903 0 LINE",
"1903 1400 LINE",
"1494 1400 LINE",
"1494 877 LINE",
"652 877 LINE",
"652 1400 LINE",
"243 1400 LINE",
"243 0 LINE"
);
}
);
width = 2200;
}
);
leftKerningGroup = H;
rightKerningGroup = H;
unicode = 0048;
},
{
color = 3;
glyphname = Hbar;
lastChange = "2020-09-10 12:23:29 +0000";
layers = (
{
components = (
{
name = H;
}
);
layerId = "5521DC30-183F-421A-91F3-644B5E24AFE6";
paths = (
{
closed = 1;
nodes = (
"1258 984 LINE",
"1258 1222 LINE",
"42 1222 LINE",
"42 984 LINE"
);
}
);
width = 1300;
},
{
components = (
{
name = H;
}
);
layerId = "BE68D89F-AB3F-4BDF-B332-ED50D7C47704";
paths = (
{
closed = 1;
nodes = (
"1134 1062 LINE",
"1134 1126 LINE",
"165 1126 LINE",
"165 1062 LINE"
);
}
);
width = 1300;
},
{
components = (
{
name = H;
}
);
layerId = "2E286313-D5BF-4FB4-A4B7-BD9BC13B574E";
paths = (
{
closed = 1;
nodes = (
"784 1060 LINE",
"784 1124 LINE",
"116 1124 LINE",
"116 1060 LINE"
);
}
);
width = 900;
},
{
components = (
{
name = H;
transform = "{1, 0, 0, 1, 20, 0}";
}
);
layerId = "E338D14E-1DA5-418D-88BC-8956EEA80AB9";
paths = (
{
closed = 1;
nodes = (
"1937 1100 LINE",
"1937 1164 LINE",
"261 1164 LINE",
"261 1100 LINE"
);
}
);
width = 2200;
},
{
components = (
{
name = H;
}
);
layerId = "5D8A6BC1-E275-4777-AF98-AB9B3DC0EDC1";
paths = (
{
closed = 1;
nodes = (
"907 1007 LINE",
"907 1225 LINE",
"-3 1225 LINE",
"-3 1007 LINE"
);
}
);
width = 900;
},
{
components = (
{
alignment = -1;
name = H;
transform = "{1, 0, 0, 1, 12, 0}";
}
);
layerId = "16EBFD8D-F4C1-4BAA-8DD7-EBE82D779ED1";
paths = (
{
closed = 1;
nodes = (
"2052 1011 LINE",
"2052 1269 LINE",
"122 1269 LINE",
"122 1011 LINE"
);
}
);
width = 2200;
}
);
leftKerningGroup = H;
widthMetricsKey = H;
rightKerningGroup = H;
unicode = 0126;
},
{
color = 6;
glyphname = I;
lastChange = "2020-09-25 11:37:02 +0000";
layers = (
{
anchors = (
{
name = bottom;
position = "{652, 0}";
},
{
name = ogonek;
position = "{1114, 0}";
},
{
name = top;
position = "{652, 1400}";
},
{
name = topleft;
position = "{186, 1400}";
}
);
layerId = "5521DC30-183F-421A-91F3-644B5E24AFE6";
paths = (
{
closed = 1;
nodes = (
"1114 0 LINE",
"1114 270 LINE",
"836 270 LINE",
"836 1130 LINE",
"1114 1130 LINE",
"1114 1400 LINE",
"186 1400 LINE",
"186 1130 LINE",
"462 1130 LINE",
"462 270 LINE",
"186 270 LINE",
"186 0 LINE"
);
}
);
width = 1300;
},
{
anchors = (
{
name = bottom;
position = "{652, 0}";
},
{
name = ogonek;
position = "{982, 0}";
},
{
name = top;
position = "{652, 1400}";
},
{
name = topleft;
position = "{318, 1400}";
}
);
layerId = "BE68D89F-AB3F-4BDF-B332-ED50D7C47704";
paths = (
{
closed = 1;
nodes = (
"982 0 LINE",
"982 64 LINE",
"682 64 LINE",
"682 1336 LINE",
"982 1336 LINE",
"982 1400 LINE",
"318 1400 LINE",
"318 1336 LINE",
"616 1336 LINE",
"616 64 LINE",
"318 64 LINE",
"318 0 LINE"
);
}
);
width = 1300;
},
{
anchors = (
{
name = bottom;
position = "{453, 0}";
},
{
name = ogonek;
position = "{703, 0}";
},
{
name = top;
position = "{451, 1400}";
},
{
name = topleft;
position = "{199, 1400}";
}
);
layerId = "2E286313-D5BF-4FB4-A4B7-BD9BC13B574E";
paths = (
{
closed = 1;
nodes = (
"703 0 LINE",
"703 64 LINE",
"483 64 LINE",
"483 1336 LINE",
"703 1336 LINE",
"703 1400 LINE",
"199 1400 LINE",
"199 1336 LINE",
"417 1336 LINE",
"417 64 LINE",
"199 64 LINE",
"199 0 LINE"
);
}
);
width = 900;
},
{
anchors = (
{
name = bottom;
position = "{1103, 0}";
},
{
name = ogonek;
position = "{1771, 0}";
},
{
name = top;
position = "{1103, 1400}";
},
{
name = topleft;
position = "{429, 1400}";
}
);
layerId = "E338D14E-1DA5-418D-88BC-8956EEA80AB9";
paths = (
{
closed = 1;
nodes = (
"1771 0 LINE",
"1771 64 LINE",
"1137 64 LINE",
"1137 1336 LINE",
"1771 1336 LINE",
"1771 1400 LINE",
"429 1400 LINE",
"429 1336 LINE",
"1061 1336 LINE",
"1061 64 LINE",
"429 64 LINE",
"429 0 LINE"
);
}
);
width = 2200;
},
{
anchors = (
{
name = bottom;
position = "{452, 0}";
},
{
name = ogonek;
position = "{820, 0}";
},
{
name = top;
position = "{452, 1400}";
},
{
name = topleft;
position = "{82, 1400}";
}
);
layerId = "5D8A6BC1-E275-4777-AF98-AB9B3DC0EDC1";
paths = (
{
closed = 1;
nodes = (
"820 0 LINE",
"820 270 LINE",
"638 270 LINE",
"638 1130 LINE",
"820 1130 LINE",
"820 1400 LINE",
"82 1400 LINE",
"82 1130 LINE",
"264 1130 LINE",
"264 270 LINE",
"82 270 LINE",
"82 0 LINE"
);
}
);
width = 900;
},
{
anchors = (
{
name = bottom;
position = "{1105, 0}";
},
{
name = ogonek;
position = "{1845, 0}";
},
{
name = top;
position = "{1105, 1400}";
},
{
name = topleft;
position = "{351, 1400}";
}
);
layerId = "16EBFD8D-F4C1-4BAA-8DD7-EBE82D779ED1";
paths = (
{
closed = 1;
nodes = (
"1845 0 LINE",
"1845 290 LINE",
"1305 290 LINE",
"1305 1110 LINE",
"1845 1110 LINE",
"1845 1400 LINE",
"351 1400 LINE",
"351 1110 LINE",
"891 1110 LINE",
"891 290 LINE",
"351 290 LINE",
"351 0 LINE"
);
}
);
width = 2200;
}
);
leftKerningGroup = H;
rightKerningGroup = H;
unicode = 0049;
},
{
color = 6;
glyphname = I.ss01;
lastChange = "2020-09-10 12:23:18 +0000";
layers = (
{
anchors = (
{
name = bottom;
position = "{300, 0}";
},
{
name = ogonek;
position = "{335, 0}";
},
{
name = top;
position = "{300, 1400}";
},
{
name = topleft;
position = "{20, 1400}";
}
);
layerId = "2E286313-D5BF-4FB4-A4B7-BD9BC13B574E";
paths = (
{
closed = 1;
nodes = (
"335 0 LINE",
"335 1400 LINE",
"267 1400 LINE",
"267 0 LINE"
);
}
);
width = 600;
},
{
anchors = (
{
name = bottom;
position = "{300, 0}";
},
{
name = ogonek;
position = "{470, 0}";
},
{
name = top;
position = "{300, 1400}";
},
{
name = topleft;
position = "{20, 1400}";
}
);
layerId = "5D8A6BC1-E275-4777-AF98-AB9B3DC0EDC1";
paths = (
{
closed = 1;
nodes = (
"470 0 LINE",
"470 1400 LINE",
"126 1400 LINE",
"126 0 LINE"
);
}
);
width = 600;
},
{
anchors = (
{
name = bottom;
position = "{500, 0}";
},
{
name = ogonek;
position = "{531, 0}";
},
{
name = top;
position = "{500, 1400}";
},
{
name = topleft;
position = "{20, 1400}";
}
);
layerId = "BE68D89F-AB3F-4BDF-B332-ED50D7C47704";
paths = (
{
closed = 1;
nodes = (
"531 0 LINE",
"531 1400 LINE",
"465 1400 LINE",
"465 0 LINE"
);
}
);
width = 1000;
},
{
anchors = (
{
name = bottom;
position = "{500, 0}";
},
{
name = ogonek;
position = "{686, 0}";
},
{
name = top;
position = "{500, 1400}";
},
{
name = topleft;
position = "{20, 1400}";
}
);
layerId = "5521DC30-183F-421A-91F3-644B5E24AFE6";
paths = (
{
closed = 1;
nodes = (
"686 0 LINE",
"686 1400 LINE",
"312 1400 LINE",
"312 0 LINE"
);
}
);
width = 1000;
},
{
anchors = (
{
name = bottom;
position = "{900, 0}";
},
{
name = ogonek;
position = "{938, 0}";
},
{
name = top;
position = "{900, 1400}";
},
{
name = topleft;
position = "{20, 1400}";
}
);
layerId = "E338D14E-1DA5-418D-88BC-8956EEA80AB9";
paths = (
{
closed = 1;
nodes = (
"938 0 LINE",
"938 1400 LINE",
"866 1400 LINE",
"866 0 LINE"
);
}
);
width = 1800;
},
{
anchors = (
{
name = bottom;
position = "{900, 0}";
},
{
name = ogonek;
position = "{1104, 0}";
},
{
name = top;
position = "{900, 1400}";
},
{
name = topleft;
position = "{20, 1400}";
}
);
layerId = "16EBFD8D-F4C1-4BAA-8DD7-EBE82D779ED1";
paths = (
{
closed = 1;
nodes = (
"1104 0 LINE",
"1104 1400 LINE",
"690 1400 LINE",
"690 0 LINE"
);
}
);
width = 1800;
}
);
leftKerningGroup = H;
rightKerningGroup = H;
},
{
color = 6;
glyphname = J;
lastChange = "2020-09-10 12:23:18 +0000";
layers = (
{
anchors = (
{
name = bottom;
position = "{680, 0}";
},
{
name = top;
position = "{770, 1400}";
}
);
layerId = "5521DC30-183F-421A-91F3-644B5E24AFE6";
paths = (
{
closed = 1;
nodes = (
"920 -22 OFFCURVE",
"1160 138 OFFCURVE",
"1160 532 CURVE SMOOTH",
"1160 1400 LINE",
"288 1400 LINE",
"288 1130 LINE",
"786 1130 LINE",
"786 568 LINE SMOOTH",
"786 364 OFFCURVE",
"718 262 OFFCURVE",
"616 262 CURVE SMOOTH",
"516 262 OFFCURVE",
"446 364 OFFCURVE",
"446 568 CURVE",
"70 568 LINE",
"70 138 OFFCURVE",
"316 -22 OFFCURVE",
"616 -22 CURVE SMOOTH"
);
}
);
width = 1300;
},
{
anchors = (
{
name = bottom;
position = "{650, 0}";
},
{
name = top;
position = "{688, 1400}";
}
);
layerId = "BE68D89F-AB3F-4BDF-B332-ED50D7C47704";
paths = (
{
closed = 1;
nodes = (
"828 -22 OFFCURVE",
"982 134 OFFCURVE",
"982 548 CURVE SMOOTH",
"982 1400 LINE",
"336 1400 LINE",
"336 1336 LINE",
"916 1336 LINE",
"916 552 LINE SMOOTH",
"916 202 OFFCURVE",
"810 44 OFFCURVE",
"594 44 CURVE SMOOTH",
"380 44 OFFCURVE",
"270 202 OFFCURVE",
"270 552 CURVE",
"204 552 LINE",
"204 134 OFFCURVE",
"362 -22 OFFCURVE",
"594 -22 CURVE SMOOTH"
);
}
);
width = 1300;
},
{
anchors = (
{
name = bottom;
position = "{482, 0}";
},
{
name = top;
position = "{518, 1400}";
}
);
layerId = "2E286313-D5BF-4FB4-A4B7-BD9BC13B574E";
paths = (
{
closed = 1;
nodes = (
"606 -22 OFFCURVE",
"690 164 OFFCURVE",
"690 532 CURVE SMOOTH",
"690 1400 LINE",
"286 1400 LINE",
"286 1336 LINE",
"624 1336 LINE",
"624 510 LINE SMOOTH",
"624 212 OFFCURVE",
"570 44 OFFCURVE",
"432 44 CURVE SMOOTH",
"292 44 OFFCURVE",
"238 198 OFFCURVE",
"238 512 CURVE",
"172 512 LINE",
"172 144 OFFCURVE",
"260 -22 OFFCURVE",
"432 -22 CURVE SMOOTH"
);
}
);
width = 900;
},
{
anchors = (
{
name = bottom;
position = "{1100, 0}";
},
{
name = top;
position = "{1126, 1400}";
}
);
layerId = "E338D14E-1DA5-418D-88BC-8956EEA80AB9";
paths = (
{
closed = 1;
nodes = (
"1444 -22 OFFCURVE",
"1748 134 OFFCURVE",
"1748 578 CURVE SMOOTH",
"1748 1400 LINE",
"500 1400 LINE",
"500 1336 LINE",
"1667 1336 LINE",
"1667 568 LINE SMOOTH",
"1667 190 OFFCURVE",
"1408 44 OFFCURVE",
"1034 44 CURVE SMOOTH",
"654 44 OFFCURVE",
"392 208 OFFCURVE",
"392 552 CURVE",
"324 552 LINE",
"324 138 OFFCURVE",
"628 -22 OFFCURVE",
"1034 -22 CURVE SMOOTH"
);
}
);
width = 2200;
},
{
anchors = (
{
name = bottom;
position = "{522, 0}";
},
{
name = top;
position = "{495, 1400}";
}
);
layerId = "5D8A6BC1-E275-4777-AF98-AB9B3DC0EDC1";
paths = (
{
closed = 1;
nodes = (
"680 -22 OFFCURVE",
"833 168 OFFCURVE",
"833 533 CURVE SMOOTH",
"833 1400 LINE",
"186 1400 LINE",
"186 1153 LINE",
"495 1153 LINE",
"495 566 LINE SMOOTH",
"495 365 OFFCURVE",
"489 249 OFFCURVE",
"440 249 CURVE SMOOTH",
"394 249 OFFCURVE",
"385 365 OFFCURVE",
"385 566 CURVE",
"46 566 LINE",
"46 159 OFFCURVE",
"200 -22 OFFCURVE",
"440 -22 CURVE SMOOTH"
);
}
);
width = 900;
},
{
anchors = (
{
name = bottom;
position = "{975, 0}";
},
{
name = top;
position = "{1167, 1400}";
}
);
layerId = "16EBFD8D-F4C1-4BAA-8DD7-EBE82D779ED1";
paths = (
{
closed = 1;
nodes = (
"1372 -22 OFFCURVE",
"1798 143 OFFCURVE",
"1798 533 CURVE SMOOTH",
"1798 1400 LINE",
"430 1400 LINE",
"430 1107 LINE",
"1377 1107 LINE",
"1377 570 LINE SMOOTH",
"1377 358 OFFCURVE",
"1207 287 OFFCURVE",
"957 287 CURVE SMOOTH",
"714 287 OFFCURVE",
"541 357 OFFCURVE",
"541 570 CURVE",
"116 570 LINE",
"116 144 OFFCURVE",
"540 -22 OFFCURVE",
"957 -22 CURVE SMOOTH"
);
}
);
width = 2200;
}
);
leftKerningGroup = J;
rightKerningGroup = J;
unicode = 004A;
},
{
color = 6;
glyphname = J.ss01;
lastChange = "2020-09-10 12:23:18 +0000";
layers = (
{
anchors = (
{
name = bottom;
position = "{482, 0}";
},
{
name = top;
position = "{655, 1400}";
}
);
layerId = "2E286313-D5BF-4FB4-A4B7-BD9BC13B574E";
paths = (
{
closed = 1;
nodes = (
"606 -22 OFFCURVE",
"690 164 OFFCURVE",
"690 532 CURVE SMOOTH",
"690 1400 LINE",
"624 1400 LINE",
"624 510 LINE SMOOTH",
"624 212 OFFCURVE",
"570 44 OFFCURVE",
"432 44 CURVE SMOOTH",
"292 44 OFFCURVE",
"238 198 OFFCURVE",
"238 512 CURVE",
"172 512 LINE",
"172 144 OFFCURVE",
"260 -22 OFFCURVE",
"432 -22 CURVE SMOOTH"
);
}
);
width = 900;
},
{
anchors = (
{
name = bottom;
position = "{522, 0}";
},
{
name = top;
position = "{653, 1400}";
}
);
layerId = "5D8A6BC1-E275-4777-AF98-AB9B3DC0EDC1";
paths = (
{
closed = 1;
nodes = (
"680 -22 OFFCURVE",
"833 168 OFFCURVE",
"833 533 CURVE SMOOTH",
"833 1400 LINE",
"495 1400 LINE",
"495 566 LINE SMOOTH",
"495 365 OFFCURVE",
"489 249 OFFCURVE",
"440 249 CURVE SMOOTH",
"394 249 OFFCURVE",
"385 365 OFFCURVE",
"385 566 CURVE",
"46 566 LINE",
"46 159 OFFCURVE",
"200 -22 OFFCURVE",
"440 -22 CURVE SMOOTH"
);
}
);
width = 900;
},
{
anchors = (
{
name = bottom;
position = "{650, 0}";
},
{
name = top;
position = "{946, 1400}";
}
);
layerId = "BE68D89F-AB3F-4BDF-B332-ED50D7C47704";
paths = (
{
closed = 1;
nodes = (
"828 -22 OFFCURVE",
"982 134 OFFCURVE",
"982 548 CURVE SMOOTH",
"982 1400 LINE",
"916 1400 LINE",
"916 552 LINE SMOOTH",
"916 202 OFFCURVE",
"810 44 OFFCURVE",
"594 44 CURVE SMOOTH",
"380 44 OFFCURVE",
"270 202 OFFCURVE",
"270 552 CURVE",
"204 552 LINE",
"204 134 OFFCURVE",
"362 -22 OFFCURVE",
"594 -22 CURVE SMOOTH"
);
}
);
width = 1300;
},
{
anchors = (
{
name = bottom;
position = "{680, 0}";
},
{
name = top;
position = "{965, 1400}";
}
);
layerId = "5521DC30-183F-421A-91F3-644B5E24AFE6";
paths = (
{
closed = 1;
nodes = (
"920 -22 OFFCURVE",
"1160 138 OFFCURVE",
"1160 532 CURVE SMOOTH",
"1160 1400 LINE",
"786 1400 LINE",
"786 568 LINE SMOOTH",
"786 364 OFFCURVE",
"718 262 OFFCURVE",
"616 262 CURVE SMOOTH",
"516 262 OFFCURVE",
"446 364 OFFCURVE",
"446 568 CURVE",
"70 568 LINE",
"70 138 OFFCURVE",
"316 -22 OFFCURVE",
"616 -22 CURVE SMOOTH"
);
}
);
width = 1300;
},
{
anchors = (
{
name = bottom;
position = "{1100, 0}";
},
{
name = top;
position = "{1711, 1400}";
}
);
layerId = "E338D14E-1DA5-418D-88BC-8956EEA80AB9";
paths = (
{
closed = 1;
nodes = (
"1444 -22 OFFCURVE",
"1748 134 OFFCURVE",
"1748 578 CURVE SMOOTH",
"1748 1400 LINE",
"1667 1400 LINE",
"1667 568 LINE SMOOTH",
"1667 190 OFFCURVE",
"1408 44 OFFCURVE",
"1034 44 CURVE SMOOTH",
"654 44 OFFCURVE",
"392 208 OFFCURVE",
"392 552 CURVE",
"324 552 LINE",
"324 138 OFFCURVE",
"628 -22 OFFCURVE",
"1034 -22 CURVE SMOOTH"
);
}
);
width = 2200;
},
{
anchors = (
{
name = bottom;
position = "{975, 0}";
},
{
name = top;
position = "{1591, 1400}";
}
);
layerId = "16EBFD8D-F4C1-4BAA-8DD7-EBE82D779ED1";
paths = (
{
closed = 1;
nodes = (
"1372 -22 OFFCURVE",
"1798 143 OFFCURVE",
"1798 533 CURVE SMOOTH",
"1798 1400 LINE",
"1377 1400 LINE",
"1377 570 LINE SMOOTH",
"1377 358 OFFCURVE",
"1207 287 OFFCURVE",
"957 287 CURVE SMOOTH",
"714 287 OFFCURVE",
"541 357 OFFCURVE",
"541 570 CURVE",
"116 570 LINE",
"116 144 OFFCURVE",
"540 -22 OFFCURVE",
"957 -22 CURVE SMOOTH"
);
}
);
width = 2200;
}
);
},
{
color = 6;
glyphname = K;
lastChange = "2020-09-10 12:23:18 +0000";
layers = (
{
anchors = (
{
name = bottom;
position = "{672, 0}";
},
{
name = top;
position = "{672, 1400}";
}
);
layerId = "5521DC30-183F-421A-91F3-644B5E24AFE6";
paths = (
{
closed = 1;
nodes = (
"480 0 LINE",
"480 584 LINE",
"538 584 LINE",
"869 0 LINE",
"1276 0 LINE",
"790 782 LINE",
"790 656 LINE",
"1262 1400 LINE",
"858 1400 LINE",
"536 852 LINE",
"480 852 LINE",
"480 1400 LINE",
"106 1400 LINE",
"106 0 LINE"
);
}
);
width = 1300;
},
{
anchors = (
{
name = bottom;
position = "{600, 0}";
},
{
name = top;
position = "{600, 1400}";
}
);
layerId = "BE68D89F-AB3F-4BDF-B332-ED50D7C47704";
paths = (
{
closed = 1;
nodes = (
"332 0 LINE",
"332 686 LINE",
"448 686 LINE",
"946 0 LINE",
"1020 0 LINE",
"488 745 LINE",
"488 693 LINE",
"986 1400 LINE",
"913 1400 LINE",
"451 750 LINE",
"332 750 LINE",
"332 1400 LINE",
"266 1400 LINE",
"266 0 LINE"
);
}
);
width = 1300;
},
{
anchors = (
{
name = bottom;
position = "{460, 0}";
},
{
name = top;
position = "{460, 1400}";
}
);
layerId = "2E286313-D5BF-4FB4-A4B7-BD9BC13B574E";
paths = (
{
closed = 1;
nodes = (
"332 0 LINE",
"332 686 LINE",
"368 686 LINE",
"636 0 LINE",
"704 0 LINE",
"412 746 LINE",
"412 690 LINE",
"690 1400 LINE",
"622 1400 LINE",
"368 750 LINE",
"332 750 LINE",
"332 1400 LINE",
"266 1400 LINE",
"266 0 LINE"
);
}
);
width = 900;
},
{
anchors = (
{
name = bottom;
position = "{1120, 0}";
},
{
name = top;
position = "{1120, 1400}";
}
);
layerId = "E338D14E-1DA5-418D-88BC-8956EEA80AB9";
paths = (
{
closed = 1;
nodes = (
"512 0 LINE",
"512 686 LINE",
"1102 686 LINE",
"1797 0 LINE",
"1902 0 LINE",
"1167 732 LINE",
"1164 706 LINE",
"1844 1400 LINE",
"1743 1400 LINE",
"1104 750 LINE",
"512 750 LINE",
"512 1400 LINE",
"436 1400 LINE",
"436 0 LINE"
);
}
);
width = 2200;
},
{
anchors = (
{
name = bottom;
position = "{448, 0}";
},
{
name = top;
position = "{448, 1400}";
}
);
layerId = "5D8A6BC1-E275-4777-AF98-AB9B3DC0EDC1";
paths = (
{
closed = 1;
nodes = (
"414 0 LINE",
"414 584 LINE",
"418 584 LINE",
"502 0 LINE",
"906 0 LINE",
"682 806 LINE",
"682 634 LINE",
"898 1400 LINE",
"494 1400 LINE",
"418 852 LINE",
"414 852 LINE",
"414 1400 LINE",
"40 1400 LINE",
"40 0 LINE"
);
}
);
width = 900;
},
{
anchors = (
{
name = bottom;
position = "{1100, 0}";
},
{
name = top;
position = "{1100, 1400}";
}
);
layerId = "16EBFD8D-F4C1-4BAA-8DD7-EBE82D779ED1";
paths = (
{
closed = 1;
nodes = (
"592 0 LINE",
"592 569 LINE",
"1037 569 LINE",
"1606 0 LINE",
"2106 0 LINE",
"1349 738 LINE",
"1349 704 LINE",
"2100 1400 LINE",
"1606 1400 LINE",
"1037 867 LINE",
"592 867 LINE",
"592 1400 LINE",
"188 1400 LINE",
"188 0 LINE"
);
}
);
width = 2200;
}
);
leftKerningGroup = H;
rightKerningGroup = K;
unicode = 004B;
},
{
color = 6;
glyphname = L;
lastChange = "2020-09-21 18:55:09 +0000";
layers = (
{
anchors = (
{
name = bottom;
position = "{504, 0}";
},
{
name = center;
position = "{292, 710}";
},
{
name = top;
position = "{298, 1400}";
},
{
name = topright;
position = "{642, 1000}";
}
);
layerId = "5521DC30-183F-421A-91F3-644B5E24AFE6";
paths = (
{
closed = 1;
nodes = (
"944 0 LINE",
"944 270 LINE",
"482 270 LINE",
"482 1400 LINE",
"106 1400 LINE",
"106 0 LINE"
);
}
);
width = 1000;
},
{
anchors = (
{
name = bottom;
position = "{520, 0}";
},
{
name = center;
position = "{196, 666}";
},
{
name = top;
position = "{225, 1400}";
},
{
name = topright;
position = "{705, 1000}";
}
);
layerId = "BE68D89F-AB3F-4BDF-B332-ED50D7C47704";
paths = (
{
closed = 1;
nodes = (
"854 0 LINE",
"854 64 LINE",
"252 64 LINE",
"252 1400 LINE",
"186 1400 LINE",
"186 0 LINE"
);
}
);
width = 1000;
},
{
anchors = (
{
name = bottom;
position = "{310, 0}";
},
{
name = center;
position = "{166, 666}";
},
{
name = top;
position = "{171, 1400}";
},
{
name = topright;
position = "{407, 1000}";
}
);
layerId = "2E286313-D5BF-4FB4-A4B7-BD9BC13B574E";
paths = (
{
closed = 1;
nodes = (
"494 0 LINE",
"494 64 LINE",
"202 64 LINE",
"202 1400 LINE",
"136 1400 LINE",
"136 0 LINE"
);
}
);
width = 600;
},
{
anchors = (
{
name = bottom;
position = "{971, 0}";
},
{
name = center;
position = "{418, 666}";
},
{
name = top;
position = "{399, 1400}";
},
{
name = topright;
position = "{1435, 1000}";
}
);
layerId = "E338D14E-1DA5-418D-88BC-8956EEA80AB9";
paths = (
{
closed = 1;
nodes = (
"1570 0 LINE",
"1570 64 LINE",
"428 64 LINE",
"428 1400 LINE",
"352 1400 LINE",
"352 0 LINE"
);
}
);
width = 1800;
},
{
anchors = (
{
name = bottom;
position = "{317, 0}";
},
{
name = center;
position = "{224, 710}";
},
{
name = top;
position = "{213, 1400}";
},
{
name = topright;
position = "{385, 1000}";
}
);
layerId = "5D8A6BC1-E275-4777-AF98-AB9B3DC0EDC1";
paths = (
{
closed = 1;
nodes = (
"617 0 LINE",
"617 270 LINE",
"403 270 LINE",
"403 1400 LINE",
"29 1400 LINE",
"29 0 LINE"
);
}
);
width = 647;
},
{
anchors = (
{
name = bottom;
position = "{887, 0}";
},
{
name = center;
position = "{448, 710}";
},
{
name = top;
position = "{474, 1400}";
},
{
name = topright;
position = "{1203, 1000}";
}
);
layerId = "16EBFD8D-F4C1-4BAA-8DD7-EBE82D779ED1";
paths = (
{
closed = 1;
nodes = (
"1608 0 LINE",
"1608 290 LINE",
"660 290 LINE",
"660 1400 LINE",
"260 1400 LINE",
"260 0 LINE"
);
}
);
width = 1800;
}
);
leftKerningGroup = H;
rightKerningGroup = L;
unicode = 004C;
},
{
color = 6;
glyphname = LJ;
lastChange = "2020-09-23 17:57:54 +0000";
layers = (
{
layerId = "2E286313-D5BF-4FB4-A4B7-BD9BC13B574E";
paths = (
{
closed = 1;
nodes = (
"524 0 LINE",
"524 64 LINE",
"232 64 LINE",
"232 1400 LINE",
"166 1400 LINE",
"166 0 LINE"
);
},
{
closed = 1;
nodes = (
"985 0 OFFCURVE",
"1079 164 OFFCURVE",
"1079 532 CURVE SMOOTH",
"1079 1400 LINE",
"675 1400 LINE",
"675 1336 LINE",
"1013 1336 LINE",
"1013 510 LINE SMOOTH",
"1013 212 OFFCURVE",
"949 66 OFFCURVE",
"731 66 CURVE",
"731 0 LINE"
);
}
);
width = 1200;
},
{
layerId = "5D8A6BC1-E275-4777-AF98-AB9B3DC0EDC1";
paths = (
{
closed = 1;
nodes = (
"587 0 LINE",
"587 270 LINE",
"393 270 LINE",
"393 1400 LINE",
"19 1400 LINE",
"19 0 LINE"
);
},
{
closed = 1;
nodes = (
"1069 0 OFFCURVE",
"1182 168 OFFCURVE",
"1182 533 CURVE SMOOTH",
"1182 1400 LINE",
"636 1400 LINE",
"636 1153 LINE",
"844 1153 LINE",
"844 566 LINE SMOOTH",
"844 365 OFFCURVE",
"821 271 OFFCURVE",
"639 271 CURVE",
"639 0 LINE"
);
}
);
width = 1200;
},
{
layerId = "BE68D89F-AB3F-4BDF-B332-ED50D7C47704";
paths = (
{
closed = 1;
nodes = (
"804 0 LINE",
"804 64 LINE",
"202 64 LINE",
"202 1400 LINE",
"136 1400 LINE",
"136 0 LINE"
);
},
{
closed = 1;
nodes = (
"1418 0 OFFCURVE",
"1587 134 OFFCURVE",
"1587 548 CURVE SMOOTH",
"1587 1400 LINE",
"1026 1400 LINE",
"1026 1336 LINE",
"1521 1336 LINE",
"1521 552 LINE SMOOTH",
"1521 202 OFFCURVE",
"1400 66 OFFCURVE",
"1028 66 CURVE",
"1028 0 LINE"
);
}
);
width = 1700;
},
{
layerId = "5521DC30-183F-421A-91F3-644B5E24AFE6";
paths = (
{
closed = 1;
nodes = (
"787 0 LINE",
"787 270 LINE",
"432 270 LINE",
"432 1400 LINE",
"56 1400 LINE",
"56 0 LINE"
);
},
{
closed = 1;
nodes = (
"1475 0 OFFCURVE",
"1661 138 OFFCURVE",
"1661 532 CURVE SMOOTH",
"1661 1400 LINE",
"935 1400 LINE",
"935 1130 LINE",
"1287 1130 LINE",
"1287 568 LINE SMOOTH",
"1287 364 OFFCURVE",
"1218 273 OFFCURVE",
"933 273 CURVE",
"933 0 LINE"
);
}
);
width = 1700;
},
{
layerId = "E338D14E-1DA5-418D-88BC-8956EEA80AB9";
paths = (
{
closed = 1;
nodes = (
"1246 0 LINE",
"1246 64 LINE",
"260 64 LINE",
"260 1400 LINE",
"184 1400 LINE",
"184 0 LINE"
);
},
{
closed = 1;
nodes = (
"1904 0 OFFCURVE",
"2490 44 OFFCURVE",
"2490 578 CURVE SMOOTH",
"2490 1400 LINE",
"1465 1400 LINE",
"1465 1336 LINE",
"2409 1336 LINE",
"2409 568 LINE SMOOTH",
"2409 100 OFFCURVE",
"1868 66 OFFCURVE",
"1494 66 CURVE",
"1494 0 LINE"
);
}
);
width = 2600;
},
{
layerId = "16EBFD8D-F4C1-4BAA-8DD7-EBE82D779ED1";
paths = (
{
closed = 1;
nodes = (
"1227 0 LINE",
"1227 290 LINE",
"490 290 LINE",
"490 1400 LINE",
"90 1400 LINE",
"90 0 LINE"
);
},
{
closed = 1;
nodes = (
"1855 1 OFFCURVE",
"2498 30 OFFCURVE",
"2498 533 CURVE SMOOTH",
"2498 1400 LINE",
"1316 1400 LINE",
"1316 1107 LINE",
"2077 1107 LINE",
"2077 570 LINE SMOOTH",
"2077 299 OFFCURVE",
"1710 290 OFFCURVE",
"1420 290 CURVE",
"1420 1 LINE"
);
}
);
width = 2600;
}
);
leftKerningGroup = H;
rightKerningGroup = J;
unicode = 01C7;
},
{
color = 6;
glyphname = Lj;
lastChange = "2020-09-23 17:57:54 +0000";
layers = (
{
layerId = "2E286313-D5BF-4FB4-A4B7-BD9BC13B574E";
paths = (
{
closed = 1;
nodes = (
"574 0 LINE",
"574 64 LINE",
"282 64 LINE",
"282 1400 LINE",
"216 1400 LINE",
"216 0 LINE"
);
},
{
closed = 1;
nodes = (
"655 -400 LINE SMOOTH",
"863 -400 OFFCURVE",
"939 -200 OFFCURVE",
"939 16 CURVE SMOOTH",
"939 1000 LINE",
"625 1000 LINE",
"625 936 LINE",
"869 936 LINE",
"869 16 LINE SMOOTH",
"869 -176 OFFCURVE",
"809 -334 OFFCURVE",
"653 -334 CURVE SMOOTH",
"623 -334 LINE",
"623 -400 LINE"
);
},
{
closed = 1;
nodes = (
"862 1254 LINE",
"942 1254 LINE",
"942 1400 LINE",
"862 1400 LINE"
);
}
);
width = 1200;
},
{
layerId = "5D8A6BC1-E275-4777-AF98-AB9B3DC0EDC1";
paths = (
{
closed = 1;
nodes = (
"657 0 LINE",
"657 270 LINE",
"443 270 LINE",
"443 1400 LINE",
"69 1400 LINE",
"69 0 LINE"
);
},
{
closed = 1;
nodes = (
"705 -400 LINE SMOOTH",
"1052 -400 OFFCURVE",
"1107 -219 OFFCURVE",
"1107 -35 CURVE SMOOTH",
"1107 1000 LINE",
"635 1000 LINE",
"635 733 LINE",
"765 733 LINE",
"765 8 LINE SMOOTH",
"765 -104 OFFCURVE",
"730 -141 OFFCURVE",
"670 -141 CURVE SMOOTH",
"613 -141 LINE",
"613 -400 LINE"
);
},
{
closed = 1;
nodes = (
"751 1118 LINE",
"1107 1118 LINE",
"1107 1440 LINE",
"751 1440 LINE"
);
}
);
width = 1200;
},
{
layerId = "BE68D89F-AB3F-4BDF-B332-ED50D7C47704";
paths = (
{
closed = 1;
nodes = (
"884 0 LINE",
"884 64 LINE",
"282 64 LINE",
"282 1400 LINE",
"216 1400 LINE",
"216 0 LINE"
);
},
{
closed = 1;
nodes = (
"1048 -400 LINE SMOOTH",
"1280 -400 OFFCURVE",
"1470 -240 OFFCURVE",
"1470 66 CURVE SMOOTH",
"1470 1000 LINE",
"998 1000 LINE",
"998 936 LINE",
"1404 936 LINE",
"1404 76 LINE SMOOTH",
"1404 -196 OFFCURVE",
"1260 -334 OFFCURVE",
"1034 -334 CURVE SMOOTH",
"964 -334 LINE",
"964 -400 LINE"
);
},
{
closed = 1;
nodes = (
"1394 1244 LINE",
"1474 1244 LINE",
"1474 1400 LINE",
"1394 1400 LINE"
);
}
);
width = 1700;
},
{
layerId = "5521DC30-183F-421A-91F3-644B5E24AFE6";
paths = (
{
closed = 1;
nodes = (
"954 0 LINE",
"954 270 LINE",
"492 270 LINE",
"492 1400 LINE",
"116 1400 LINE",
"116 0 LINE"
);
},
{
closed = 1;
nodes = (
"1014 -400 LINE SMOOTH",
"1366 -400 OFFCURVE",
"1600 -269 OFFCURVE",
"1600 16 CURVE SMOOTH",
"1600 1000 LINE",
"930 1000 LINE",
"930 730 LINE",
"1226 730 LINE",
"1226 82 LINE SMOOTH",
"1226 -56 OFFCURVE",
"1140 -116 OFFCURVE",
"992 -116 CURVE SMOOTH",
"910 -116 LINE",
"910 -400 LINE"
);
},
{
closed = 1;
nodes = (
"1223 1118 LINE",
"1600 1118 LINE",
"1600 1440 LINE",
"1223 1440 LINE"
);
}
);
width = 1700;
},
{
layerId = "E338D14E-1DA5-418D-88BC-8956EEA80AB9";
paths = (
{
closed = 1;
nodes = (
"1302 0 LINE",
"1302 64 LINE",
"408 64 LINE",
"408 1400 LINE",
"332 1400 LINE",
"332 0 LINE"
);
},
{
closed = 1;
nodes = (
"1474 -400 LINE SMOOTH",
"1988 -400 OFFCURVE",
"2348 -311 OFFCURVE",
"2348 256 CURVE SMOOTH",
"2348 1000 LINE",
"1538 1000 LINE",
"1538 936 LINE",
"2272 936 LINE",
"2272 258 LINE SMOOTH",
"2272 -275 OFFCURVE",
"1922 -334 OFFCURVE",
"1474 -334 CURVE SMOOTH",
"1330 -334 LINE",
"1330 -400 LINE"
);
},
{
closed = 1;
nodes = (
"2259 1254 LINE",
"2358 1254 LINE",
"2358 1410 LINE",
"2259 1410 LINE"
);
}
);
width = 2600;
},
{
layerId = "16EBFD8D-F4C1-4BAA-8DD7-EBE82D779ED1";
paths = (
{
closed = 1;
nodes = (
"1384 0 LINE",
"1384 290 LINE",
"571 290 LINE",
"571 1400 LINE",
"171 1400 LINE",
"171 0 LINE"
);
},
{
closed = 1;
nodes = (
"1627 -400 LINE SMOOTH",
"2120 -400 OFFCURVE",
"2529 -284 OFFCURVE",
"2529 162 CURVE SMOOTH",
"2529 1000 LINE",
"1393 1000 LINE",
"1393 710 LINE",
"2126 710 LINE",
"2126 187 LINE SMOOTH",
"2126 -37 OFFCURVE",
"1970 -91 OFFCURVE",
"1576 -91 CURVE SMOOTH",
"1383 -91 LINE",
"1383 -400 LINE"
);
},
{
closed = 1;
nodes = (
"2126 1118 LINE",
"2529 1118 LINE",
"2529 1480 LINE",
"2126 1480 LINE"
);
}
);
width = 2600;
}
);
leftKerningGroup = H;
rightKerningGroup = j;
unicode = 01C8;
},
{
color = 3;
glyphname = Lslash;
lastChange = "2020-09-10 12:23:29 +0000";
layers = (
{
components = (
{
name = L;
transform = "{1, 0, 0, 1, 6, 0}";
}
);
layerId = "5521DC30-183F-421A-91F3-644B5E24AFE6";
paths = (
{
closed = 1;
nodes = (
"682 806 LINE",
"682 1144 LINE",
"-34 570 LINE",
"-34 234 LINE"
);
}
);
width = 1000;
},
{
components = (
{
name = L;
transform = "{1, 0, 0, 1, 20, 0}";
}
);
layerId = "BE68D89F-AB3F-4BDF-B332-ED50D7C47704";
paths = (
{
closed = 1;
nodes = (
"508 920 LINE",
"508 1002 LINE",
"4 496 LINE",
"4 416 LINE"
);
}
);
width = 1000;
},
{
components = (
{
name = L;
transform = "{1, 0, 0, 1, 36, 0}";
}
);
layerId = "2E286313-D5BF-4FB4-A4B7-BD9BC13B574E";
paths = (
{
closed = 1;
nodes = (
"403 813 LINE",
"403 895 LINE",
"6 496 LINE",
"6 416 LINE"
);
}
);
width = 600;
},
{
components = (
{
name = L;
transform = "{1, 0, 0, 1, -7, 0}";
}
);
layerId = "E338D14E-1DA5-418D-88BC-8956EEA80AB9";
paths = (
{
closed = 1;
nodes = (
"831 918 LINE",
"831 1002 LINE",
"-5 496 LINE",
"-5 414 LINE"
);
}
);
width = 1800;
},
{
components = (
{
alignment = -1;
name = L;
transform = "{1, 0, 0, 1, 1, 0}";
}
);
layerId = "5D8A6BC1-E275-4777-AF98-AB9B3DC0EDC1";
paths = (
{
closed = 1;
nodes = (
"465 691 LINE",
"465 1049 LINE",
"-39 643 LINE",
"-39 287 LINE"
);
}
);
width = 647;
},
{
components = (
{
alignment = -1;
name = L;
transform = "{1, 0, 0, 1, 5, 0}";
}
);
layerId = "16EBFD8D-F4C1-4BAA-8DD7-EBE82D779ED1";
paths = (
{
closed = 1;
nodes = (
"1061 847 LINE",
"1061 1194 LINE",
"46 560 LINE",
"46 215 LINE"
);
}
);
width = 1800;
}
);
leftKerningGroup = H;
widthMetricsKey = L;
rightKerningGroup = L;
unicode = 0141;
},
{
color = 6;
glyphname = M;
lastChange = "2020-09-10 12:23:18 +0000";
layers = (
{
anchors = (
{
name = bottom;
position = "{854, 0}";
},
{
name = top;
position = "{860, 1400}";
}
);
layerId = "5521DC30-183F-421A-91F3-644B5E24AFE6";
paths = (
{
closed = 1;
nodes = (
"1002 204 LINE",
"1256 1094 LINE",
"1250 1400 LINE",
"1052 1400 LINE",
"868 671 LINE",
"788 204 LINE"
);
},
{
closed = 1;
nodes = (
"448 0 LINE",
"508 1400 LINE",
"164 1400 LINE",
"66 0 LINE"
);
},
{
closed = 1;
nodes = (
"908 204 LINE",
"838 671 LINE",
"646 1400 LINE",
"448 1400 LINE",
"442 1094 LINE",
"698 204 LINE"
);
},
{
closed = 1;
nodes = (
"1632 0 LINE",
"1534 1400 LINE",
"1190 1400 LINE",
"1250 0 LINE"
);
}
);
width = 1700;
},
{
anchors = (
{
name = bottom;
position = "{856, 0}";
},
{
name = top;
position = "{842, 1400}";
}
);
layerId = "BE68D89F-AB3F-4BDF-B332-ED50D7C47704";
paths = (
{
closed = 1;
nodes = (
"890 80 LINE",
"1288 1320 LINE",
"1298 1400 LINE",
"1246 1400 LINE",
"868 216 LINE",
"826 80 LINE"
);
},
{
closed = 1;
nodes = (
"250 0 LINE",
"422 1400 LINE",
"358 1400 LINE",
"180 0 LINE"
);
},
{
closed = 1;
nodes = (
"868 80 LINE",
"826 216 LINE",
"450 1400 LINE",
"402 1400 LINE",
"408 1320 LINE",
"804 80 LINE"
);
},
{
closed = 1;
nodes = (
"1516 0 LINE",
"1338 1400 LINE",
"1274 1400 LINE",
"1446 0 LINE"
);
}
);
width = 1700;
},
{
anchors = (
{
name = bottom;
position = "{596, 0}";
},
{
name = top;
position = "{414, 1400}";
}
);
layerId = "2E286313-D5BF-4FB4-A4B7-BD9BC13B574E";
paths = (
{
closed = 1;
nodes = (
"646 140 LINE",
"891 1344 LINE",
"902 1400 LINE",
"833 1400 LINE",
"602 214 LINE",
"576 140 LINE"
);
},
{
closed = 1;
nodes = (
"216 0 LINE",
"320 1400 LINE",
"256 1400 LINE",
"148 0 LINE"
);
},
{
closed = 1;
nodes = (
"632 140 LINE",
"604 214 LINE",
"375 1400 LINE",
"306 1400 LINE",
"317 1344 LINE",
"560 140 LINE"
);
},
{
closed = 1;
nodes = (
"1060 0 LINE",
"952 1400 LINE",
"888 1400 LINE",
"992 0 LINE"
);
}
);
width = 1200;
},
{
anchors = (
{
name = bottom;
position = "{1308, 0}";
},
{
name = top;
position = "{1290, 1400}";
}
);
layerId = "E338D14E-1DA5-418D-88BC-8956EEA80AB9";
paths = (
{
closed = 1;
nodes = (
"1346 80 LINE",
"1978 1323 LINE",
"1998 1400 LINE",
"1937 1400 LINE",
"1302 148 LINE",
"1278 80 LINE"
);
},
{
closed = 1;
nodes = (
"351 0 LINE",
"640 1400 LINE",
"570 1400 LINE",
"272 0 LINE"
);
},
{
closed = 1;
nodes = (
"1316 80 LINE",
"1292 148 LINE",
"663 1400 LINE",
"610 1400 LINE",
"622 1323 LINE",
"1248 80 LINE"
);
},
{
closed = 1;
nodes = (
"2330 0 LINE",
"2028 1400 LINE",
"1962 1400 LINE",
"2251 0 LINE"
);
}
);
width = 2600;
},
{
anchors = (
{
name = bottom;
position = "{672, 0}";
},
{
name = top;
position = "{578, 1400}";
}
);
layerId = "5D8A6BC1-E275-4777-AF98-AB9B3DC0EDC1";
paths = (
{
closed = 1;
nodes = (
"736 360 LINE",
"860 1100 LINE",
"874 1400 LINE",
"722 1400 LINE",
"612 776 LINE",
"548 360 LINE"
);
},
{
closed = 1;
nodes = (
"374 0 LINE",
"374 1400 LINE",
"62 1400 LINE",
"24 0 LINE"
);
},
{
closed = 1;
nodes = (
"654 360 LINE",
"596 776 LINE",
"480 1400 LINE",
"324 1400 LINE",
"324 1100 LINE",
"468 360 LINE"
);
},
{
closed = 1;
nodes = (
"1178 0 LINE",
"1140 1400 LINE",
"828 1400 LINE",
"828 0 LINE"
);
}
);
width = 1200;
},
{
anchors = (
{
name = bottom;
position = "{1289, 0}";
},
{
name = top;
position = "{1306, 1400}";
}
);
layerId = "16EBFD8D-F4C1-4BAA-8DD7-EBE82D779ED1";
paths = (
{
closed = 1;
nodes = (
"1549 142 LINE",
"1948 1112 LINE",
"1932 1400 LINE",
"1702 1400 LINE",
"1320 451 LINE",
"1188 142 LINE"
);
},
{
closed = 1;
nodes = (
"606 0 LINE",
"710 1400 LINE",
"328 1400 LINE",
"186 0 LINE"
);
},
{
closed = 1;
nodes = (
"1396 142 LINE",
"1282 451 LINE",
"888 1400 LINE",
"666 1400 LINE",
"638 1112 LINE",
"1043 142 LINE"
);
},
{
closed = 1;
nodes = (
"2404 0 LINE",
"2262 1400 LINE",
"1884 1400 LINE",
"1984 0 LINE"
);
}
);
width = 2600;
}
);
leftKerningGroup = M;
rightKerningGroup = M;
unicode = 004D;
},
{
color = 6;
glyphname = N;
lastChange = "2020-09-10 12:23:18 +0000";
layers = (
{
anchors = (
{
name = bottom;
position = "{640, 0}";
},
{
name = top;
position = "{650, 1400}";
}
);
layerId = "5521DC30-183F-421A-91F3-644B5E24AFE6";
paths = (
{
closed = 1;
nodes = (
"452 0 LINE",
"452 1092 LINE",
"437 1092 LINE",
"754 0 LINE",
"1224 0 LINE",
"1224 1400 LINE",
"850 1400 LINE",
"850 304 LINE",
"922 304 LINE",
"632 1400 LINE",
"78 1400 LINE",
"78 0 LINE"
);
}
);
width = 1300;
},
{
anchors = (
{
name = bottom;
position = "{640, 0}";
},
{
name = top;
position = "{640, 1400}";
}
);
layerId = "BE68D89F-AB3F-4BDF-B332-ED50D7C47704";
paths = (
{
closed = 1;
nodes = (
"278 0 LINE",
"278 1319 LINE",
"274 1319 LINE",
"976 0 LINE",
"1072 0 LINE",
"1072 1400 LINE",
"1006 1400 LINE",
"1006 77 LINE",
"1010 77 LINE",
"308 1400 LINE",
"212 1400 LINE",
"212 0 LINE"
);
}
);
width = 1300;
},
{
anchors = (
{
name = bottom;
position = "{436, 0}";
},
{
name = top;
position = "{436, 1400}";
}
);
layerId = "2E286313-D5BF-4FB4-A4B7-BD9BC13B574E";
paths = (
{
closed = 1;
nodes = (
"226 0 LINE",
"226 1314 LINE",
"214 1312 LINE",
"643 0 LINE",
"740 0 LINE",
"740 1400 LINE",
"674 1400 LINE",
"674 86 LINE",
"686 88 LINE",
"252 1400 LINE",
"160 1400 LINE",
"160 0 LINE"
);
}
);
width = 900;
},
{
anchors = (
{
name = bottom;
position = "{1081, 1}";
},
{
name = top;
position = "{1081, 1401}";
}
);
layerId = "E338D14E-1DA5-418D-88BC-8956EEA80AB9";
paths = (
{
closed = 1;
nodes = (
"427 1 LINE",
"427 1330 LINE",
"405 1330 LINE",
"1734 1 LINE",
"1823 1 LINE",
"1823 1401 LINE",
"1747 1401 LINE",
"1747 70 LINE",
"1769 70 LINE",
"440 1401 LINE",
"351 1401 LINE",
"351 1 LINE"
);
}
);
width = 2200;
},
{
anchors = (
{
name = bottom;
position = "{448, 0}";
},
{
name = top;
position = "{450, 1400}";
}
);
layerId = "5D8A6BC1-E275-4777-AF98-AB9B3DC0EDC1";
paths = (
{
closed = 1;
nodes = (
"389 0 LINE",
"389 947 LINE",
"317 941 LINE",
"514 0 LINE",
"862 0 LINE",
"862 1400 LINE",
"513 1400 LINE",
"513 427 LINE",
"587 431 LINE",
"382 1400 LINE",
"40 1400 LINE",
"40 0 LINE"
);
}
);
width = 900;
},
{
anchors = (
{
name = bottom;
position = "{1053, 0}";
},
{
name = top;
position = "{1053, 1400}";
}
);
layerId = "16EBFD8D-F4C1-4BAA-8DD7-EBE82D779ED1";
paths = (
{
closed = 1;
nodes = (
"582 0 LINE",
"582 1099 LINE",
"573 1099 LINE",
"1272 0 LINE",
"1923 0 LINE",
"1923 1400 LINE",
"1512 1400 LINE",
"1512 301 LINE",
"1516 301 LINE",
"815 1400 LINE",
"171 1400 LINE",
"171 0 LINE"
);
}
);
width = 2200;
}
);
leftKerningGroup = H;
widthMetricsKey = H;
rightKerningGroup = H;
unicode = 004E;
},
{
color = 6;
glyphname = NJ;
lastChange = "2020-09-23 17:57:49 +0000";
layers = (
{
layerId = "2E286313-D5BF-4FB4-A4B7-BD9BC13B574E";
paths = (
{
closed = 1;
nodes = (
"147 0 LINE",
"147 1314 LINE",
"135 1312 LINE",
"498 0 LINE",
"595 0 LINE",
"595 1400 LINE",
"529 1400 LINE",
"529 86 LINE",
"541 88 LINE",
"173 1400 LINE",
"81 1400 LINE",
"81 0 LINE"
);
},
{
closed = 1;
nodes = (
"1026 -2 OFFCURVE",
"1135 116 OFFCURVE",
"1135 484 CURVE SMOOTH",
"1135 1400 LINE",
"731 1400 LINE",
"731 1336 LINE",
"1069 1336 LINE",
"1069 510 LINE SMOOTH",
"1069 153 OFFCURVE",
"990 64 OFFCURVE",
"770 64 CURVE",
"770 -2 LINE"
);
}
);
width = 1200;
},
{
layerId = "5D8A6BC1-E275-4777-AF98-AB9B3DC0EDC1";
paths = (
{
closed = 1;
nodes = (
"304 0 LINE",
"304 947 LINE",
"249 941 LINE",
"401 0 LINE",
"684 0 LINE",
"684 1400 LINE",
"400 1400 LINE",
"400 427 LINE",
"457 431 LINE",
"299 1400 LINE",
"20 1400 LINE",
"20 0 LINE"
);
},
{
closed = 1;
nodes = (
"1021 -2 OFFCURVE",
"1187 64 OFFCURVE",
"1187 429 CURVE SMOOTH",
"1187 1400 LINE",
"738 1400 LINE",
"738 1153 LINE",
"886 1153 LINE",
"886 466 LINE SMOOTH",
"886 275 OFFCURVE",
"856 269 OFFCURVE",
"738 269 CURVE",
"738 -2 LINE"
);
}
);
width = 1200;
},
{
layerId = "BE68D89F-AB3F-4BDF-B332-ED50D7C47704";
paths = (
{
closed = 1;
nodes = (
"218 0 LINE",
"218 1319 LINE",
"214 1319 LINE",
"738 0 LINE",
"834 0 LINE",
"834 1400 LINE",
"768 1400 LINE",
"768 77 LINE",
"772 77 LINE",
"248 1400 LINE",
"152 1400 LINE",
"152 0 LINE"
);
},
{
closed = 1;
nodes = (
"1283 -1 OFFCURVE",
"1547 24 OFFCURVE",
"1547 438 CURVE SMOOTH",
"1547 1400 LINE",
"1001 1400 LINE",
"1001 1336 LINE",
"1481 1336 LINE",
"1481 442 LINE SMOOTH",
"1481 92 OFFCURVE",
"1265 65 OFFCURVE",
"1019 65 CURVE",
"1019 -1 LINE"
);
}
);
width = 1700;
},
{
layerId = "5521DC30-183F-421A-91F3-644B5E24AFE6";
paths = (
{
closed = 1;
nodes = (
"399 0 LINE",
"399 1092 LINE",
"317 1092 LINE",
"534 0 LINE",
"968 0 LINE",
"968 1400 LINE",
"626 1400 LINE",
"626 304 LINE",
"696 304 LINE",
"505 1400 LINE",
"58 1400 LINE",
"58 0 LINE"
);
},
{
closed = 1;
nodes = (
"1424 0 OFFCURVE",
"1674 98 OFFCURVE",
"1674 492 CURVE SMOOTH",
"1674 1400 LINE",
"1065 1400 LINE",
"1065 1130 LINE",
"1313 1130 LINE",
"1313 528 LINE SMOOTH",
"1313 324 OFFCURVE",
"1283 284 OFFCURVE",
"1064 284 CURVE",
"1064 0 LINE"
);
}
);
width = 1700;
},
{
layerId = "E338D14E-1DA5-418D-88BC-8956EEA80AB9";
paths = (
{
closed = 1;
nodes = (
"306 1 LINE",
"306 1330 LINE",
"284 1330 LINE",
"1231 1 LINE",
"1320 1 LINE",
"1320 1401 LINE",
"1244 1401 LINE",
"1244 70 LINE",
"1266 70 LINE",
"319 1401 LINE",
"230 1401 LINE",
"230 1 LINE"
);
},
{
closed = 1;
nodes = (
"2058 1 OFFCURVE",
"2362 134 OFFCURVE",
"2362 578 CURVE SMOOTH",
"2362 1400 LINE",
"1643 1400 LINE",
"1643 1336 LINE",
"2281 1336 LINE",
"2281 568 LINE SMOOTH",
"2281 190 OFFCURVE",
"2022 67 OFFCURVE",
"1648 67 CURVE",
"1648 1 LINE"
);
}
);
width = 2600;
},
{
layerId = "16EBFD8D-F4C1-4BAA-8DD7-EBE82D779ED1";
paths = (
{
closed = 1;
nodes = (
"511 0 LINE",
"511 1099 LINE",
"452 1099 LINE",
"835 0 LINE",
"1416 0 LINE",
"1416 1400 LINE",
"1005 1400 LINE",
"1005 301 LINE",
"1059 301 LINE",
"694 1400 LINE",
"100 1400 LINE",
"100 0 LINE"
);
},
{
closed = 1;
nodes = (
"2143 0 OFFCURVE",
"2531 78 OFFCURVE",
"2531 643 CURVE SMOOTH",
"2531 1400 LINE",
"1521 1400 LINE",
"1521 1107 LINE",
"2110 1107 LINE",
"2110 670 LINE SMOOTH",
"2110 378 OFFCURVE",
"1978 309 OFFCURVE",
"1521 309 CURVE",
"1521 0 LINE"
);
}
);
width = 2600;
}
);
leftKerningGroup = H;
rightKerningGroup = J;
unicode = 01CA;
},
{
color = 6;
glyphname = Eng;
lastChange = "2020-09-10 12:23:18 +0000";
layers = (
{
layerId = "5521DC30-183F-421A-91F3-644B5E24AFE6";
paths = (
{
closed = 1;
nodes = (
"1014 -384 OFFCURVE",
"1226 -288 OFFCURVE",
"1226 -26 CURVE SMOOTH",
"1226 1400 LINE",
"852 1400 LINE",
"852 780 LINE",
"474 1400 LINE",
"108 1400 LINE",
"108 0 LINE",
"482 0 LINE",
"482 710 LINE",
"908 0 LINE",
"908 -40 OFFCURVE",
"866 -86 OFFCURVE",
"768 -86 CURVE SMOOTH",
"686 -86 OFFCURVE",
"592 -74 OFFCURVE",
"560 -62 CURVE",
"482 -358 LINE",
"530 -370 OFFCURVE",
"678 -384 OFFCURVE",
"782 -384 CURVE SMOOTH"
);
}
);
width = 1300;
},
{
layerId = "BE68D89F-AB3F-4BDF-B332-ED50D7C47704";
paths = (
{
closed = 1;
nodes = (
"952 -384 OFFCURVE",
"1062 -250 OFFCURVE",
"1062 -14 CURVE SMOOTH",
"1062 1400 LINE",
"996 1400 LINE",
"996 148 LINE",
"314 1400 LINE",
"222 1400 LINE",
"222 0 LINE",
"288 0 LINE",
"288 1308 LINE",
"996 0 LINE",
"996 -272 OFFCURVE",
"882 -318 OFFCURVE",
"706 -318 CURVE SMOOTH",
"624 -318 OFFCURVE",
"522 -298 OFFCURVE",
"490 -290 CURVE",
"472 -356 LINE",
"520 -368 OFFCURVE",
"616 -384 OFFCURVE",
"720 -384 CURVE SMOOTH"
);
}
);
width = 1300;
},
{
layerId = "2E286313-D5BF-4FB4-A4B7-BD9BC13B574E";
paths = (
{
closed = 1;
nodes = (
"658 -384 OFFCURVE",
"740 -250 OFFCURVE",
"740 -14 CURVE SMOOTH",
"740 1400 LINE",
"674 1400 LINE",
"674 200 LINE",
"246 1400 LINE",
"160 1400 LINE",
"160 0 LINE",
"226 0 LINE",
"226 1254 LINE",
"674 0 LINE",
"674 -272 OFFCURVE",
"606 -318 OFFCURVE",
"474 -318 CURVE SMOOTH",
"412 -318 OFFCURVE",
"336 -298 OFFCURVE",
"312 -290 CURVE",
"298 -356 LINE",
"334 -368 OFFCURVE",
"406 -384 OFFCURVE",
"484 -384 CURVE SMOOTH"
);
}
);
width = 900;
},
{
layerId = "E338D14E-1DA5-418D-88BC-8956EEA80AB9";
paths = (
{
closed = 1;
nodes = (
"1498 -384 OFFCURVE",
"1708 -306 OFFCURVE",
"1708 -14 CURVE SMOOTH",
"1708 1400 LINE",
"1644 1400 LINE",
"1644 102 LINE",
"514 1400 LINE",
"438 1400 LINE",
"438 0 LINE",
"504 0 LINE",
"504 1316 LINE",
"1644 0 LINE",
"1644 -272 OFFCURVE",
"1438 -318 OFFCURVE",
"1262 -318 CURVE SMOOTH",
"1140 -318 OFFCURVE",
"928 -278 OFFCURVE",
"896 -270 CURVE",
"878 -336 LINE",
"926 -348 OFFCURVE",
"1122 -384 OFFCURVE",
"1266 -384 CURVE SMOOTH"
);
}
);
width = 2200;
},
{
layerId = "5D8A6BC1-E275-4777-AF98-AB9B3DC0EDC1";
paths = (
{
closed = 1;
nodes = (
"695 -384 OFFCURVE",
"859 -271 OFFCURVE",
"859 -25 CURVE SMOOTH",
"859 1400 LINE",
"518 1400 LINE",
"518 747 LINE",
"374 1400 LINE",
"41 1400 LINE",
"41 0 LINE",
"382 0 LINE",
"382 734 LINE",
"567 0 LINE",
"567 -66 OFFCURVE",
"558 -112 OFFCURVE",
"479 -112 CURVE SMOOTH",
"419 -112 OFFCURVE",
"364 -105 OFFCURVE",
"335 -91 CURVE",
"266 -363 LINE",
"307 -375 OFFCURVE",
"413 -384 OFFCURVE",
"493 -384 CURVE SMOOTH"
);
}
);
width = 900;
},
{
layerId = "16EBFD8D-F4C1-4BAA-8DD7-EBE82D779ED1";
paths = (
{
closed = 1;
nodes = (
"1508 -414 OFFCURVE",
"1855 -288 OFFCURVE",
"1855 61 CURVE SMOOTH",
"1855 1400 LINE",
"1450 1400 LINE",
"1450 486 LINE",
"923 1400 LINE",
"320 1400 LINE",
"320 0 LINE",
"724 0 LINE",
"724 1031 LINE",
"1346 0 LINE",
"1346 -14 OFFCURVE",
"1290 -70 OFFCURVE",
"1166 -70 CURVE SMOOTH",
"1046 -70 OFFCURVE",
"914 -48 OFFCURVE",
"871 -30 CURVE",
"762 -377 LINE",
"824 -399 OFFCURVE",
"1017 -414 OFFCURVE",
"1218 -414 CURVE SMOOTH"
);
}
);
width = 2200;
}
);
leftKerningGroup = Eng;
widthMetricsKey = N;
rightKerningGroup = Eng;
unicode = 014A;
},
{
color = 6;
glyphname = Nj;
lastChange = "2020-09-23 17:57:56 +0000";
layers = (
{
layerId = "2E286313-D5BF-4FB4-A4B7-BD9BC13B574E";
paths = (
{
closed = 1;
nodes = (
"176 0 LINE",
"176 1314 LINE",
"164 1312 LINE",
"509 0 LINE",
"606 0 LINE",
"606 1400 LINE",
"540 1400 LINE",
"540 86 LINE",
"552 88 LINE",
"202 1400 LINE",
"110 1400 LINE",
"110 0 LINE"
);
},
{
closed = 1;
nodes = (
"803 -400 LINE SMOOTH",
"1011 -400 OFFCURVE",
"1087 -200 OFFCURVE",
"1087 16 CURVE SMOOTH",
"1087 1000 LINE",
"773 1000 LINE",
"773 936 LINE",
"1017 936 LINE",
"1017 16 LINE SMOOTH",
"1017 -176 OFFCURVE",
"957 -334 OFFCURVE",
"801 -334 CURVE SMOOTH",
"771 -334 LINE",
"771 -400 LINE"
);
},
{
closed = 1;
nodes = (
"1010 1254 LINE",
"1090 1254 LINE",
"1090 1400 LINE",
"1010 1400 LINE"
);
}
);
width = 1200;
},
{
layerId = "5D8A6BC1-E275-4777-AF98-AB9B3DC0EDC1";
paths = (
{
closed = 1;
nodes = (
"327 0 LINE",
"327 947 LINE",
"267 941 LINE",
"429 0 LINE",
"725 0 LINE",
"725 1400 LINE",
"428 1400 LINE",
"428 427 LINE",
"489 431 LINE",
"321 1400 LINE",
"30 1400 LINE",
"30 0 LINE"
);
},
{
closed = 1;
nodes = (
"801 -400 LINE SMOOTH",
"1086 -400 OFFCURVE",
"1141 -219 OFFCURVE",
"1141 -35 CURVE SMOOTH",
"1141 1000 LINE",
"787 1000 LINE",
"787 733 LINE",
"850 733 LINE",
"850 8 LINE SMOOTH",
"850 -104 OFFCURVE",
"821 -141 OFFCURVE",
"772 -141 CURVE SMOOTH",
"725 -141 LINE",
"725 -400 LINE"
);
},
{
closed = 1;
nodes = (
"839 1118 LINE",
"1141 1118 LINE",
"1141 1440 LINE",
"839 1440 LINE"
);
}
);
width = 1200;
},
{
layerId = "BE68D89F-AB3F-4BDF-B332-ED50D7C47704";
paths = (
{
closed = 1;
nodes = (
"181 0 LINE",
"181 1319 LINE",
"177 1319 LINE",
"789 0 LINE",
"885 0 LINE",
"885 1400 LINE",
"819 1400 LINE",
"819 77 LINE",
"823 77 LINE",
"211 1400 LINE",
"115 1400 LINE",
"115 0 LINE"
);
},
{
closed = 1;
nodes = (
"1131 -400 LINE SMOOTH",
"1363 -400 OFFCURVE",
"1553 -240 OFFCURVE",
"1553 66 CURVE SMOOTH",
"1553 1000 LINE",
"1081 1000 LINE",
"1081 936 LINE",
"1487 936 LINE",
"1487 76 LINE SMOOTH",
"1487 -196 OFFCURVE",
"1343 -334 OFFCURVE",
"1117 -334 CURVE SMOOTH",
"1047 -334 LINE",
"1047 -400 LINE"
);
},
{
closed = 1;
nodes = (
"1477 1244 LINE",
"1557 1244 LINE",
"1557 1400 LINE",
"1477 1400 LINE"
);
}
);
width = 1700;
},
{
layerId = "5521DC30-183F-421A-91F3-644B5E24AFE6";
paths = (
{
closed = 1;
nodes = (
"406 0 LINE",
"406 1092 LINE",
"373 1092 LINE",
"652 0 LINE",
"1064 0 LINE",
"1064 1400 LINE",
"715 1400 LINE",
"715 304 LINE",
"800 304 LINE",
"545 1400 LINE",
"58 1400 LINE",
"58 0 LINE"
);
},
{
closed = 1;
nodes = (
"1124 -400 LINE SMOOTH",
"1434 -400 OFFCURVE",
"1639 -269 OFFCURVE",
"1639 16 CURVE SMOOTH",
"1639 1000 LINE",
"1169 1000 LINE",
"1169 730 LINE",
"1291 730 LINE",
"1291 82 LINE SMOOTH",
"1291 -56 OFFCURVE",
"1235 -116 OFFCURVE",
"1105 -116 CURVE SMOOTH",
"1034 -116 LINE",
"1034 -400 LINE"
);
},
{
closed = 1;
nodes = (
"1288 1118 LINE",
"1639 1118 LINE",
"1639 1440 LINE",
"1288 1440 LINE"
);
}
);
width = 1700;
},
{
layerId = "E338D14E-1DA5-418D-88BC-8956EEA80AB9";
paths = (
{
closed = 1;
nodes = (
"229 1 LINE",
"229 1330 LINE",
"207 1330 LINE",
"1259 1 LINE",
"1348 1 LINE",
"1348 1401 LINE",
"1272 1401 LINE",
"1272 70 LINE",
"1294 70 LINE",
"242 1401 LINE",
"153 1401 LINE",
"153 1 LINE"
);
},
{
closed = 1;
nodes = (
"1556 -400 LINE SMOOTH",
"2070 -400 OFFCURVE",
"2430 -311 OFFCURVE",
"2430 256 CURVE SMOOTH",
"2430 1000 LINE",
"1620 1000 LINE",
"1620 936 LINE",
"2354 936 LINE",
"2354 258 LINE SMOOTH",
"2354 -275 OFFCURVE",
"2004 -334 OFFCURVE",
"1556 -334 CURVE SMOOTH",
"1412 -334 LINE",
"1412 -400 LINE"
);
},
{
closed = 1;
nodes = (
"2341 1254 LINE",
"2440 1254 LINE",
"2440 1410 LINE",
"2341 1410 LINE"
);
}
);
width = 2600;
},
{
layerId = "16EBFD8D-F4C1-4BAA-8DD7-EBE82D779ED1";
paths = (
{
closed = 1;
nodes = (
"522 0 LINE",
"522 1099 LINE",
"513 1099 LINE",
"941 0 LINE",
"1592 0 LINE",
"1592 1400 LINE",
"1181 1400 LINE",
"1181 301 LINE",
"1185 301 LINE",
"755 1400 LINE",
"111 1400 LINE",
"111 0 LINE"
);
},
{
closed = 1;
nodes = (
"1601 -400 LINE SMOOTH",
"2094 -400 OFFCURVE",
"2503 -284 OFFCURVE",
"2503 162 CURVE SMOOTH",
"2503 1000 LINE",
"1785 1000 LINE",
"1785 710 LINE",
"2100 710 LINE",
"2100 187 LINE SMOOTH",
"2100 -37 OFFCURVE",
"1944 -91 OFFCURVE",
"1550 -91 CURVE SMOOTH",
"1357 -91 LINE",
"1357 -400 LINE"
);
},
{
closed = 1;
nodes = (
"2100 1118 LINE",
"2503 1118 LINE",
"2503 1480 LINE",
"2100 1480 LINE"
);
}
);
width = 2600;
}
);
leftKerningGroup = H;
rightKerningGroup = j;
unicode = 01CB;
},
{
color = 6;
glyphname = O;
lastChange = "2020-09-10 12:23:18 +0000";
layers = (
{
anchors = (
{
name = bottom;
position = "{634, 0}";
},
{
name = center;
position = "{642, 700}";
},
{
name = ogonek;
position = "{923, 40}";
},
{
name = top;
position = "{640, 1400}";
},
{
name = topleft;
position = "{40, 1400}";
},
{
name = topright;
position = "{956, 1299}";
}
);
layerId = "5521DC30-183F-421A-91F3-644B5E24AFE6";
paths = (
{
closed = 1;
nodes = (
"950 -22 OFFCURVE",
"1252 176 OFFCURVE",
"1252 696 CURVE SMOOTH",
"1252 1214 OFFCURVE",
"950 1412 OFFCURVE",
"646 1412 CURVE SMOOTH",
"340 1412 OFFCURVE",
"38 1214 OFFCURVE",
"38 696 CURVE SMOOTH",
"38 176 OFFCURVE",
"340 -22 OFFCURVE",
"646 -22 CURVE SMOOTH"
);
},
{
closed = 1;
nodes = (
"522 252 OFFCURVE",
"416 376 OFFCURVE",
"416 696 CURVE SMOOTH",
"416 1014 OFFCURVE",
"522 1138 OFFCURVE",
"646 1138 CURVE SMOOTH",
"768 1138 OFFCURVE",
"874 1014 OFFCURVE",
"874 696 CURVE SMOOTH",
"874 376 OFFCURVE",
"768 252 OFFCURVE",
"646 252 CURVE SMOOTH"
);
}
);
width = 1300;
},
{
anchors = (
{
name = bottom;
position = "{642, 0}";
},
{
name = center;
position = "{650, 700}";
},
{
name = ogonek;
position = "{868, 40}";
},
{
name = top;
position = "{650, 1400}";
},
{
name = topleft;
position = "{90, 1400}";
},
{
name = topright;
position = "{956, 1299}";
}
);
layerId = "BE68D89F-AB3F-4BDF-B332-ED50D7C47704";
paths = (
{
closed = 1;
nodes = (
"922 -22 OFFCURVE",
"1178 190 OFFCURVE",
"1178 696 CURVE SMOOTH",
"1178 1200 OFFCURVE",
"922 1412 OFFCURVE",
"650 1412 CURVE SMOOTH",
"376 1412 OFFCURVE",
"120 1200 OFFCURVE",
"120 696 CURVE SMOOTH",
"120 190 OFFCURVE",
"376 -22 OFFCURVE",
"650 -22 CURVE SMOOTH"
);
},
{
closed = 1;
nodes = (
"424 44 OFFCURVE",
"190 238 OFFCURVE",
"190 696 CURVE SMOOTH",
"190 1152 OFFCURVE",
"424 1346 OFFCURVE",
"650 1346 CURVE SMOOTH",
"874 1346 OFFCURVE",
"1108 1152 OFFCURVE",
"1108 696 CURVE SMOOTH",
"1108 238 OFFCURVE",
"874 44 OFFCURVE",
"650 44 CURVE SMOOTH"
);
}
);
width = 1300;
},
{
anchors = (
{
name = bottom;
position = "{452, 0}";
},
{
name = center;
position = "{452, 696}";
},
{
name = ogonek;
position = "{604, 40}";
},
{
name = top;
position = "{456, 1400}";
},
{
name = topleft;
position = "{116, 1400}";
},
{
name = topright;
position = "{628, 1299}";
}
);
layerId = "2E286313-D5BF-4FB4-A4B7-BD9BC13B574E";
paths = (
{
closed = 1;
nodes = (
"604 -22 OFFCURVE",
"752 140 OFFCURVE",
"752 696 CURVE SMOOTH",
"752 1250 OFFCURVE",
"604 1412 OFFCURVE",
"452 1412 CURVE SMOOTH",
"298 1412 OFFCURVE",
"150 1250 OFFCURVE",
"150 696 CURVE SMOOTH",
"150 140 OFFCURVE",
"298 -22 OFFCURVE",
"452 -22 CURVE SMOOTH"
);
},
{
closed = 1;
nodes = (
"350 44 OFFCURVE",
"218 178 OFFCURVE",
"218 696 CURVE SMOOTH",
"218 1212 OFFCURVE",
"350 1346 OFFCURVE",
"452 1346 CURVE SMOOTH",
"552 1346 OFFCURVE",
"684 1212 OFFCURVE",
"684 696 CURVE SMOOTH",
"684 178 OFFCURVE",
"552 44 OFFCURVE",
"452 44 CURVE SMOOTH"
);
}
);
width = 900;
},
{
anchors = (
{
name = bottom;
position = "{1076, 0}";
},
{
name = center;
position = "{1090, 700}";
},
{
name = ogonek;
position = "{1455, 40}";
},
{
name = top;
position = "{1090, 1400}";
},
{
name = topleft;
position = "{110, 1400}";
},
{
name = topright;
position = "{1551, 1299}";
}
);
layerId = "E338D14E-1DA5-418D-88BC-8956EEA80AB9";
paths = (
{
closed = 1;
nodes = (
"1488 -22 OFFCURVE",
"1946 180 OFFCURVE",
"1946 696 CURVE SMOOTH",
"1946 1210 OFFCURVE",
"1488 1412 OFFCURVE",
"1092 1412 CURVE SMOOTH",
"692 1412 OFFCURVE",
"234 1210 OFFCURVE",
"234 696 CURVE SMOOTH",
"234 180 OFFCURVE",
"692 -22 OFFCURVE",
"1092 -22 CURVE SMOOTH"
);
},
{
closed = 1;
nodes = (
"722 44 OFFCURVE",
"310 238 OFFCURVE",
"310 696 CURVE SMOOTH",
"310 1152 OFFCURVE",
"722 1346 OFFCURVE",
"1092 1346 CURVE SMOOTH",
"1458 1346 OFFCURVE",
"1870 1152 OFFCURVE",
"1870 696 CURVE SMOOTH",
"1870 238 OFFCURVE",
"1458 44 OFFCURVE",
"1092 44 CURVE SMOOTH"
);
}
);
width = 2200;
},
{
anchors = (
{
name = bottom;
position = "{445, 0}";
},
{
name = center;
position = "{451, 696}";
},
{
name = ogonek;
position = "{634, 40}";
},
{
name = top;
position = "{447, 1400}";
},
{
name = topleft;
position = "{68, 1400}";
},
{
name = topright;
position = "{638, 1299}";
}
);
layerId = "5D8A6BC1-E275-4777-AF98-AB9B3DC0EDC1";
paths = (
{
closed = 1;
nodes = (
"664 -22 OFFCURVE",
"843 170 OFFCURVE",
"843 696 CURVE SMOOTH",
"843 1220 OFFCURVE",
"664 1412 OFFCURVE",
"451 1412 CURVE SMOOTH",
"235 1412 OFFCURVE",
"58 1220 OFFCURVE",
"58 696 CURVE SMOOTH",
"58 170 OFFCURVE",
"235 -22 OFFCURVE",
"451 -22 CURVE SMOOTH"
);
},
{
closed = 1;
nodes = (
"418 249 OFFCURVE",
"398 330 OFFCURVE",
"398 696 CURVE SMOOTH",
"398 1060 OFFCURVE",
"418 1141 OFFCURVE",
"451 1141 CURVE SMOOTH",
"481 1141 OFFCURVE",
"503 1060 OFFCURVE",
"503 696 CURVE SMOOTH",
"503 330 OFFCURVE",
"481 249 OFFCURVE",
"451 249 CURVE SMOOTH"
);
}
);
width = 900;
},
{
anchors = (
{
name = bottom;
position = "{1074, 0}";
},
{
name = center;
position = "{1096, 700}";
},
{
name = ogonek;
position = "{1494, 40}";
},
{
name = top;
position = "{1088, 1400}";
},
{
name = topleft;
position = "{50, 1400}";
},
{
name = topright;
position = "{1647, 1299}";
}
);
layerId = "16EBFD8D-F4C1-4BAA-8DD7-EBE82D779ED1";
paths = (
{
closed = 1;
nodes = (
"1553 -22 OFFCURVE",
"2100 163 OFFCURVE",
"2100 696 CURVE SMOOTH",
"2100 1227 OFFCURVE",
"1553 1412 OFFCURVE",
"1099 1412 CURVE SMOOTH",
"642 1412 OFFCURVE",
"92 1226 OFFCURVE",
"92 696 CURVE SMOOTH",
"92 164 OFFCURVE",
"642 -22 OFFCURVE",
"1099 -22 CURVE SMOOTH"
);
},
{
closed = 1;
nodes = (
"855 275 OFFCURVE",
"523 365 OFFCURVE",
"523 696 CURVE SMOOTH",
"523 1025 OFFCURVE",
"855 1115 OFFCURVE",
"1099 1115 CURVE SMOOTH",
"1341 1115 OFFCURVE",
"1669 1025 OFFCURVE",
"1669 696 CURVE SMOOTH",
"1669 365 OFFCURVE",
"1341 275 OFFCURVE",
"1099 275 CURVE SMOOTH"
);
}
);
width = 2200;
}
);
leftKerningGroup = O;
rightKerningGroup = O;
unicode = 004F;
},
{
color = 3;
glyphname = Ohorn;
lastChange = "2020-09-10 12:23:29 +0000";
layers = (
{
anchors = (
{
name = bottom;
position = "{450, 0}";
},
{
name = top;
position = "{450, 1400}";
}
);
components = (
{
name = horncomb.case;
transform = "{1, 0, 0, 1, 379, -101}";
}
);
layerId = "2E286313-D5BF-4FB4-A4B7-BD9BC13B574E";
paths = (
{
closed = 1;
nodes = (
"604 -22 OFFCURVE",
"752 140 OFFCURVE",
"752 696 CURVE SMOOTH",
"752 1250 OFFCURVE",
"604 1412 OFFCURVE",
"452 1412 CURVE SMOOTH",
"298 1412 OFFCURVE",
"150 1250 OFFCURVE",
"150 696 CURVE SMOOTH",
"150 140 OFFCURVE",
"298 -22 OFFCURVE",
"452 -22 CURVE SMOOTH"
);
},
{
closed = 1;
nodes = (
"350 44 OFFCURVE",
"218 178 OFFCURVE",
"218 696 CURVE SMOOTH",
"218 1212 OFFCURVE",
"350 1346 OFFCURVE",
"452 1346 CURVE SMOOTH",
"552 1346 OFFCURVE",
"684 1212 OFFCURVE",
"684 696 CURVE SMOOTH",
"684 178 OFFCURVE",
"552 44 OFFCURVE",
"452 44 CURVE SMOOTH"
);
}
);
width = 900;
},
{
anchors = (
{
name = bottom;
position = "{450, 0}";
},
{
name = top;
position = "{450, 1400}";
}
);
components = (
{
name = horncomb.case;
transform = "{1, 0, 0, 1, 434, -101}";
}
);
layerId = "5D8A6BC1-E275-4777-AF98-AB9B3DC0EDC1";
paths = (
{
closed = 1;
nodes = (
"664 -22 OFFCURVE",
"843 170 OFFCURVE",
"843 696 CURVE SMOOTH",
"843 1220 OFFCURVE",
"664 1412 OFFCURVE",
"451 1412 CURVE SMOOTH",
"235 1412 OFFCURVE",
"58 1220 OFFCURVE",
"58 696 CURVE SMOOTH",
"58 170 OFFCURVE",
"235 -22 OFFCURVE",
"451 -22 CURVE SMOOTH"
);
},
{
closed = 1;
nodes = (
"418 249 OFFCURVE",
"398 330 OFFCURVE",
"398 696 CURVE SMOOTH",
"398 1060 OFFCURVE",
"418 1141 OFFCURVE",
"451 1141 CURVE SMOOTH",
"481 1141 OFFCURVE",
"503 1060 OFFCURVE",
"503 696 CURVE SMOOTH",
"503 330 OFFCURVE",
"481 249 OFFCURVE",
"451 249 CURVE SMOOTH"
);
}
);
width = 900;
},
{
anchors = (
{
name = bottom;
position = "{650, 0}";
},
{
name = top;
position = "{650, 1400}";
}
);
components = (
{
name = horncomb.case;
transform = "{1, 0, 0, 1, 720, -101}";
}
);
layerId = "BE68D89F-AB3F-4BDF-B332-ED50D7C47704";
paths = (
{
closed = 1;
nodes = (
"922 -22 OFFCURVE",
"1178 190 OFFCURVE",
"1178 696 CURVE SMOOTH",
"1178 1200 OFFCURVE",
"922 1412 OFFCURVE",
"650 1412 CURVE SMOOTH",
"376 1412 OFFCURVE",
"120 1200 OFFCURVE",
"120 696 CURVE SMOOTH",
"120 190 OFFCURVE",
"376 -22 OFFCURVE",
"650 -22 CURVE SMOOTH"
);
},
{
closed = 1;
nodes = (
"424 44 OFFCURVE",
"190 238 OFFCURVE",
"190 696 CURVE SMOOTH",
"190 1152 OFFCURVE",
"424 1346 OFFCURVE",
"650 1346 CURVE SMOOTH",
"874 1346 OFFCURVE",
"1108 1152 OFFCURVE",
"1108 696 CURVE SMOOTH",
"1108 238 OFFCURVE",
"874 44 OFFCURVE",
"650 44 CURVE SMOOTH"
);
}
);
width = 1300;
},
{
anchors = (
{
name = bottom;
position = "{650, 0}";
},
{
name = top;
position = "{650, 1400}";
}
);
components = (
{
name = horncomb.case;
transform = "{1, 0, 0, 1, 801, -101}";
}
);
layerId = "5521DC30-183F-421A-91F3-644B5E24AFE6";
paths = (
{
closed = 1;
nodes = (
"950 -22 OFFCURVE",
"1252 176 OFFCURVE",
"1252 696 CURVE SMOOTH",
"1252 1214 OFFCURVE",
"950 1412 OFFCURVE",
"646 1412 CURVE SMOOTH",
"340 1412 OFFCURVE",
"38 1214 OFFCURVE",
"38 696 CURVE SMOOTH",
"38 176 OFFCURVE",
"340 -22 OFFCURVE",
"646 -22 CURVE SMOOTH"
);
},
{
closed = 1;
nodes = (
"522 252 OFFCURVE",
"416 376 OFFCURVE",
"416 696 CURVE SMOOTH",
"416 1014 OFFCURVE",
"522 1138 OFFCURVE",
"646 1138 CURVE SMOOTH",
"768 1138 OFFCURVE",
"874 1014 OFFCURVE",
"874 696 CURVE SMOOTH",
"874 376 OFFCURVE",
"768 252 OFFCURVE",
"646 252 CURVE SMOOTH"
);
}
);
width = 1300;
},
{
anchors = (
{
name = bottom;
position = "{1100, 0}";
},
{
name = top;
position = "{1100, 1400}";
}
);
components = (
{
name = horncomb.case;
transform = "{1, 0, 0, 1, 1278, -101}";
}
);
layerId = "E338D14E-1DA5-418D-88BC-8956EEA80AB9";
paths = (
{
closed = 1;
nodes = (
"1488 -22 OFFCURVE",
"1946 180 OFFCURVE",
"1946 696 CURVE SMOOTH",
"1946 1210 OFFCURVE",
"1488 1412 OFFCURVE",
"1092 1412 CURVE SMOOTH",
"692 1412 OFFCURVE",
"234 1210 OFFCURVE",
"234 696 CURVE SMOOTH",
"234 180 OFFCURVE",
"692 -22 OFFCURVE",
"1092 -22 CURVE SMOOTH"
);
},
{
closed = 1;
nodes = (
"722 44 OFFCURVE",
"310 238 OFFCURVE",
"310 696 CURVE SMOOTH",
"310 1152 OFFCURVE",
"722 1346 OFFCURVE",
"1092 1346 CURVE SMOOTH",
"1458 1346 OFFCURVE",
"1870 1152 OFFCURVE",
"1870 696 CURVE SMOOTH",
"1870 238 OFFCURVE",
"1458 44 OFFCURVE",
"1092 44 CURVE SMOOTH"
);
}
);
width = 2200;
},
{
anchors = (
{
name = bottom;
position = "{1100, 0}";
},
{
name = top;
position = "{1100, 1400}";
}
);
components = (
{
name = horncomb.case;
transform = "{1, 0, 0, 1, 1469, -101}";
}
);
layerId = "16EBFD8D-F4C1-4BAA-8DD7-EBE82D779ED1";
paths = (
{
closed = 1;
nodes = (
"1553 -22 OFFCURVE",
"2100 163 OFFCURVE",
"2100 696 CURVE SMOOTH",
"2100 1227 OFFCURVE",
"1553 1412 OFFCURVE",
"1099 1412 CURVE SMOOTH",
"642 1412 OFFCURVE",
"92 1226 OFFCURVE",
"92 696 CURVE SMOOTH",
"92 164 OFFCURVE",
"642 -22 OFFCURVE",
"1099 -22 CURVE SMOOTH"
);
},
{
closed = 1;
nodes = (
"855 275 OFFCURVE",
"523 365 OFFCURVE",
"523 696 CURVE SMOOTH",
"523 1025 OFFCURVE",
"855 1115 OFFCURVE",
"1099 1115 CURVE SMOOTH",
"1341 1115 OFFCURVE",
"1669 1025 OFFCURVE",
"1669 696 CURVE SMOOTH",
"1669 365 OFFCURVE",
"1341 275 OFFCURVE",
"1099 275 CURVE SMOOTH"
);
}
);
width = 2200;
}
);
leftKerningGroup = O;
rightKerningGroup = O;
unicode = 01A0;
},
{
color = 3;
glyphname = Oogonek;
lastChange = "2020-09-10 12:23:29 +0000";
layers = (
{
anchors = (
{
name = bottom;
position = "{452, 0}";
},
{
name = center;
position = "{452, 696}";
},
{
name = top;
position = "{456, 1400}";
},
{
name = topleft;
position = "{116, 1400}";
},
{
name = topright;
position = "{628, 1299}";
}
);
components = (
{
name = ogonekcomb.case;
transform = "{1, 0, 0, 1, 77, 59}";
}
);
layerId = "2E286313-D5BF-4FB4-A4B7-BD9BC13B574E";
paths = (
{
closed = 1;
nodes = (
"604 -22 OFFCURVE",
"752 140 OFFCURVE",
"752 696 CURVE SMOOTH",
"752 1250 OFFCURVE",
"604 1412 OFFCURVE",
"452 1412 CURVE SMOOTH",
"298 1412 OFFCURVE",
"150 1250 OFFCURVE",
"150 696 CURVE SMOOTH",
"150 140 OFFCURVE",
"298 -22 OFFCURVE",
"452 -22 CURVE SMOOTH"
);
},
{
closed = 1;
nodes = (
"350 44 OFFCURVE",
"218 178 OFFCURVE",
"218 696 CURVE SMOOTH",
"218 1212 OFFCURVE",
"350 1346 OFFCURVE",
"452 1346 CURVE SMOOTH",
"552 1346 OFFCURVE",
"684 1212 OFFCURVE",
"684 696 CURVE SMOOTH",
"684 178 OFFCURVE",
"552 44 OFFCURVE",
"452 44 CURVE SMOOTH"
);
}
);
width = 900;
},
{
anchors = (
{
name = bottom;
position = "{445, 0}";
},
{
name = center;
position = "{451, 696}";
},
{
name = top;
position = "{447, 1400}";
},
{
name = topleft;
position = "{68, 1400}";
},
{
name = topright;
position = "{638, 1299}";
}
);
components = (
{
name = ogonekcomb.case;
transform = "{1, 0, 0, 1, 64, 81}";
}
);
layerId = "5D8A6BC1-E275-4777-AF98-AB9B3DC0EDC1";
paths = (
{
closed = 1;
nodes = (
"664 -22 OFFCURVE",
"843 170 OFFCURVE",
"843 696 CURVE SMOOTH",
"843 1220 OFFCURVE",
"664 1412 OFFCURVE",
"451 1412 CURVE SMOOTH",
"235 1412 OFFCURVE",
"58 1220 OFFCURVE",
"58 696 CURVE SMOOTH",
"58 170 OFFCURVE",
"235 -22 OFFCURVE",
"451 -22 CURVE SMOOTH"
);
},
{
closed = 1;
nodes = (
"418 249 OFFCURVE",
"398 330 OFFCURVE",
"398 696 CURVE SMOOTH",
"398 1060 OFFCURVE",
"418 1141 OFFCURVE",
"451 1141 CURVE SMOOTH",
"481 1141 OFFCURVE",
"503 1060 OFFCURVE",
"503 696 CURVE SMOOTH",
"503 330 OFFCURVE",
"481 249 OFFCURVE",
"451 249 CURVE SMOOTH"
);
}
);
width = 900;
},
{
anchors = (
{
name = bottom;
position = "{642, 0}";
},
{
name = center;
position = "{650, 700}";
},
{
name = top;
position = "{650, 1400}";
},
{
name = topleft;
position = "{90, 1400}";
},
{
name = topright;
position = "{956, 1299}";
}
);
components = (
{
name = ogonekcomb.case;
transform = "{1, 0, 0, 1, 288, 54}";
}
);
layerId = "BE68D89F-AB3F-4BDF-B332-ED50D7C47704";
paths = (
{
closed = 1;
nodes = (
"922 -22 OFFCURVE",
"1178 190 OFFCURVE",
"1178 696 CURVE SMOOTH",
"1178 1200 OFFCURVE",
"922 1412 OFFCURVE",
"650 1412 CURVE SMOOTH",
"376 1412 OFFCURVE",
"120 1200 OFFCURVE",
"120 696 CURVE SMOOTH",
"120 190 OFFCURVE",
"376 -22 OFFCURVE",
"650 -22 CURVE SMOOTH"
);
},
{
closed = 1;
nodes = (
"424 44 OFFCURVE",
"190 238 OFFCURVE",
"190 696 CURVE SMOOTH",
"190 1152 OFFCURVE",
"424 1346 OFFCURVE",
"650 1346 CURVE SMOOTH",
"874 1346 OFFCURVE",
"1108 1152 OFFCURVE",
"1108 696 CURVE SMOOTH",
"1108 238 OFFCURVE",
"874 44 OFFCURVE",
"650 44 CURVE SMOOTH"
);
}
);
width = 1300;
},
{
anchors = (
{
name = bottom;
position = "{634, 0}";
},
{
name = center;
position = "{642, 700}";
},
{
name = top;
position = "{640, 1400}";
},
{
name = topleft;
position = "{40, 1400}";
},
{
name = topright;
position = "{956, 1299}";
}
);
components = (
{
name = ogonekcomb.case;
transform = "{1, 0, 0, 1, 285, 70}";
}
);
layerId = "5521DC30-183F-421A-91F3-644B5E24AFE6";
paths = (
{
closed = 1;
nodes = (
"950 -22 OFFCURVE",
"1252 176 OFFCURVE",
"1252 696 CURVE SMOOTH",
"1252 1214 OFFCURVE",
"950 1412 OFFCURVE",
"646 1412 CURVE SMOOTH",
"340 1412 OFFCURVE",
"38 1214 OFFCURVE",
"38 696 CURVE SMOOTH",
"38 176 OFFCURVE",
"340 -22 OFFCURVE",
"646 -22 CURVE SMOOTH"
);
},
{
closed = 1;
nodes = (
"522 252 OFFCURVE",
"416 376 OFFCURVE",
"416 696 CURVE SMOOTH",
"416 1014 OFFCURVE",
"522 1138 OFFCURVE",
"646 1138 CURVE SMOOTH",
"768 1138 OFFCURVE",
"874 1014 OFFCURVE",
"874 696 CURVE SMOOTH",
"874 376 OFFCURVE",
"768 252 OFFCURVE",
"646 252 CURVE SMOOTH"
);
}
);
width = 1300;
},
{
anchors = (
{
name = bottom;
position = "{1076, 0}";
},
{
name = center;
position = "{1090, 700}";
},
{
name = top;
position = "{1090, 1400}";
},
{
name = topleft;
position = "{110, 1400}";
},
{
name = topright;
position = "{1551, 1299}";
}
);
components = (
{
name = ogonekcomb.case;
transform = "{1, 0, 0, 1, 410, 62}";
}
);
layerId = "E338D14E-1DA5-418D-88BC-8956EEA80AB9";
paths = (
{
closed = 1;
nodes = (
"1488 -22 OFFCURVE",
"1946 180 OFFCURVE",
"1946 696 CURVE SMOOTH",
"1946 1210 OFFCURVE",
"1488 1412 OFFCURVE",
"1092 1412 CURVE SMOOTH",
"692 1412 OFFCURVE",
"234 1210 OFFCURVE",
"234 696 CURVE SMOOTH",
"234 180 OFFCURVE",
"692 -22 OFFCURVE",
"1092 -22 CURVE SMOOTH"
);
},
{
closed = 1;
nodes = (
"722 44 OFFCURVE",
"310 238 OFFCURVE",
"310 696 CURVE SMOOTH",
"310 1152 OFFCURVE",
"722 1346 OFFCURVE",
"1092 1346 CURVE SMOOTH",
"1458 1346 OFFCURVE",
"1870 1152 OFFCURVE",
"1870 696 CURVE SMOOTH",
"1870 238 OFFCURVE",
"1458 44 OFFCURVE",
"1092 44 CURVE SMOOTH"
);
}
);
width = 2200;
},
{
anchors = (
{
name = bottom;
position = "{1074, 0}";
},
{
name = center;
position = "{1096, 700}";
},
{
name = top;
position = "{1088, 1400}";
},
{
name = topleft;
position = "{50, 1400}";
},
{
name = topright;
position = "{1647, 1299}";
}
);
components = (
{
name = ogonekcomb.case;
transform = "{1, 0, 0, 1, 451, 66}";
}
);
layerId = "16EBFD8D-F4C1-4BAA-8DD7-EBE82D779ED1";
paths = (
{
closed = 1;
nodes = (
"1553 -22 OFFCURVE",
"2100 163 OFFCURVE",
"2100 696 CURVE SMOOTH",
"2100 1227 OFFCURVE",
"1553 1412 OFFCURVE",
"1099 1412 CURVE SMOOTH",
"642 1412 OFFCURVE",
"92 1226 OFFCURVE",
"92 696 CURVE SMOOTH",
"92 164 OFFCURVE",
"642 -22 OFFCURVE",
"1099 -22 CURVE SMOOTH"
);
},
{
closed = 1;
nodes = (
"855 275 OFFCURVE",
"523 365 OFFCURVE",
"523 696 CURVE SMOOTH",
"523 1025 OFFCURVE",
"855 1115 OFFCURVE",
"1099 1115 CURVE SMOOTH",
"1341 1115 OFFCURVE",
"1669 1025 OFFCURVE",
"1669 696 CURVE SMOOTH",
"1669 365 OFFCURVE",
"1341 275 OFFCURVE",
"1099 275 CURVE SMOOTH"
);
}
);
width = 2200;
}
);
leftKerningGroup = O;
rightKerningGroup = O;
unicode = 01EA;
},
{
color = 6;
glyphname = Oslash;
lastChange = "2020-09-23 16:50:32 +0000";
layers = (
{
anchors = (
{
name = bottom;
position = "{650, 0}";
},
{
name = top;
position = "{650, 1400}";
}
);
layerId = "5521DC30-183F-421A-91F3-644B5E24AFE6";
paths = (
{
closed = 1;
nodes = (
"270 -57 LINE",
"1256 1286 LINE",
"1030 1443 LINE",
"44 100 LINE"
);
},
{
closed = 1;
nodes = (
"950 -22 OFFCURVE",
"1252 176 OFFCURVE",
"1252 696 CURVE SMOOTH",
"1252 1214 OFFCURVE",
"950 1412 OFFCURVE",
"646 1412 CURVE SMOOTH",
"340 1412 OFFCURVE",
"38 1214 OFFCURVE",
"38 696 CURVE SMOOTH",
"38 176 OFFCURVE",
"340 -22 OFFCURVE",
"646 -22 CURVE SMOOTH"
);
},
{
closed = 1;
nodes = (
"522 252 OFFCURVE",
"416 376 OFFCURVE",
"416 696 CURVE SMOOTH",
"416 1014 OFFCURVE",
"522 1138 OFFCURVE",
"646 1138 CURVE SMOOTH",
"768 1138 OFFCURVE",
"874 1014 OFFCURVE",
"874 696 CURVE SMOOTH",
"874 376 OFFCURVE",
"768 252 OFFCURVE",
"646 252 CURVE SMOOTH"
);
}
);
width = 1300;
},
{
anchors = (
{
name = bottom;
position = "{650, 0}";
},
{
name = top;
position = "{650, 1400}";
}
);
layerId = "BE68D89F-AB3F-4BDF-B332-ED50D7C47704";
paths = (
{
closed = 1;
nodes = (
"212 -25 LINE",
"1148 1375 LINE",
"1088 1414 LINE",
"152 14 LINE"
);
},
{
closed = 1;
nodes = (
"922 -22 OFFCURVE",
"1178 190 OFFCURVE",
"1178 696 CURVE SMOOTH",
"1178 1200 OFFCURVE",
"922 1412 OFFCURVE",
"650 1412 CURVE SMOOTH",
"376 1412 OFFCURVE",
"120 1200 OFFCURVE",
"120 696 CURVE SMOOTH",
"120 190 OFFCURVE",
"376 -22 OFFCURVE",
"650 -22 CURVE SMOOTH"
);
},
{
closed = 1;
nodes = (
"424 44 OFFCURVE",
"190 238 OFFCURVE",
"190 696 CURVE SMOOTH",
"190 1152 OFFCURVE",
"424 1346 OFFCURVE",
"650 1346 CURVE SMOOTH",
"874 1346 OFFCURVE",
"1108 1152 OFFCURVE",
"1108 696 CURVE SMOOTH",
"1108 238 OFFCURVE",
"874 44 OFFCURVE",
"650 44 CURVE SMOOTH"
);
}
);
width = 1300;
},
{
anchors = (
{
name = bottom;
position = "{450, 0}";
},
{
name = top;
position = "{450, 1400}";
}
);
layerId = "2E286313-D5BF-4FB4-A4B7-BD9BC13B574E";
paths = (
{
closed = 1;
nodes = (
"81 -20 LINE",
"877 1370 LINE",
"820 1410 LINE",
"24 20 LINE"
);
},
{
closed = 1;
nodes = (
"604 -22 OFFCURVE",
"752 140 OFFCURVE",
"752 696 CURVE SMOOTH",
"752 1250 OFFCURVE",
"604 1412 OFFCURVE",
"452 1412 CURVE SMOOTH",
"298 1412 OFFCURVE",
"150 1250 OFFCURVE",
"150 696 CURVE SMOOTH",
"150 140 OFFCURVE",
"298 -22 OFFCURVE",
"452 -22 CURVE SMOOTH"
);
},
{
closed = 1;
nodes = (
"350 44 OFFCURVE",
"218 178 OFFCURVE",
"218 696 CURVE SMOOTH",
"218 1212 OFFCURVE",
"350 1346 OFFCURVE",
"452 1346 CURVE SMOOTH",
"552 1346 OFFCURVE",
"684 1212 OFFCURVE",
"684 696 CURVE SMOOTH",
"684 178 OFFCURVE",
"552 44 OFFCURVE",
"452 44 CURVE SMOOTH"
);
}
);
width = 900;
},
{
anchors = (
{
name = bottom;
position = "{1100, 0}";
},
{
name = top;
position = "{1100, 1400}";
}
);
layerId = "E338D14E-1DA5-418D-88BC-8956EEA80AB9";
paths = (
{
closed = 1;
nodes = (
"443 -44 LINE",
"1811 1380 LINE",
"1750 1425 LINE",
"382 1 LINE"
);
},
{
closed = 1;
nodes = (
"1488 -22 OFFCURVE",
"1946 180 OFFCURVE",
"1946 696 CURVE SMOOTH",
"1946 1210 OFFCURVE",
"1488 1412 OFFCURVE",
"1092 1412 CURVE SMOOTH",
"692 1412 OFFCURVE",
"234 1210 OFFCURVE",
"234 696 CURVE SMOOTH",
"234 180 OFFCURVE",
"692 -22 OFFCURVE",
"1092 -22 CURVE SMOOTH"
);
},
{
closed = 1;
nodes = (
"722 44 OFFCURVE",
"310 238 OFFCURVE",
"310 696 CURVE SMOOTH",
"310 1152 OFFCURVE",
"722 1346 OFFCURVE",
"1092 1346 CURVE SMOOTH",
"1458 1346 OFFCURVE",
"1870 1152 OFFCURVE",
"1870 696 CURVE SMOOTH",
"1870 238 OFFCURVE",
"1458 44 OFFCURVE",
"1092 44 CURVE SMOOTH"
);
}
);
width = 2200;
},
{
anchors = (
{
name = bottom;
position = "{450, 0}";
},
{
name = top;
position = "{450, 1400}";
}
);
layerId = "5D8A6BC1-E275-4777-AF98-AB9B3DC0EDC1";
paths = (
{
closed = 1;
nodes = (
"100 -73 LINE",
"982 1359 LINE",
"799 1461 LINE",
"-83 29 LINE"
);
},
{
closed = 1;
nodes = (
"664 -22 OFFCURVE",
"843 170 OFFCURVE",
"843 696 CURVE SMOOTH",
"843 1220 OFFCURVE",
"664 1412 OFFCURVE",
"451 1412 CURVE SMOOTH",
"235 1412 OFFCURVE",
"58 1220 OFFCURVE",
"58 696 CURVE SMOOTH",
"58 170 OFFCURVE",
"235 -22 OFFCURVE",
"451 -22 CURVE SMOOTH"
);
},
{
closed = 1;
nodes = (
"418 249 OFFCURVE",
"398 330 OFFCURVE",
"398 696 CURVE SMOOTH",
"398 1060 OFFCURVE",
"418 1141 OFFCURVE",
"451 1141 CURVE SMOOTH",
"481 1141 OFFCURVE",
"503 1060 OFFCURVE",
"503 696 CURVE SMOOTH",
"503 330 OFFCURVE",
"481 249 OFFCURVE",
"451 249 CURVE SMOOTH"
);
}
);
width = 900;
},
{
anchors = (
{
name = bottom;
position = "{1100, 0}";
},
{
name = top;
position = "{1100, 1400}";
}
);
layerId = "16EBFD8D-F4C1-4BAA-8DD7-EBE82D779ED1";
paths = (
{
closed = 1;
nodes = (
"524 -145 LINE",
"1886 1361 LINE",
"1669 1511 LINE",
"307 5 LINE"
);
},
{
closed = 1;
nodes = (
"1553 -22 OFFCURVE",
"2100 163 OFFCURVE",
"2100 696 CURVE SMOOTH",
"2100 1227 OFFCURVE",
"1553 1412 OFFCURVE",
"1099 1412 CURVE SMOOTH",
"642 1412 OFFCURVE",
"92 1226 OFFCURVE",
"92 696 CURVE SMOOTH",
"92 164 OFFCURVE",
"642 -22 OFFCURVE",
"1099 -22 CURVE SMOOTH"
);
},
{
closed = 1;
nodes = (
"855 275 OFFCURVE",
"523 365 OFFCURVE",
"523 696 CURVE SMOOTH",
"523 1025 OFFCURVE",
"855 1115 OFFCURVE",
"1099 1115 CURVE SMOOTH",
"1341 1115 OFFCURVE",
"1669 1025 OFFCURVE",
"1669 696 CURVE SMOOTH",
"1669 365 OFFCURVE",
"1341 275 OFFCURVE",
"1099 275 CURVE SMOOTH"
);
}
);
width = 2200;
}
);
leftKerningGroup = O;
rightKerningGroup = O;
unicode = 00D8;
},
{
color = 6;
glyphname = OE;
lastChange = "2020-09-21 19:16:04 +0000";
layers = (
{
anchors = (
{
name = bottom;
position = "{900, 0}";
},
{
name = top;
position = "{900, 1400}";
}
);
layerId = "5521DC30-183F-421A-91F3-644B5E24AFE6";
paths = (
{
closed = 1;
nodes = (
"832 1400 LINE",
"832 1374 LINE",
"764 1400 OFFCURVE",
"693 1412 OFFCURVE",
"622 1412 CURVE SMOOTH",
"336 1412 OFFCURVE",
"34 1214 OFFCURVE",
"34 696 CURVE SMOOTH",
"34 176 OFFCURVE",
"336 -22 OFFCURVE",
"622 -22 CURVE SMOOTH",
"693 -22 OFFCURVE",
"764 -10 OFFCURVE",
"832 17 CURVE",
"832 0 LINE",
"1690 0 LINE",
"1690 270 LINE",
"1206 270 LINE",
"1206 554 LINE",
"1652 554 LINE",
"1652 822 LINE",
"1206 822 LINE",
"1206 1130 LINE",
"1690 1130 LINE",
"1690 1400 LINE"
);
},
{
closed = 1;
nodes = (
"518 252 OFFCURVE",
"412 376 OFFCURVE",
"412 696 CURVE SMOOTH",
"412 1014 OFFCURVE",
"518 1138 OFFCURVE",
"622 1138 CURVE SMOOTH",
"744 1138 OFFCURVE",
"830 1014 OFFCURVE",
"830 696 CURVE SMOOTH",
"830 376 OFFCURVE",
"744 252 OFFCURVE",
"622 252 CURVE SMOOTH"
);
}
);
width = 1700;
},
{
anchors = (
{
name = bottom;
position = "{860, 0}";
},
{
name = top;
position = "{860, 1400}";
}
);
layerId = "BE68D89F-AB3F-4BDF-B332-ED50D7C47704";
paths = (
{
closed = 1;
nodes = (
"988 1400 LINE",
"988 1091 LINE",
"902 1314 OFFCURVE",
"738 1412 OFFCURVE",
"553 1412 CURVE SMOOTH",
"279 1412 OFFCURVE",
"53 1200 OFFCURVE",
"53 696 CURVE SMOOTH",
"53 190 OFFCURVE",
"279 -22 OFFCURVE",
"553 -22 CURVE SMOOTH",
"738 -22 OFFCURVE",
"902 76 OFFCURVE",
"988 299 CURVE",
"988 0 LINE",
"1656 0 LINE",
"1656 64 LINE",
"1054 64 LINE",
"1054 656 LINE",
"1598 656 LINE",
"1598 720 LINE",
"1054 720 LINE",
"1054 1336 LINE",
"1656 1336 LINE",
"1656 1400 LINE"
);
},
{
closed = 1;
nodes = (
"327 44 OFFCURVE",
"123 238 OFFCURVE",
"123 696 CURVE SMOOTH",
"123 1152 OFFCURVE",
"327 1346 OFFCURVE",
"553 1346 CURVE SMOOTH",
"777 1346 OFFCURVE",
"981 1152 OFFCURVE",
"981 696 CURVE SMOOTH",
"981 238 OFFCURVE",
"777 44 OFFCURVE",
"553 44 CURVE SMOOTH"
);
}
);
width = 1700;
},
{
anchors = (
{
name = bottom;
position = "{630, 0}";
},
{
name = top;
position = "{630, 1400}";
}
);
layerId = "2E286313-D5BF-4FB4-A4B7-BD9BC13B574E";
paths = (
{
closed = 1;
nodes = (
"656 1400 LINE",
"656 1182 LINE",
"599 1352 OFFCURVE",
"508 1412 OFFCURVE",
"416 1412 CURVE SMOOTH",
"262 1412 OFFCURVE",
"114 1250 OFFCURVE",
"114 696 CURVE SMOOTH",
"114 140 OFFCURVE",
"262 -22 OFFCURVE",
"416 -22 CURVE SMOOTH",
"508 -22 OFFCURVE",
"599 38 OFFCURVE",
"656 208 CURVE",
"656 0 LINE",
"1084 0 LINE",
"1084 64 LINE",
"722 64 LINE",
"722 656 LINE",
"1036 656 LINE",
"1036 720 LINE",
"722 720 LINE",
"722 1336 LINE",
"1084 1336 LINE",
"1084 1400 LINE"
);
},
{
closed = 1;
nodes = (
"314 44 OFFCURVE",
"182 178 OFFCURVE",
"182 696 CURVE SMOOTH",
"182 1212 OFFCURVE",
"314 1346 OFFCURVE",
"416 1346 CURVE SMOOTH",
"516 1346 OFFCURVE",
"648 1212 OFFCURVE",
"648 696 CURVE SMOOTH",
"648 178 OFFCURVE",
"516 44 OFFCURVE",
"416 44 CURVE SMOOTH"
);
}
);
width = 1200;
},
{
anchors = (
{
name = bottom;
position = "{1280, 0}";
},
{
name = top;
position = "{1280, 1400}";
}
);
layerId = "E338D14E-1DA5-418D-88BC-8956EEA80AB9";
paths = (
{
closed = 1;
nodes = (
"1603 1400 LINE",
"1603 1021 LINE",
"1476 1297 OFFCURVE",
"1182 1412 OFFCURVE",
"884 1412 CURVE SMOOTH",
"484 1412 OFFCURVE",
"106 1210 OFFCURVE",
"106 696 CURVE SMOOTH",
"106 180 OFFCURVE",
"484 -22 OFFCURVE",
"884 -22 CURVE SMOOTH",
"1182 -22 OFFCURVE",
"1476 93 OFFCURVE",
"1603 370 CURVE",
"1603 0 LINE",
"2542 0 LINE",
"2542 64 LINE",
"1673 64 LINE",
"1673 656 LINE",
"2472 656 LINE",
"2472 720 LINE",
"1673 720 LINE",
"1673 1336 LINE",
"2542 1336 LINE",
"2542 1400 LINE"
);
},
{
closed = 1;
nodes = (
"514 44 OFFCURVE",
"182 238 OFFCURVE",
"182 696 CURVE SMOOTH",
"182 1152 OFFCURVE",
"514 1346 OFFCURVE",
"884 1346 CURVE SMOOTH",
"1250 1346 OFFCURVE",
"1592 1152 OFFCURVE",
"1592 696 CURVE SMOOTH",
"1592 238 OFFCURVE",
"1250 44 OFFCURVE",
"884 44 CURVE SMOOTH"
);
}
);
width = 2600;
},
{
anchors = (
{
name = bottom;
position = "{580, 0}";
},
{
name = top;
position = "{580, 1400}";
}
);
layerId = "5D8A6BC1-E275-4777-AF98-AB9B3DC0EDC1";
paths = (
{
closed = 1;
nodes = (
"505 1400 LINE",
"505 1390 LINE",
"501 1399 OFFCURVE",
"447 1412 OFFCURVE",
"417 1412 CURVE SMOOTH",
"201 1412 OFFCURVE",
"24 1220 OFFCURVE",
"24 696 CURVE SMOOTH",
"24 170 OFFCURVE",
"201 -22 OFFCURVE",
"417 -22 CURVE SMOOTH",
"458 -22 OFFCURVE",
"521 -7 OFFCURVE",
"534 10 CURVE",
"534 0 LINE",
"1178 0 LINE",
"1178 270 LINE",
"826 270 LINE",
"826 554 LINE",
"1106 554 LINE",
"1106 822 LINE",
"826 822 LINE",
"826 1130 LINE",
"1178 1130 LINE",
"1178 1400 LINE"
);
},
{
closed = 1;
nodes = (
"384 249 OFFCURVE",
"364 330 OFFCURVE",
"364 696 CURVE SMOOTH",
"364 1060 OFFCURVE",
"384 1141 OFFCURVE",
"417 1141 CURVE SMOOTH",
"447 1141 OFFCURVE",
"469 1060 OFFCURVE",
"469 696 CURVE SMOOTH",
"469 330 OFFCURVE",
"447 249 OFFCURVE",
"417 249 CURVE SMOOTH"
);
}
);
width = 1200;
},
{
anchors = (
{
name = bottom;
position = "{1300, 0}";
},
{
name = top;
position = "{1300, 1400}";
}
);
layerId = "16EBFD8D-F4C1-4BAA-8DD7-EBE82D779ED1";
paths = (
{
closed = 1;
nodes = (
"1508 1400 LINE",
"1508 1289 LINE",
"1341 1376 OFFCURVE",
"1136 1412 OFFCURVE",
"935 1412 CURVE SMOOTH",
"478 1412 OFFCURVE",
"28 1226 OFFCURVE",
"28 696 CURVE SMOOTH",
"28 164 OFFCURVE",
"478 -22 OFFCURVE",
"935 -22 CURVE SMOOTH",
"1136 -22 OFFCURVE",
"1341 14 OFFCURVE",
"1508 101 CURVE",
"1508 0 LINE",
"2574 0 LINE",
"2574 270 LINE",
"1886 270 LINE",
"1886 554 LINE",
"2454 554 LINE",
"2454 822 LINE",
"1886 822 LINE",
"1886 1130 LINE",
"2574 1130 LINE",
"2574 1400 LINE"
);
},
{
closed = 1;
nodes = (
"691 275 OFFCURVE",
"459 365 OFFCURVE",
"459 696 CURVE SMOOTH",
"459 1025 OFFCURVE",
"691 1115 OFFCURVE",
"935 1115 CURVE SMOOTH",
"1177 1115 OFFCURVE",
"1435 1025 OFFCURVE",
"1435 696 CURVE SMOOTH",
"1435 365 OFFCURVE",
"1177 275 OFFCURVE",
"935 275 CURVE SMOOTH"
);
}
);
width = 2600;
}
);
leftKerningGroup = O;
rightKerningGroup = E;
unicode = 0152;
},
{
color = 6;
glyphname = OE.ss01;
lastChange = "2020-09-21 19:18:06 +0000";
layers = (
{
anchors = (
{
name = bottom;
position = "{650, 0}";
},
{
name = top;
position = "{650, 1400}";
}
);
layerId = "5521DC30-183F-421A-91F3-644B5E24AFE6";
paths = (
{
closed = 1;
nodes = (
"667 1400 LINE",
"667 1390 LINE",
"644 1404 OFFCURVE",
"572 1420 OFFCURVE",
"522 1420 CURVE SMOOTH",
"266 1420 OFFCURVE",
"14 1244 OFFCURVE",
"14 696 CURVE SMOOTH",
"14 146 OFFCURVE",
"266 -22 OFFCURVE",
"522 -22 CURVE SMOOTH",
"573 -22 OFFCURVE",
"649 -6 OFFCURVE",
"673 10 CURVE",
"673 0 LINE",
"1260 0 LINE",
"1260 270 LINE",
"1026 270 LINE",
"1026 554 LINE",
"1212 554 LINE",
"1212 822 LINE",
"1026 822 LINE",
"1026 1130 LINE",
"1260 1130 LINE",
"1260 1400 LINE"
);
},
{
closed = 1;
nodes = (
"418 252 OFFCURVE",
"392 376 OFFCURVE",
"392 696 CURVE SMOOTH",
"392 1014 OFFCURVE",
"418 1138 OFFCURVE",
"522 1138 CURVE SMOOTH",
"624 1138 OFFCURVE",
"650 1014 OFFCURVE",
"650 696 CURVE SMOOTH",
"650 376 OFFCURVE",
"624 252 OFFCURVE",
"522 252 CURVE SMOOTH"
);
}
);
width = 1300;
},
{
anchors = (
{
name = bottom;
position = "{650, 0}";
},
{
name = top;
position = "{650, 1400}";
}
);
layerId = "BE68D89F-AB3F-4BDF-B332-ED50D7C47704";
paths = (
{
closed = 1;
nodes = (
"718 1400 LINE",
"718 1177 LINE",
"658 1351 OFFCURVE",
"558 1412 OFFCURVE",
"440 1412 CURVE SMOOTH",
"246 1412 OFFCURVE",
"90 1250 OFFCURVE",
"90 696 CURVE SMOOTH",
"90 140 OFFCURVE",
"246 -22 OFFCURVE",
"440 -22 CURVE SMOOTH",
"558 -22 OFFCURVE",
"658 39 OFFCURVE",
"718 213 CURVE",
"718 0 LINE",
"1246 0 LINE",
"1246 64 LINE",
"784 64 LINE",
"784 656 LINE",
"1198 656 LINE",
"1198 720 LINE",
"784 720 LINE",
"784 1336 LINE",
"1246 1336 LINE",
"1246 1400 LINE"
);
},
{
closed = 1;
nodes = (
"274 44 OFFCURVE",
"160 198 OFFCURVE",
"160 696 CURVE SMOOTH",
"160 1192 OFFCURVE",
"274 1346 OFFCURVE",
"440 1346 CURVE SMOOTH",
"604 1346 OFFCURVE",
"708 1192 OFFCURVE",
"708 696 CURVE SMOOTH",
"708 198 OFFCURVE",
"604 44 OFFCURVE",
"440 44 CURVE SMOOTH"
);
}
);
width = 1300;
},
{
anchors = (
{
name = bottom;
position = "{450, 0}";
},
{
name = top;
position = "{450, 1400}";
}
);
layerId = "2E286313-D5BF-4FB4-A4B7-BD9BC13B574E";
paths = (
{
closed = 1;
nodes = (
"516 1400 LINE",
"516 1231 LINE",
"466 1373 OFFCURVE",
"393 1412 OFFCURVE",
"318 1412 CURVE SMOOTH",
"184 1412 OFFCURVE",
"56 1290 OFFCURVE",
"56 696 CURVE SMOOTH",
"56 100 OFFCURVE",
"184 -22 OFFCURVE",
"318 -22 CURVE SMOOTH",
"393 -22 OFFCURVE",
"466 17 OFFCURVE",
"516 160 CURVE",
"516 0 LINE",
"864 0 LINE",
"864 64 LINE",
"582 64 LINE",
"582 656 LINE",
"856 656 LINE",
"856 720 LINE",
"582 720 LINE",
"582 1336 LINE",
"864 1336 LINE",
"864 1400 LINE"
);
},
{
closed = 1;
nodes = (
"236 44 OFFCURVE",
"124 138 OFFCURVE",
"124 696 CURVE SMOOTH",
"124 1252 OFFCURVE",
"236 1346 OFFCURVE",
"318 1346 CURVE SMOOTH",
"398 1346 OFFCURVE",
"510 1252 OFFCURVE",
"510 696 CURVE SMOOTH",
"510 138 OFFCURVE",
"398 44 OFFCURVE",
"318 44 CURVE SMOOTH"
);
}
);
width = 900;
},
{
anchors = (
{
name = bottom;
position = "{1100, 0}";
},
{
name = top;
position = "{1100, 1400}";
}
);
layerId = "E338D14E-1DA5-418D-88BC-8956EEA80AB9";
paths = (
{
closed = 1;
nodes = (
"1294 1400 LINE",
"1294 1054 LINE",
"1175 1333 OFFCURVE",
"912 1412 OFFCURVE",
"684 1412 CURVE SMOOTH",
"374 1412 OFFCURVE",
"6 1270 OFFCURVE",
"6 696 CURVE SMOOTH",
"6 120 OFFCURVE",
"374 -22 OFFCURVE",
"684 -22 CURVE SMOOTH",
"912 -22 OFFCURVE",
"1175 57 OFFCURVE",
"1294 337 CURVE",
"1294 0 LINE",
"2134 0 LINE",
"2134 64 LINE",
"1364 64 LINE",
"1364 656 LINE",
"2064 656 LINE",
"2064 720 LINE",
"1364 720 LINE",
"1364 1336 LINE",
"2134 1336 LINE",
"2134 1400 LINE"
);
},
{
closed = 1;
nodes = (
"404 44 OFFCURVE",
"82 178 OFFCURVE",
"82 696 CURVE SMOOTH",
"82 1212 OFFCURVE",
"404 1346 OFFCURVE",
"684 1346 CURVE SMOOTH",
"960 1346 OFFCURVE",
"1282 1212 OFFCURVE",
"1282 696 CURVE SMOOTH",
"1282 178 OFFCURVE",
"960 44 OFFCURVE",
"684 44 CURVE SMOOTH"
);
}
);
width = 2200;
},
{
anchors = (
{
name = bottom;
position = "{451, 0}";
},
{
name = top;
position = "{451, 1400}";
}
);
layerId = "5D8A6BC1-E275-4777-AF98-AB9B3DC0EDC1";
paths = (
{
closed = 1;
nodes = (
"451 1400 LINE",
"451 1390 LINE",
"442 1401 OFFCURVE",
"389 1412 OFFCURVE",
"356 1412 CURVE SMOOTH",
"142 1412 OFFCURVE",
"-27 1260 OFFCURVE",
"-27 696 CURVE SMOOTH",
"-27 130 OFFCURVE",
"142 -22 OFFCURVE",
"356 -22 CURVE SMOOTH",
"400 -22 OFFCURVE",
"462 -5 OFFCURVE",
"481 10 CURVE",
"481 0 LINE",
"895 0 LINE",
"895 247 LINE",
"737 247 LINE",
"737 565 LINE",
"865 565 LINE",
"865 811 LINE",
"737 811 LINE",
"737 1153 LINE",
"895 1153 LINE",
"895 1400 LINE"
);
},
{
closed = 1;
nodes = (
"329 229 OFFCURVE",
"313 329 OFFCURVE",
"313 696 CURVE SMOOTH",
"313 1061 OFFCURVE",
"329 1161 OFFCURVE",
"356 1161 CURVE SMOOTH",
"387 1161 OFFCURVE",
"400 1026 OFFCURVE",
"400 698 CURVE SMOOTH",
"400 368 OFFCURVE",
"389 229 OFFCURVE",
"356 229 CURVE SMOOTH"
);
}
);
width = 901;
},
{
anchors = (
{
name = bottom;
position = "{1100, 0}";
},
{
name = top;
position = "{1100, 1400}";
}
);
layerId = "16EBFD8D-F4C1-4BAA-8DD7-EBE82D779ED1";
paths = (
{
closed = 1;
nodes = (
"1147 1400 LINE",
"1147 1359 LINE",
"1043 1398 OFFCURVE",
"932 1412 OFFCURVE",
"831 1412 CURVE SMOOTH",
"510 1412 OFFCURVE",
"97 1270 OFFCURVE",
"97 696 CURVE SMOOTH",
"97 120 OFFCURVE",
"510 -22 OFFCURVE",
"831 -22 CURVE SMOOTH",
"932 -22 OFFCURVE",
"1043 -8 OFFCURVE",
"1147 31 CURVE",
"1147 0 LINE",
"2083 0 LINE",
"2083 293 LINE",
"1560 293 LINE",
"1560 543 LINE",
"2001 543 LINE",
"2001 833 LINE",
"1560 833 LINE",
"1560 1107 LINE",
"2083 1107 LINE",
"2083 1400 LINE"
);
},
{
closed = 1;
nodes = (
"638 275 OFFCURVE",
"518 387 OFFCURVE",
"518 696 CURVE SMOOTH",
"518 1003 OFFCURVE",
"638 1115 OFFCURVE",
"831 1115 CURVE SMOOTH",
"1022 1115 OFFCURVE",
"1137 1002 OFFCURVE",
"1137 696 CURVE SMOOTH",
"1137 388 OFFCURVE",
"1022 275 OFFCURVE",
"831 275 CURVE SMOOTH"
);
}
);
width = 2200;
}
);
leftKerningGroup = O;
rightKerningGroup = E;
},
{
color = 6;
glyphname = P;
lastChange = "2020-09-10 12:23:18 +0000";
layers = (
{
anchors = (
{
name = bottom;
position = "{540, 0}";
},
{
name = top;
position = "{540, 1400}";
}
);
layerId = "5521DC30-183F-421A-91F3-644B5E24AFE6";
paths = (
{
closed = 1;
nodes = (
"520 0 LINE",
"520 402 LINE",
"664 402 LINE SMOOTH",
"862 402 OFFCURVE",
"1196 493 OFFCURVE",
"1196 903 CURVE SMOOTH",
"1196 1313 OFFCURVE",
"862 1400 OFFCURVE",
"664 1400 CURVE SMOOTH",
"144 1400 LINE",
"144 0 LINE"
);
},
{
closed = 1;
nodes = (
"520 1130 LINE",
"630 1130 LINE SMOOTH",
"740 1130 OFFCURVE",
"816 1058 OFFCURVE",
"816 902 CURVE SMOOTH",
"816 746 OFFCURVE",
"740 672 OFFCURVE",
"630 672 CURVE SMOOTH",
"520 672 LINE"
);
}
);
width = 1300;
},
{
anchors = (
{
name = bottom;
position = "{600, 0}";
},
{
name = top;
position = "{600, 1400}";
}
);
layerId = "BE68D89F-AB3F-4BDF-B332-ED50D7C47704";
paths = (
{
closed = 1;
nodes = (
"368 0 LINE",
"368 500 LINE",
"614 500 LINE SMOOTH",
"782 500 OFFCURVE",
"1060 566 OFFCURVE",
"1060 958 CURVE SMOOTH",
"1060 1350 OFFCURVE",
"782 1400 OFFCURVE",
"614 1400 CURVE SMOOTH",
"302 1400 LINE",
"302 0 LINE"
);
},
{
closed = 1;
nodes = (
"368 1336 LINE",
"610 1336 LINE SMOOTH",
"740 1336 OFFCURVE",
"992 1326 OFFCURVE",
"992 958 CURVE SMOOTH",
"992 590 OFFCURVE",
"740 564 OFFCURVE",
"610 564 CURVE SMOOTH",
"368 564 LINE"
);
}
);
width = 1300;
},
{
anchors = (
{
name = bottom;
position = "{254, 0}";
},
{
name = top;
position = "{447, 1400}";
}
);
layerId = "2E286313-D5BF-4FB4-A4B7-BD9BC13B574E";
paths = (
{
closed = 1;
nodes = (
"298 0 LINE",
"298 500 LINE",
"398 500 LINE SMOOTH",
"540 500 OFFCURVE",
"744 556 OFFCURVE",
"744 958 CURVE SMOOTH",
"744 1360 OFFCURVE",
"540 1400 OFFCURVE",
"398 1400 CURVE SMOOTH",
"228 1400 LINE",
"228 0 LINE"
);
},
{
closed = 1;
nodes = (
"298 1336 LINE",
"402 1336 LINE SMOOTH",
"504 1336 OFFCURVE",
"672 1316 OFFCURVE",
"672 958 CURVE SMOOTH",
"672 600 OFFCURVE",
"504 564 OFFCURVE",
"402 564 CURVE SMOOTH",
"298 564 LINE"
);
}
);
width = 900;
},
{
anchors = (
{
name = bottom;
position = "{1030, 0}";
},
{
name = top;
position = "{1030, 1400}";
}
);
layerId = "E338D14E-1DA5-418D-88BC-8956EEA80AB9";
paths = (
{
closed = 1;
nodes = (
"534 0 LINE",
"534 500 LINE",
"1188 500 LINE SMOOTH",
"1532 500 OFFCURVE",
"1832 596 OFFCURVE",
"1832 958 CURVE SMOOTH",
"1832 1320 OFFCURVE",
"1532 1400 OFFCURVE",
"1188 1400 CURVE SMOOTH",
"458 1400 LINE",
"458 0 LINE"
);
},
{
closed = 1;
nodes = (
"534 1336 LINE",
"1182 1336 LINE SMOOTH",
"1480 1336 OFFCURVE",
"1756 1286 OFFCURVE",
"1756 958 CURVE SMOOTH",
"1756 630 OFFCURVE",
"1480 564 OFFCURVE",
"1182 564 CURVE SMOOTH",
"534 564 LINE"
);
}
);
width = 2200;
},
{
anchors = (
{
name = bottom;
position = "{275, 0}";
},
{
name = top;
position = "{419, 1400}";
}
);
layerId = "5D8A6BC1-E275-4777-AF98-AB9B3DC0EDC1";
paths = (
{
closed = 1;
nodes = (
"415 0 LINE",
"415 406 LINE",
"439 406 LINE SMOOTH",
"540 406 OFFCURVE",
"840 463 OFFCURVE",
"840 924 CURVE SMOOTH",
"840 1370 OFFCURVE",
"527 1400 OFFCURVE",
"439 1400 CURVE SMOOTH",
"73 1400 LINE",
"73 0 LINE"
);
},
{
closed = 1;
nodes = (
"415 1133 LINE",
"432 1133 LINE SMOOTH",
"463 1133 OFFCURVE",
"502 1098 OFFCURVE",
"502 904 CURVE SMOOTH",
"502 710 OFFCURVE",
"463 673 OFFCURVE",
"432 673 CURVE SMOOTH",
"415 673 LINE"
);
}
);
width = 900;
},
{
anchors = (
{
name = bottom;
position = "{1106, 0}";
},
{
name = top;
position = "{1106, 1400}";
}
);
layerId = "16EBFD8D-F4C1-4BAA-8DD7-EBE82D779ED1";
paths = (
{
closed = 1;
nodes = (
"757 0 LINE",
"757 378 LINE",
"1150 378 LINE SMOOTH",
"1425 378 OFFCURVE",
"1928 438 OFFCURVE",
"1928 888 CURVE SMOOTH",
"1928 1340 OFFCURVE",
"1423 1400 OFFCURVE",
"1150 1400 CURVE SMOOTH",
"347 1400 LINE",
"347 0 LINE"
);
},
{
closed = 1;
nodes = (
"757 1107 LINE",
"1134 1107 LINE SMOOTH",
"1336 1107 OFFCURVE",
"1496 1060 OFFCURVE",
"1496 888 CURVE SMOOTH",
"1496 715 OFFCURVE",
"1333 671 OFFCURVE",
"1134 671 CURVE SMOOTH",
"757 671 LINE"
);
}
);
width = 2200;
}
);
leftKerningGroup = H;
rightKerningGroup = P;
unicode = 0050;
},
{
color = 6;
glyphname = Thorn;
lastChange = "2020-09-23 17:07:44 +0000";
layers = (
{
anchors = (
{
name = bottom;
position = "{600, 0}";
},
{
name = top;
position = "{600, 1400}";
}
);
layerId = "5521DC30-183F-421A-91F3-644B5E24AFE6";
paths = (
{
closed = 1;
nodes = (
"508 0 LINE",
"508 256 LINE",
"654 256 LINE SMOOTH",
"822 256 OFFCURVE",
"1148 292 OFFCURVE",
"1148 714 CURVE SMOOTH",
"1148 1136 OFFCURVE",
"822 1176 OFFCURVE",
"654 1176 CURVE SMOOTH",
"508 1176 LINE",
"508 1400 LINE",
"134 1400 LINE",
"134 0 LINE"
);
},
{
closed = 1;
nodes = (
"508 906 LINE",
"628 906 LINE SMOOTH",
"708 906 OFFCURVE",
"772 876 OFFCURVE",
"772 714 CURVE SMOOTH",
"772 552 OFFCURVE",
"708 526 OFFCURVE",
"628 526 CURVE SMOOTH",
"508 526 LINE"
);
}
);
width = 1300;
},
{
anchors = (
{
name = bottom;
position = "{600, 0}";
},
{
name = top;
position = "{600, 1400}";
}
);
layerId = "BE68D89F-AB3F-4BDF-B332-ED50D7C47704";
paths = (
{
closed = 1;
nodes = (
"368 0 LINE",
"368 256 LINE",
"574 256 LINE SMOOTH",
"732 256 OFFCURVE",
"1040 302 OFFCURVE",
"1040 714 CURVE SMOOTH",
"1040 1126 OFFCURVE",
"732 1176 OFFCURVE",
"574 1176 CURVE SMOOTH",
"368 1176 LINE",
"368 1400 LINE",
"302 1400 LINE",
"302 0 LINE"
);
},
{
closed = 1;
nodes = (
"368 1112 LINE",
"570 1112 LINE SMOOTH",
"700 1112 OFFCURVE",
"972 1082 OFFCURVE",
"972 714 CURVE SMOOTH",
"972 346 OFFCURVE",
"700 320 OFFCURVE",
"570 320 CURVE SMOOTH",
"368 320 LINE"
);
}
);
width = 1300;
},
{
anchors = (
{
name = bottom;
position = "{428, 0}";
},
{
name = top;
position = "{428, 1400}";
}
);
layerId = "2E286313-D5BF-4FB4-A4B7-BD9BC13B574E";
paths = (
{
closed = 1;
nodes = (
"244 0 LINE",
"244 256 LINE",
"342 256 LINE SMOOTH",
"498 256 OFFCURVE",
"726 312 OFFCURVE",
"726 714 CURVE SMOOTH",
"726 1116 OFFCURVE",
"498 1176 OFFCURVE",
"342 1176 CURVE SMOOTH",
"244 1176 LINE",
"244 1400 LINE",
"174 1400 LINE",
"174 0 LINE"
);
},
{
closed = 1;
nodes = (
"244 1112 LINE",
"340 1112 LINE SMOOTH",
"468 1112 OFFCURVE",
"656 1062 OFFCURVE",
"656 714 CURVE SMOOTH",
"656 366 OFFCURVE",
"468 320 OFFCURVE",
"340 320 CURVE SMOOTH",
"244 320 LINE"
);
}
);
width = 900;
},
{
anchors = (
{
name = bottom;
position = "{1050, 0}";
},
{
name = top;
position = "{1050, 1400}";
}
);
layerId = "E338D14E-1DA5-418D-88BC-8956EEA80AB9";
paths = (
{
closed = 1;
nodes = (
"534 0 LINE",
"534 256 LINE",
"1028 256 LINE SMOOTH",
"1292 256 OFFCURVE",
"1678 292 OFFCURVE",
"1678 714 CURVE SMOOTH",
"1678 1136 OFFCURVE",
"1292 1176 OFFCURVE",
"1028 1176 CURVE SMOOTH",
"534 1176 LINE",
"534 1400 LINE",
"468 1400 LINE",
"468 0 LINE"
);
},
{
closed = 1;
nodes = (
"534 1112 LINE",
"1032 1112 LINE SMOOTH",
"1260 1112 OFFCURVE",
"1602 1082 OFFCURVE",
"1602 714 CURVE SMOOTH",
"1602 346 OFFCURVE",
"1260 320 OFFCURVE",
"1032 320 CURVE SMOOTH",
"534 320 LINE"
);
}
);
width = 2200;
},
{
anchors = (
{
name = bottom;
position = "{419, 0}";
},
{
name = top;
position = "{419, 1400}";
}
);
layerId = "5D8A6BC1-E275-4777-AF98-AB9B3DC0EDC1";
paths = (
{
closed = 1;
nodes = (
"406 0 LINE",
"406 256 LINE",
"482 256 LINE SMOOTH",
"586 256 OFFCURVE",
"838 284 OFFCURVE",
"838 715 CURVE SMOOTH",
"838 1166 OFFCURVE",
"567 1176 OFFCURVE",
"482 1176 CURVE SMOOTH",
"406 1176 LINE",
"406 1400 LINE",
"64 1400 LINE",
"64 0 LINE"
);
},
{
closed = 1;
nodes = (
"406 929 LINE",
"427 929 LINE SMOOTH",
"463 929 OFFCURVE",
"496 910 OFFCURVE",
"496 715 CURVE SMOOTH",
"496 510 OFFCURVE",
"463 503 OFFCURVE",
"427 503 CURVE SMOOTH",
"406 503 LINE"
);
}
);
width = 900;
},
{
anchors = (
{
name = bottom;
position = "{1052, 0}";
},
{
name = top;
position = "{1052, 1400}";
}
);
layerId = "16EBFD8D-F4C1-4BAA-8DD7-EBE82D779ED1";
paths = (
{
closed = 1;
nodes = (
"785 0 LINE",
"785 256 LINE",
"1168 256 LINE SMOOTH",
"1418 256 OFFCURVE",
"1845 270 OFFCURVE",
"1845 714 CURVE SMOOTH",
"1845 1158 OFFCURVE",
"1418 1176 OFFCURVE",
"1168 1176 CURVE SMOOTH",
"785 1176 LINE",
"785 1400 LINE",
"381 1400 LINE",
"381 0 LINE"
);
},
{
closed = 1;
nodes = (
"785 883 LINE",
"1145 883 LINE SMOOTH",
"1314 883 OFFCURVE",
"1435 873 OFFCURVE",
"1435 714 CURVE SMOOTH",
"1435 555 OFFCURVE",
"1314 549 OFFCURVE",
"1145 549 CURVE SMOOTH",
"785 549 LINE"
);
}
);
width = 2200;
}
);
leftKerningGroup = H;
rightKerningGroup = Thorn;
unicode = 00DE;
},
{
color = 3;
glyphname = Q;
lastChange = "2020-09-10 12:23:29 +0000";
layers = (
{
anchors = (
{
name = bottom;
position = "{650, 0}";
},
{
name = top;
position = "{650, 1400}";
}
);
components = (
{
name = O;
}
);
layerId = "5521DC30-183F-421A-91F3-644B5E24AFE6";
paths = (
{
closed = 1;
nodes = (
"1154 -360 LINE",
"1154 -96 LINE",
"774 -96 LINE",
"804 -126 LINE",
"804 0 LINE",
"500 0 LINE",
"500 -360 LINE"
);
}
);
width = 1300;
},
{
anchors = (
{
name = bottom;
position = "{650, 0}";
},
{
name = top;
position = "{650, 1400}";
}
);
components = (
{
name = O;
}
);
layerId = "BE68D89F-AB3F-4BDF-B332-ED50D7C47704";
paths = (
{
closed = 1;
nodes = (
"1072 -278 LINE",
"1072 -214 LINE",
"652 -214 LINE",
"682 -244 LINE",
"682 0 LINE",
"618 0 LINE",
"618 -278 LINE"
);
}
);
width = 1300;
},
{
anchors = (
{
name = bottom;
position = "{450, 0}";
},
{
name = top;
position = "{450, 1400}";
}
);
components = (
{
name = O;
transform = "{1, 0, 0, 1, -2, 0}";
}
);
layerId = "2E286313-D5BF-4FB4-A4B7-BD9BC13B574E";
paths = (
{
closed = 1;
nodes = (
"718 -248 LINE",
"718 -184 LINE",
"454 -184 LINE",
"484 -214 LINE",
"484 0 LINE",
"420 0 LINE",
"420 -248 LINE"
);
}
);
width = 900;
},
{
anchors = (
{
name = bottom;
position = "{1088, 0}";
},
{
name = top;
position = "{1050, 1400}";
}
);
components = (
{
name = O;
}
);
layerId = "E338D14E-1DA5-418D-88BC-8956EEA80AB9";
paths = (
{
closed = 1;
nodes = (
"1932 -298 LINE",
"1932 -234 LINE",
"1092 -234 LINE",
"1122 -264 LINE",
"1122 0 LINE",
"1058 0 LINE",
"1058 -298 LINE"
);
}
);
width = 2200;
},
{
anchors = (
{
name = bottom;
position = "{450, 0}";
},
{
name = top;
position = "{450, 1400}";
}
);
components = (
{
alignment = -1;
name = O;
}
);
layerId = "5D8A6BC1-E275-4777-AF98-AB9B3DC0EDC1";
paths = (
{
closed = 1;
nodes = (
"778 -320 LINE",
"778 -86 LINE",
"556 -86 LINE",
"576 -116 LINE",
"576 40 LINE",
"322 40 LINE",
"322 -320 LINE"
);
}
);
width = 900;
},
{
anchors = (
{
name = bottom;
position = "{1100, 0}";
},
{
name = top;
position = "{1100, 1400}";
}
);
components = (
{
alignment = -1;
name = O;
}
);
layerId = "16EBFD8D-F4C1-4BAA-8DD7-EBE82D779ED1";
paths = (
{
closed = 1;
nodes = (
"1954 -390 LINE",
"1954 -116 LINE",
"1238 -116 LINE",
"1288 -126 LINE",
"1288 79 LINE",
"905 79 LINE",
"905 -390 LINE"
);
}
);
width = 2200;
}
);
leftKerningGroup = O;
rightKerningGroup = O;
unicode = 0051;
},
{
color = 6;
glyphname = R;
lastChange = "2020-09-10 12:23:18 +0000";
layers = (
{
anchors = (
{
name = bottom;
position = "{671, 0}";
},
{
name = top;
position = "{663, 1400}";
}
);
layerId = "5521DC30-183F-421A-91F3-644B5E24AFE6";
paths = (
{
closed = 1;
nodes = (
"500 0 LINE",
"500 548 LINE",
"692 548 LINE SMOOTH",
"870 548 OFFCURVE",
"1208 592 OFFCURVE",
"1208 980 CURVE SMOOTH",
"1208 1326 OFFCURVE",
"910 1400 OFFCURVE",
"712 1400 CURVE SMOOTH",
"126 1400 LINE",
"126 0 LINE"
);
},
{
closed = 1;
nodes = (
"1232 0 LINE",
"969 682 LINE",
"603 644 LINE",
"836 0 LINE"
);
},
{
closed = 1;
nodes = (
"500 1130 LINE",
"630 1130 LINE SMOOTH",
"758 1130 OFFCURVE",
"836 1096 OFFCURVE",
"836 969 CURVE SMOOTH",
"836 849 OFFCURVE",
"758 806 OFFCURVE",
"630 806 CURVE SMOOTH",
"500 806 LINE"
);
}
);
width = 1300;
},
{
anchors = (
{
name = bottom;
position = "{670, 0}";
},
{
name = top;
position = "{670, 1400}";
}
);
layerId = "BE68D89F-AB3F-4BDF-B332-ED50D7C47704";
paths = (
{
closed = 1;
nodes = (
"360 0 LINE",
"360 680 LINE",
"746 680 LINE SMOOTH",
"894 680 OFFCURVE",
"1072 790 OFFCURVE",
"1072 1048 CURVE SMOOTH",
"1072 1326 OFFCURVE",
"890 1400 OFFCURVE",
"732 1400 CURVE SMOOTH",
"294 1400 LINE",
"294 0 LINE"
);
},
{
closed = 1;
nodes = (
"1098 0 LINE",
"797 714 LINE",
"729 706 LINE",
"1025 0 LINE"
);
},
{
closed = 1;
nodes = (
"360 1336 LINE",
"722 1336 LINE SMOOTH",
"852 1336 OFFCURVE",
"1004 1276 OFFCURVE",
"1004 1048 CURVE SMOOTH",
"1004 828 OFFCURVE",
"862 744 OFFCURVE",
"732 744 CURVE SMOOTH",
"360 744 LINE"
);
}
);
width = 1300;
},
{
anchors = (
{
name = bottom;
position = "{450, 0}";
},
{
name = top;
position = "{432, 1400}";
}
);
layerId = "2E286313-D5BF-4FB4-A4B7-BD9BC13B574E";
paths = (
{
closed = 1;
nodes = (
"262 0 LINE",
"262 640 LINE",
"488 640 LINE SMOOTH",
"574 640 OFFCURVE",
"714 754 OFFCURVE",
"714 1028 CURVE SMOOTH",
"714 1306 OFFCURVE",
"596 1400 OFFCURVE",
"428 1400 CURVE SMOOTH",
"196 1400 LINE",
"196 0 LINE"
);
},
{
closed = 1;
nodes = (
"718 0 LINE",
"546 706 LINE",
"492 666 LINE",
"646 0 LINE"
);
},
{
closed = 1;
nodes = (
"262 1336 LINE",
"432 1336 LINE SMOOTH",
"562 1336 OFFCURVE",
"646 1226 OFFCURVE",
"646 1028 CURVE SMOOTH",
"646 828 OFFCURVE",
"568 704 OFFCURVE",
"438 704 CURVE SMOOTH",
"262 704 LINE"
);
}
);
width = 900;
},
{
anchors = (
{
name = bottom;
position = "{1000, 0}";
},
{
name = top;
position = "{1000, 1400}";
}
);
layerId = "E338D14E-1DA5-418D-88BC-8956EEA80AB9";
paths = (
{
closed = 1;
nodes = (
"450 0 LINE",
"450 640 LINE",
"1298 640 LINE SMOOTH",
"1594 640 OFFCURVE",
"1814 760 OFFCURVE",
"1814 1028 CURVE SMOOTH",
"1814 1307 OFFCURVE",
"1590 1400 OFFCURVE",
"1280 1400 CURVE SMOOTH",
"374 1400 LINE",
"374 0 LINE"
);
},
{
closed = 1;
nodes = (
"1821 0 LINE",
"1368 670 LINE",
"1285 666 LINE",
"1733 0 LINE"
);
},
{
closed = 1;
nodes = (
"450 1336 LINE",
"1274 1336 LINE SMOOTH",
"1572 1336 OFFCURVE",
"1738 1256 OFFCURVE",
"1738 1028 CURVE SMOOTH",
"1738 798 OFFCURVE",
"1571 704 OFFCURVE",
"1292 704 CURVE SMOOTH",
"450 704 LINE"
);
}
);
width = 2200;
},
{
anchors = (
{
name = bottom;
position = "{471, 0}";
},
{
name = top;
position = "{459, 1400}";
}
);
layerId = "5D8A6BC1-E275-4777-AF98-AB9B3DC0EDC1";
paths = (
{
closed = 1;
nodes = (
"421 0 LINE",
"421 548 LINE",
"470 548 LINE SMOOTH",
"605 548 OFFCURVE",
"868 614 OFFCURVE",
"868 974 CURVE SMOOTH",
"868 1291 OFFCURVE",
"683 1400 OFFCURVE",
"490 1400 CURVE SMOOTH",
"52 1400 LINE",
"52 0 LINE"
);
},
{
closed = 1;
nodes = (
"868 0 LINE",
"732 667 LINE",
"409 615 LINE",
"521 0 LINE"
);
},
{
closed = 1;
nodes = (
"421 1133 LINE",
"443 1133 LINE SMOOTH",
"478 1133 OFFCURVE",
"508 1086 OFFCURVE",
"508 970 CURVE SMOOTH",
"508 825 OFFCURVE",
"479 789 OFFCURVE",
"443 789 CURVE SMOOTH",
"421 789 LINE"
);
}
);
width = 900;
},
{
anchors = (
{
name = bottom;
position = "{1053, 0}";
},
{
name = top;
position = "{1053, 1400}";
}
);
layerId = "16EBFD8D-F4C1-4BAA-8DD7-EBE82D779ED1";
paths = (
{
closed = 1;
nodes = (
"695 0 LINE",
"695 465 LINE",
"1314 465 LINE SMOOTH",
"1539 465 OFFCURVE",
"1952 530 OFFCURVE",
"1952 949 CURVE SMOOTH",
"1952 1336 OFFCURVE",
"1527 1400 OFFCURVE",
"1319 1400 CURVE SMOOTH",
"287 1400 LINE",
"287 0 LINE"
);
},
{
closed = 1;
nodes = (
"2038 0 LINE",
"1530 642 LINE",
"1100 625 LINE",
"1574 0 LINE"
);
},
{
closed = 1;
nodes = (
"695 1107 LINE",
"1216 1107 LINE SMOOTH",
"1358 1107 OFFCURVE",
"1517 1084 OFFCURVE",
"1517 929 CURVE SMOOTH",
"1517 774 OFFCURVE",
"1347 753 OFFCURVE",
"1214 753 CURVE SMOOTH",
"695 753 LINE"
);
}
);
width = 2200;
}
);
leftKerningGroup = H;
rightKerningGroup = R;
unicode = 0052;
},
{
color = 6;
glyphname = S;
lastChange = "2020-09-10 12:23:18 +0000";
layers = (
{
anchors = (
{
name = bottom;
position = "{628, -2}";
},
{
name = top;
position = "{646, 1400}";
}
);
layerId = "5521DC30-183F-421A-91F3-644B5E24AFE6";
paths = (
{
closed = 1;
nodes = (
"908 -22 OFFCURVE",
"1218 80 OFFCURVE",
"1218 404 CURVE SMOOTH",
"1218 688 OFFCURVE",
"921 792 OFFCURVE",
"710 862 CURVE SMOOTH",
"568 909 OFFCURVE",
"493 959 OFFCURVE",
"493 1027 CURVE SMOOTH",
"493 1100 OFFCURVE",
"556 1132 OFFCURVE",
"643 1132 CURVE SMOOTH",
"747 1132 OFFCURVE",
"817 1058 OFFCURVE",
"846 958 CURVE",
"1196 1108 LINE",
"1148 1277 OFFCURVE",
"930 1412 OFFCURVE",
"658 1412 CURVE SMOOTH",
"392 1412 OFFCURVE",
"103 1292 OFFCURVE",
"103 1016 CURVE SMOOTH",
"103 750 OFFCURVE",
"305 648 OFFCURVE",
"551 566 CURVE SMOOTH",
"711 513 OFFCURVE",
"828 455 OFFCURVE",
"828 377 CURVE SMOOTH",
"828 293 OFFCURVE",
"774 258 OFFCURVE",
"668 258 CURVE SMOOTH",
"532 258 OFFCURVE",
"447 374 OFFCURVE",
"422 476 CURVE",
"66 330 LINE",
"118 120 OFFCURVE",
"354 -22 OFFCURVE",
"640 -22 CURVE SMOOTH"
);
}
);
width = 1300;
},
{
anchors = (
{
name = bottom;
position = "{662, 0}";
},
{
name = top;
position = "{650, 1400}";
}
);
layerId = "BE68D89F-AB3F-4BDF-B332-ED50D7C47704";
paths = (
{
closed = 1;
nodes = (
"922 -22 OFFCURVE",
"1114 122 OFFCURVE",
"1114 370 CURVE SMOOTH",
"1114 616 OFFCURVE",
"889 715 OFFCURVE",
"656 764 CURVE SMOOTH",
"462 805 OFFCURVE",
"309 889 OFFCURVE",
"309 1082 CURVE SMOOTH",
"309 1252 OFFCURVE",
"491 1346 OFFCURVE",
"673 1346 CURVE SMOOTH",
"841 1346 OFFCURVE",
"970 1284 OFFCURVE",
"1022 1154 CURVE",
"1088 1188 LINE",
"1036 1322 OFFCURVE",
"869 1412 OFFCURVE",
"674 1412 CURVE SMOOTH",
"450 1412 OFFCURVE",
"239 1296 OFFCURVE",
"239 1080 CURVE SMOOTH",
"239 860 OFFCURVE",
"391 746 OFFCURVE",
"637 696 CURVE SMOOTH",
"820 659 OFFCURVE",
"1044 565 OFFCURVE",
"1044 364 CURVE SMOOTH",
"1044 174 OFFCURVE",
"888 44 OFFCURVE",
"662 44 CURVE SMOOTH",
"476 44 OFFCURVE",
"321 116 OFFCURVE",
"257 264 CURVE",
"190 228 LINE",
"266 64 OFFCURVE",
"444 -22 OFFCURVE",
"662 -22 CURVE SMOOTH"
);
}
);
width = 1300;
},
{
anchors = (
{
name = bottom;
position = "{448, 0}";
},
{
name = top;
position = "{460, 1400}";
}
);
layerId = "2E286313-D5BF-4FB4-A4B7-BD9BC13B574E";
paths = (
{
closed = 1;
nodes = (
"604 -22 OFFCURVE",
"756 74 OFFCURVE",
"756 290 CURVE SMOOTH",
"756 532 OFFCURVE",
"622 632 OFFCURVE",
"452 754 CURVE SMOOTH",
"301 863 OFFCURVE",
"236 950 OFFCURVE",
"236 1110 CURVE SMOOTH",
"236 1242 OFFCURVE",
"326 1346 OFFCURVE",
"450 1346 CURVE SMOOTH",
"602 1346 OFFCURVE",
"660 1216 OFFCURVE",
"676 1096 CURVE",
"742 1122 LINE",
"722 1256 OFFCURVE",
"626 1412 OFFCURVE",
"450 1412 CURVE SMOOTH",
"284 1412 OFFCURVE",
"168 1274 OFFCURVE",
"168 1106 CURVE SMOOTH",
"168 930 OFFCURVE",
"262 808 OFFCURVE",
"423 692 CURVE SMOOTH",
"609 558 OFFCURVE",
"686 474 OFFCURVE",
"686 286 CURVE SMOOTH",
"686 154 OFFCURVE",
"608 44 OFFCURVE",
"448 44 CURVE SMOOTH",
"289 44 OFFCURVE",
"234 176 OFFCURVE",
"210 310 CURVE",
"144 278 LINE",
"168 138 OFFCURVE",
"258 -22 OFFCURVE",
"448 -22 CURVE SMOOTH"
);
}
);
width = 900;
},
{
anchors = (
{
name = bottom;
position = "{1108, 0}";
},
{
name = top;
position = "{1086, 1400}";
}
);
layerId = "E338D14E-1DA5-418D-88BC-8956EEA80AB9";
paths = (
{
closed = 1;
nodes = (
"1594 -22 OFFCURVE",
"1898 116 OFFCURVE",
"1898 367 CURVE SMOOTH",
"1898 620 OFFCURVE",
"1555 724 OFFCURVE",
"1093 770 CURVE SMOOTH",
"711 808 OFFCURVE",
"462 888 OFFCURVE",
"462 1064 CURVE SMOOTH",
"462 1258 OFFCURVE",
"794 1346 OFFCURVE",
"1130 1346 CURVE SMOOTH",
"1466 1346 OFFCURVE",
"1690 1250 OFFCURVE",
"1798 1176 CURVE",
"1848 1232 LINE",
"1722 1320 OFFCURVE",
"1490 1412 OFFCURVE",
"1130 1412 CURVE SMOOTH",
"706 1412 OFFCURVE",
"382 1293 OFFCURVE",
"382 1066 CURVE SMOOTH",
"382 843 OFFCURVE",
"617 754 OFFCURVE",
"1081 704 CURVE SMOOTH",
"1523 656 OFFCURVE",
"1818 576 OFFCURVE",
"1818 364 CURVE SMOOTH",
"1818 160 OFFCURVE",
"1536 44 OFFCURVE",
"1088 44 CURVE SMOOTH",
"722 44 OFFCURVE",
"458 160 OFFCURVE",
"352 244 CURVE",
"302 188 LINE",
"420 106 OFFCURVE",
"674 -22 OFFCURVE",
"1088 -22 CURVE SMOOTH"
);
}
);
width = 2200;
},
{
anchors = (
{
name = bottom;
position = "{438, -2}";
},
{
name = top;
position = "{467, 1400}";
}
);
layerId = "5D8A6BC1-E275-4777-AF98-AB9B3DC0EDC1";
paths = (
{
closed = 1;
nodes = (
"687 -22 OFFCURVE",
"865 128 OFFCURVE",
"865 366 CURVE SMOOTH",
"865 582 OFFCURVE",
"698 710 OFFCURVE",
"554 820 CURVE SMOOTH",
"441 906 OFFCURVE",
"383 976 OFFCURVE",
"383 1047 CURVE SMOOTH",
"383 1104 OFFCURVE",
"398 1146 OFFCURVE",
"446 1146 CURVE SMOOTH",
"507 1146 OFFCURVE",
"542 1023 OFFCURVE",
"551 938 CURVE",
"855 1066 LINE",
"826 1251 OFFCURVE",
"691 1412 OFFCURVE",
"453 1412 CURVE SMOOTH",
"214 1412 OFFCURVE",
"40 1289 OFFCURVE",
"40 1040 CURVE SMOOTH",
"40 804 OFFCURVE",
"216 647 OFFCURVE",
"348 554 CURVE SMOOTH",
"441 488 OFFCURVE",
"518 407 OFFCURVE",
"518 337 CURVE SMOOTH",
"518 278 OFFCURVE",
"501 244 OFFCURVE",
"457 244 CURVE SMOOTH",
"399 244 OFFCURVE",
"350 369 OFFCURVE",
"342 460 CURVE",
"36 329 LINE",
"68 117 OFFCURVE",
"213 -22 OFFCURVE",
"456 -22 CURVE SMOOTH"
);
}
);
width = 900;
},
{
anchors = (
{
name = bottom;
position = "{1056, -2}";
},
{
name = top;
position = "{1048, 1400}";
}
);
layerId = "16EBFD8D-F4C1-4BAA-8DD7-EBE82D779ED1";
paths = (
{
closed = 1;
nodes = (
"1457 -22 OFFCURVE",
"1989 71 OFFCURVE",
"1989 440 CURVE SMOOTH",
"1989 781 OFFCURVE",
"1541 823 OFFCURVE",
"1192 854 CURVE SMOOTH",
"885 881 OFFCURVE",
"750 915 OFFCURVE",
"750 990 CURVE SMOOTH",
"750 1070 OFFCURVE",
"932 1108 OFFCURVE",
"1144 1108 CURVE SMOOTH",
"1372 1108 OFFCURVE",
"1541 1057 OFFCURVE",
"1640 1020 CURVE",
"1929 1305 LINE",
"1785 1350 OFFCURVE",
"1475 1412 OFFCURVE",
"1186 1412 CURVE SMOOTH",
"776 1412 OFFCURVE",
"305 1317 OFFCURVE",
"305 990 CURVE SMOOTH",
"305 678 OFFCURVE",
"677 578 OFFCURVE",
"1045 549 CURVE SMOOTH",
"1395 521 OFFCURVE",
"1543 481 OFFCURVE",
"1543 400 CURVE SMOOTH",
"1543 318 OFFCURVE",
"1339 282 OFFCURVE",
"1079 282 CURVE SMOOTH",
"801 282 OFFCURVE",
"591 359 OFFCURVE",
"493 410 CURVE",
"206 121 LINE",
"363 52 OFFCURVE",
"697 -22 OFFCURVE",
"1046 -22 CURVE SMOOTH"
);
}
);
width = 2200;
}
);
leftKerningGroup = S;
rightKerningGroup = S;
unicode = 0053;
},
{
color = 3;
glyphname = Scedilla;
lastChange = "2020-09-10 12:23:29 +0000";
layers = (
{
anchors = (
{
name = bottom;
position = "{628, -2}";
},
{
name = top;
position = "{646, 1400}";
}
);
components = (
{
name = cedillacomb;
transform = "{1, 0, 0, 1, 40, -2}";
}
);
layerId = "5521DC30-183F-421A-91F3-644B5E24AFE6";
paths = (
{
closed = 1;
nodes = (
"908 -22 OFFCURVE",
"1218 80 OFFCURVE",
"1218 404 CURVE SMOOTH",
"1218 688 OFFCURVE",
"921 792 OFFCURVE",
"710 862 CURVE SMOOTH",
"568 909 OFFCURVE",
"493 959 OFFCURVE",
"493 1027 CURVE SMOOTH",
"493 1100 OFFCURVE",
"556 1132 OFFCURVE",
"643 1132 CURVE SMOOTH",
"747 1132 OFFCURVE",
"817 1058 OFFCURVE",
"846 958 CURVE",
"1196 1108 LINE",
"1148 1277 OFFCURVE",
"930 1412 OFFCURVE",
"658 1412 CURVE SMOOTH",
"392 1412 OFFCURVE",
"103 1292 OFFCURVE",
"103 1016 CURVE SMOOTH",
"103 750 OFFCURVE",
"305 648 OFFCURVE",
"551 566 CURVE SMOOTH",
"711 513 OFFCURVE",
"828 455 OFFCURVE",
"828 377 CURVE SMOOTH",
"828 293 OFFCURVE",
"774 258 OFFCURVE",
"668 258 CURVE SMOOTH",
"532 258 OFFCURVE",
"447 374 OFFCURVE",
"422 476 CURVE",
"66 330 LINE",
"118 120 OFFCURVE",
"354 -22 OFFCURVE",
"640 -22 CURVE SMOOTH"
);
}
);
width = 1300;
},
{
anchors = (
{
name = bottom;
position = "{662, 0}";
},
{
name = top;
position = "{650, 1400}";
}
);
components = (
{
name = cedillacomb;
transform = "{1, 0, 0, 1, 73, 0}";
}
);
layerId = "BE68D89F-AB3F-4BDF-B332-ED50D7C47704";
paths = (
{
closed = 1;
nodes = (
"922 -22 OFFCURVE",
"1114 122 OFFCURVE",
"1114 370 CURVE SMOOTH",
"1114 616 OFFCURVE",
"889 715 OFFCURVE",
"656 764 CURVE SMOOTH",
"462 805 OFFCURVE",
"309 889 OFFCURVE",
"309 1082 CURVE SMOOTH",
"309 1252 OFFCURVE",
"491 1346 OFFCURVE",
"673 1346 CURVE SMOOTH",
"841 1346 OFFCURVE",
"970 1284 OFFCURVE",
"1022 1154 CURVE",
"1088 1188 LINE",
"1036 1322 OFFCURVE",
"869 1412 OFFCURVE",
"674 1412 CURVE SMOOTH",
"450 1412 OFFCURVE",
"239 1296 OFFCURVE",
"239 1080 CURVE SMOOTH",
"239 860 OFFCURVE",
"391 746 OFFCURVE",
"637 696 CURVE SMOOTH",
"820 659 OFFCURVE",
"1044 565 OFFCURVE",
"1044 364 CURVE SMOOTH",
"1044 174 OFFCURVE",
"888 44 OFFCURVE",
"662 44 CURVE SMOOTH",
"476 44 OFFCURVE",
"321 116 OFFCURVE",
"257 264 CURVE",
"190 228 LINE",
"266 64 OFFCURVE",
"444 -22 OFFCURVE",
"662 -22 CURVE SMOOTH"
);
}
);
width = 1300;
},
{
anchors = (
{
name = bottom;
position = "{448, 0}";
},
{
name = top;
position = "{460, 1400}";
}
);
components = (
{
name = cedillacomb;
transform = "{1, 0, 0, 1, 14, 0}";
}
);
layerId = "2E286313-D5BF-4FB4-A4B7-BD9BC13B574E";
paths = (
{
closed = 1;
nodes = (
"604 -22 OFFCURVE",
"756 74 OFFCURVE",
"756 290 CURVE SMOOTH",
"756 532 OFFCURVE",
"622 632 OFFCURVE",
"452 754 CURVE SMOOTH",
"301 863 OFFCURVE",
"236 950 OFFCURVE",
"236 1110 CURVE SMOOTH",
"236 1242 OFFCURVE",
"326 1346 OFFCURVE",
"450 1346 CURVE SMOOTH",
"602 1346 OFFCURVE",
"660 1216 OFFCURVE",
"676 1096 CURVE",
"742 1122 LINE",
"722 1256 OFFCURVE",
"626 1412 OFFCURVE",
"450 1412 CURVE SMOOTH",
"284 1412 OFFCURVE",
"168 1274 OFFCURVE",
"168 1106 CURVE SMOOTH",
"168 930 OFFCURVE",
"262 808 OFFCURVE",
"423 692 CURVE SMOOTH",
"609 558 OFFCURVE",
"686 474 OFFCURVE",
"686 286 CURVE SMOOTH",
"686 154 OFFCURVE",
"608 44 OFFCURVE",
"448 44 CURVE SMOOTH",
"289 44 OFFCURVE",
"234 176 OFFCURVE",
"210 310 CURVE",
"144 278 LINE",
"168 138 OFFCURVE",
"258 -22 OFFCURVE",
"448 -22 CURVE SMOOTH"
);
}
);
width = 900;
},
{
anchors = (
{
name = bottom;
position = "{1108, 0}";
},
{
name = top;
position = "{1086, 1400}";
}
);
components = (
{
name = cedillacomb;
transform = "{1, 0, 0, 1, 71, 0}";
}
);
layerId = "E338D14E-1DA5-418D-88BC-8956EEA80AB9";
paths = (
{
closed = 1;
nodes = (
"1594 -22 OFFCURVE",
"1898 116 OFFCURVE",
"1898 367 CURVE SMOOTH",
"1898 620 OFFCURVE",
"1555 724 OFFCURVE",
"1093 770 CURVE SMOOTH",
"711 808 OFFCURVE",
"462 888 OFFCURVE",
"462 1064 CURVE SMOOTH",
"462 1258 OFFCURVE",
"794 1346 OFFCURVE",
"1130 1346 CURVE SMOOTH",
"1466 1346 OFFCURVE",
"1690 1250 OFFCURVE",
"1798 1176 CURVE",
"1848 1232 LINE",
"1722 1320 OFFCURVE",
"1490 1412 OFFCURVE",
"1130 1412 CURVE SMOOTH",
"706 1412 OFFCURVE",
"382 1293 OFFCURVE",
"382 1066 CURVE SMOOTH",
"382 843 OFFCURVE",
"617 754 OFFCURVE",
"1081 704 CURVE SMOOTH",
"1523 656 OFFCURVE",
"1818 576 OFFCURVE",
"1818 364 CURVE SMOOTH",
"1818 160 OFFCURVE",
"1536 44 OFFCURVE",
"1088 44 CURVE SMOOTH",
"722 44 OFFCURVE",
"458 160 OFFCURVE",
"352 244 CURVE",
"302 188 LINE",
"420 106 OFFCURVE",
"674 -22 OFFCURVE",
"1088 -22 CURVE SMOOTH"
);
}
);
width = 2200;
},
{
anchors = (
{
name = bottom;
position = "{438, -2}";
},
{
name = top;
position = "{467, 1400}";
}
);
components = (
{
name = cedillacomb;
transform = "{1, 0, 0, 1, 26, -2}";
}
);
layerId = "5D8A6BC1-E275-4777-AF98-AB9B3DC0EDC1";
paths = (
{
closed = 1;
nodes = (
"687 -22 OFFCURVE",
"865 128 OFFCURVE",
"865 366 CURVE SMOOTH",
"865 582 OFFCURVE",
"698 710 OFFCURVE",
"554 820 CURVE SMOOTH",
"441 906 OFFCURVE",
"383 976 OFFCURVE",
"383 1047 CURVE SMOOTH",
"383 1104 OFFCURVE",
"398 1146 OFFCURVE",
"446 1146 CURVE SMOOTH",
"507 1146 OFFCURVE",
"542 1023 OFFCURVE",
"551 938 CURVE",
"855 1066 LINE",
"826 1251 OFFCURVE",
"691 1412 OFFCURVE",
"453 1412 CURVE SMOOTH",
"214 1412 OFFCURVE",
"40 1289 OFFCURVE",
"40 1040 CURVE SMOOTH",
"40 804 OFFCURVE",
"216 647 OFFCURVE",
"348 554 CURVE SMOOTH",
"441 488 OFFCURVE",
"518 407 OFFCURVE",
"518 337 CURVE SMOOTH",
"518 278 OFFCURVE",
"501 244 OFFCURVE",
"457 244 CURVE SMOOTH",
"399 244 OFFCURVE",
"350 369 OFFCURVE",
"342 460 CURVE",
"36 329 LINE",
"68 117 OFFCURVE",
"213 -22 OFFCURVE",
"456 -22 CURVE SMOOTH"
);
}
);
width = 900;
},
{
anchors = (
{
name = bottom;
position = "{1056, -2}";
},
{
name = top;
position = "{1048, 1400}";
}
);
components = (
{
name = cedillacomb;
transform = "{1, 0, 0, 1, 27, -2}";
}
);
layerId = "16EBFD8D-F4C1-4BAA-8DD7-EBE82D779ED1";
paths = (
{
closed = 1;
nodes = (
"1457 -22 OFFCURVE",
"1989 71 OFFCURVE",
"1989 440 CURVE SMOOTH",
"1989 781 OFFCURVE",
"1541 823 OFFCURVE",
"1192 854 CURVE SMOOTH",
"885 881 OFFCURVE",
"750 915 OFFCURVE",
"750 990 CURVE SMOOTH",
"750 1070 OFFCURVE",
"932 1108 OFFCURVE",
"1144 1108 CURVE SMOOTH",
"1372 1108 OFFCURVE",
"1541 1057 OFFCURVE",
"1640 1020 CURVE",
"1929 1305 LINE",
"1785 1350 OFFCURVE",
"1475 1412 OFFCURVE",
"1186 1412 CURVE SMOOTH",
"776 1412 OFFCURVE",
"305 1317 OFFCURVE",
"305 990 CURVE SMOOTH",
"305 678 OFFCURVE",
"677 578 OFFCURVE",
"1045 549 CURVE SMOOTH",
"1395 521 OFFCURVE",
"1543 481 OFFCURVE",
"1543 400 CURVE SMOOTH",
"1543 318 OFFCURVE",
"1339 282 OFFCURVE",
"1079 282 CURVE SMOOTH",
"801 282 OFFCURVE",
"591 359 OFFCURVE",
"493 410 CURVE",
"206 121 LINE",
"363 52 OFFCURVE",
"697 -22 OFFCURVE",
"1046 -22 CURVE SMOOTH"
);
}
);
width = 2200;
}
);
leftKerningGroup = S;
rightKerningGroup = S;
unicode = 015E;
},
{
color = 6;
glyphname = Germandbls;
lastChange = "2020-09-10 12:23:18 +0000";
layers = (
{
layerId = "BE68D89F-AB3F-4BDF-B332-ED50D7C47704";
paths = (
{
closed = 1;
nodes = (
"878 -22 OFFCURVE",
"1088 120 OFFCURVE",
"1088 418 CURVE SMOOTH",
"1088 744 OFFCURVE",
"842 836 OFFCURVE",
"655 836 CURVE",
"1007 1335 LINE",
"1007 1400 LINE",
"534 1400 LINE",
"318 1400 OFFCURVE",
"210 1282 OFFCURVE",
"210 1054 CURVE SMOOTH",
"210 0 LINE",
"276 0 LINE",
"276 1042 LINE SMOOTH",
"276 1274 OFFCURVE",
"366 1334 OFFCURVE",
"534 1334 CURVE",
"926 1334 LINE",
"573 827 LINE",
"616 774 LINE",
"817 774 OFFCURVE",
"1016 718 OFFCURVE",
"1016 418 CURVE SMOOTH",
"1016 128 OFFCURVE",
"816 44 OFFCURVE",
"656 44 CURVE SMOOTH",
"522 44 OFFCURVE",
"450 66 OFFCURVE",
"414 80 CURVE",
"386 14 LINE",
"436 -4 OFFCURVE",
"518 -22 OFFCURVE",
"656 -22 CURVE SMOOTH"
);
}
);
width = 1300;
},
{
layerId = "5521DC30-183F-421A-91F3-644B5E24AFE6";
paths = (
{
closed = 1;
nodes = (
"958 -22 OFFCURVE",
"1236 83 OFFCURVE",
"1236 431 CURVE SMOOTH",
"1236 694 OFFCURVE",
"1050 796 OFFCURVE",
"911 796 CURVE",
"1166 1135 LINE",
"1166 1400 LINE",
"644 1400 LINE",
"368 1400 OFFCURVE",
"70 1284 OFFCURVE",
"70 928 CURVE SMOOTH",
"70 0 LINE",
"444 0 LINE",
"444 896 LINE SMOOTH",
"444 1045 OFFCURVE",
"520 1120 OFFCURVE",
"618 1120 CURVE",
"784 1120 LINE",
"535 774 LINE",
"693 589 LINE",
"809 589 OFFCURVE",
"888 532 OFFCURVE",
"888 433 CURVE SMOOTH",
"888 335 OFFCURVE",
"816 276 OFFCURVE",
"696 276 CURVE SMOOTH",
"648 276 OFFCURVE",
"604 280 OFFCURVE",
"562 292 CURVE",
"516 0 LINE",
"564 -14 OFFCURVE",
"636 -22 OFFCURVE",
"696 -22 CURVE SMOOTH"
);
}
);
width = 1300;
},
{
layerId = "2E286313-D5BF-4FB4-A4B7-BD9BC13B574E";
paths = (
{
closed = 1;
nodes = (
"642 -22 OFFCURVE",
"778 120 OFFCURVE",
"778 418 CURVE SMOOTH",
"778 744 OFFCURVE",
"632 836 OFFCURVE",
"445 836 CURVE",
"727 1335 LINE",
"727 1400 LINE",
"464 1400 LINE",
"248 1400 OFFCURVE",
"140 1282 OFFCURVE",
"140 1054 CURVE SMOOTH",
"140 0 LINE",
"206 0 LINE",
"206 1042 LINE SMOOTH",
"206 1274 OFFCURVE",
"296 1334 OFFCURVE",
"464 1334 CURVE",
"646 1334 LINE",
"363 827 LINE",
"406 774 LINE",
"607 774 OFFCURVE",
"706 718 OFFCURVE",
"706 418 CURVE SMOOTH",
"706 128 OFFCURVE",
"586 44 OFFCURVE",
"466 44 CURVE SMOOTH",
"382 44 OFFCURVE",
"337 63 OFFCURVE",
"304 80 CURVE",
"276 14 LINE",
"316 -6 OFFCURVE",
"378 -22 OFFCURVE",
"466 -22 CURVE SMOOTH"
);
}
);
width = 900;
},
{
layerId = "5D8A6BC1-E275-4777-AF98-AB9B3DC0EDC1";
paths = (
{
closed = 1;
nodes = (
"686 -13 OFFCURVE",
"880 88 OFFCURVE",
"880 430 CURVE SMOOTH",
"880 700 OFFCURVE",
"743 801 OFFCURVE",
"669 801 CURVE",
"850 1158 LINE",
"850 1400 LINE",
"361 1400 LINE",
"159 1400 OFFCURVE",
"42 1259 OFFCURVE",
"42 1040 CURVE SMOOTH",
"42 0 LINE",
"342 0 LINE",
"342 1001 LINE SMOOTH",
"342 1092 OFFCURVE",
"363 1144 OFFCURVE",
"451 1144 CURVE",
"552 1144 LINE",
"391 782 LINE",
"457 604 LINE",
"533 604 OFFCURVE",
"586 553 OFFCURVE",
"586 431 CURVE SMOOTH",
"586 329 OFFCURVE",
"529 250 OFFCURVE",
"459 250 CURVE SMOOTH",
"438 250 OFFCURVE",
"423 252 OFFCURVE",
"412 258 CURVE",
"376 6 LINE",
"386 0 OFFCURVE",
"439 -13 OFFCURVE",
"498 -13 CURVE SMOOTH"
);
}
);
width = 900;
},
{
layerId = "E338D14E-1DA5-418D-88BC-8956EEA80AB9";
paths = (
{
closed = 1;
nodes = (
"1391 -22 OFFCURVE",
"1786 100 OFFCURVE",
"1786 418 CURVE SMOOTH",
"1786 764 OFFCURVE",
"1306 838 OFFCURVE",
"914 838 CURVE",
"1629 1335 LINE",
"1629 1400 LINE",
"534 1400 LINE",
"318 1400 OFFCURVE",
"205 1282 OFFCURVE",
"205 1054 CURVE SMOOTH",
"205 0 LINE",
"276 0 LINE",
"276 1042 LINE SMOOTH",
"276 1274 OFFCURVE",
"366 1334 OFFCURVE",
"534 1334 CURVE",
"1508 1334 LINE",
"801 842 LINE",
"854 774 LINE",
"1260 774 OFFCURVE",
"1704 718 OFFCURVE",
"1704 418 CURVE SMOOTH",
"1704 128 OFFCURVE",
"1329 44 OFFCURVE",
"964 44 CURVE SMOOTH",
"693 44 OFFCURVE",
"538 98 OFFCURVE",
"502 112 CURVE",
"472 44 LINE",
"522 26 OFFCURVE",
"689 -22 OFFCURVE",
"964 -22 CURVE SMOOTH"
);
}
);
width = 2200;
},
{
layerId = "16EBFD8D-F4C1-4BAA-8DD7-EBE82D779ED1";
paths = (
{
closed = 1;
nodes = (
"1584 -44 OFFCURVE",
"1937 104 OFFCURVE",
"1937 432 CURVE SMOOTH",
"1937 708 OFFCURVE",
"1641 814 OFFCURVE",
"1355 814 CURVE",
"1782 1113 LINE",
"1782 1400 LINE",
"806 1400 LINE",
"390 1400 OFFCURVE",
"144 1203 OFFCURVE",
"144 789 CURVE SMOOTH",
"144 0 LINE",
"556 0 LINE",
"556 722 LINE SMOOTH",
"556 976 OFFCURVE",
"721 1096 OFFCURVE",
"915 1096 CURVE",
"1199 1096 LINE",
"838 829 LINE",
"1081 582 LINE",
"1286 582 OFFCURVE",
"1512 548 OFFCURVE",
"1512 436 CURVE SMOOTH",
"1512 315 OFFCURVE",
"1386 291 OFFCURVE",
"1169 291 CURVE SMOOTH",
"1102 291 OFFCURVE",
"965 300 OFFCURVE",
"892 323 CURVE",
"753 -5 LINE",
"894 -41 OFFCURVE",
"1109 -44 OFFCURVE",
"1180 -44 CURVE SMOOTH"
);
}
);
width = 2200;
}
);
leftKerningGroup = H;
rightKerningGroup = S;
unicode = 1E9E;
},
{
color = 6;
glyphname = Schwa;
lastChange = "2020-09-10 12:23:18 +0000";
layers = (
{
anchors = (
{
name = bottom;
position = "{432, 400}";
},
{
name = ogonek;
position = "{418, 1400}";
},
{
name = top;
position = "{412, 1400}";
}
);
layerId = "2E286313-D5BF-4FB4-A4B7-BD9BC13B574E";
paths = (
{
closed = 1;
nodes = (
"594 -25 OFFCURVE",
"714 199 OFFCURVE",
"714 715 CURVE SMOOTH",
"714 1227 OFFCURVE",
"592 1412 OFFCURVE",
"424 1412 CURVE SMOOTH",
"260 1412 OFFCURVE",
"184 1248 OFFCURVE",
"164 1196 CURVE",
"226 1162 LINE",
"240 1210 OFFCURVE",
"284 1346 OFFCURVE",
"424 1346 CURVE SMOOTH",
"562 1346 OFFCURVE",
"646 1175 OFFCURVE",
"646 715 CURVE SMOOTH",
"646 251 OFFCURVE",
"552 41 OFFCURVE",
"422 41 CURVE SMOOTH",
"275 41 OFFCURVE",
"217 310 OFFCURVE",
"217 659 CURVE SMOOTH",
"217 665 OFFCURVE",
"217 672 OFFCURVE",
"217 675 CURVE",
"672 675 LINE",
"672 739 LINE",
"152 739 LINE",
"151 715 OFFCURVE",
"150 686 OFFCURVE",
"150 660 CURVE SMOOTH",
"150 247 OFFCURVE",
"244 -25 OFFCURVE",
"418 -25 CURVE SMOOTH"
);
}
);
width = 900;
},
{
anchors = (
{
name = bottom;
position = "{435, 400}";
},
{
name = ogonek;
position = "{423, 1382}";
},
{
name = top;
position = "{406, 1400}";
}
);
layerId = "5D8A6BC1-E275-4777-AF98-AB9B3DC0EDC1";
paths = (
{
closed = 1;
nodes = (
"683 -22 OFFCURVE",
"830 182 OFFCURVE",
"830 699 CURVE SMOOTH",
"830 1216 OFFCURVE",
"665 1413 OFFCURVE",
"430 1413 CURVE SMOOTH",
"223 1413 OFFCURVE",
"124 1293 OFFCURVE",
"90 1200 CURVE",
"347 1060 LINE",
"356 1096 OFFCURVE",
"382 1168 OFFCURVE",
"424 1168 CURVE SMOOTH",
"475 1168 OFFCURVE",
"501 1080 OFFCURVE",
"501 703 CURVE SMOOTH",
"501 315 OFFCURVE",
"481 221 OFFCURVE",
"426 221 CURVE SMOOTH",
"374 221 OFFCURVE",
"358 325 OFFCURVE",
"358 592 CURVE SMOOTH",
"358 596 OFFCURVE",
"358 599 OFFCURVE",
"358 602 CURVE",
"569 602 LINE",
"569 814 LINE",
"68 814 LINE",
"63 793 OFFCURVE",
"58 728 OFFCURVE",
"58 638 CURVE SMOOTH",
"58 160 OFFCURVE",
"216 -22 OFFCURVE",
"425 -22 CURVE SMOOTH"
);
}
);
width = 900;
},
{
anchors = (
{
name = bottom;
position = "{604, 400}";
},
{
name = ogonek;
position = "{584, 1400}";
},
{
name = top;
position = "{604, 1400}";
}
);
layerId = "BE68D89F-AB3F-4BDF-B332-ED50D7C47704";
paths = (
{
closed = 1;
nodes = (
"840 -24 OFFCURVE",
"1074 131 OFFCURVE",
"1074 697 CURVE SMOOTH",
"1074 1259 OFFCURVE",
"845 1412 OFFCURVE",
"620 1412 CURVE SMOOTH",
"382 1412 OFFCURVE",
"250 1258 OFFCURVE",
"214 1176 CURVE",
"284 1138 LINE",
"312 1216 OFFCURVE",
"414 1346 OFFCURVE",
"620 1346 CURVE SMOOTH",
"833 1346 OFFCURVE",
"1000 1187 OFFCURVE",
"1000 697 CURVE SMOOTH",
"1000 183 OFFCURVE",
"812 42 OFFCURVE",
"622 42 CURVE SMOOTH",
"408 42 OFFCURVE",
"275 227 OFFCURVE",
"275 642 CURVE SMOOTH",
"275 654 OFFCURVE",
"275 655 OFFCURVE",
"275 667 CURVE",
"1036 667 LINE",
"1036 731 LINE",
"201 731 LINE",
"199 714 OFFCURVE",
"198 684 OFFCURVE",
"198 666 CURVE SMOOTH",
"198 190 OFFCURVE",
"368 -24 OFFCURVE",
"620 -24 CURVE SMOOTH"
);
}
);
width = 1300;
},
{
anchors = (
{
name = bottom;
position = "{608, 400}";
},
{
name = ogonek;
position = "{588, 1380}";
},
{
name = top;
position = "{586, 1400}";
}
);
layerId = "5521DC30-183F-421A-91F3-644B5E24AFE6";
paths = (
{
closed = 1;
nodes = (
"930 -26 OFFCURVE",
"1150 164 OFFCURVE",
"1150 696 CURVE SMOOTH",
"1150 1230 OFFCURVE",
"918 1412 OFFCURVE",
"626 1412 CURVE SMOOTH",
"404 1412 OFFCURVE",
"232 1326 OFFCURVE",
"144 1180 CURVE",
"436 1030 LINE",
"458 1088 OFFCURVE",
"522 1146 OFFCURVE",
"612 1144 CURVE SMOOTH",
"738 1141 OFFCURVE",
"792 1062 OFFCURVE",
"792 702 CURVE SMOOTH",
"792 326 OFFCURVE",
"734 240 OFFCURVE",
"614 240 CURVE SMOOTH",
"516 240 OFFCURVE",
"454 302 OFFCURVE",
"454 580 CURVE SMOOTH",
"454 581 OFFCURVE",
"454 583 OFFCURVE",
"454 584 CURVE",
"868 584 LINE",
"868 816 LINE",
"118 816 LINE",
"113 775 OFFCURVE",
"110 717 OFFCURVE",
"110 681 CURVE SMOOTH",
"110 136 OFFCURVE",
"335 -26 OFFCURVE",
"626 -26 CURVE SMOOTH"
);
}
);
width = 1300;
},
{
anchors = (
{
name = bottom;
position = "{1058, 400}";
},
{
name = ogonek;
position = "{1024, 1400}";
},
{
name = top;
position = "{1058, 1400}";
}
);
layerId = "E338D14E-1DA5-418D-88BC-8956EEA80AB9";
paths = (
{
closed = 1;
nodes = (
"1460 -20 OFFCURVE",
"1874 148 OFFCURVE",
"1874 692 CURVE SMOOTH",
"1874 1234 OFFCURVE",
"1482 1412 OFFCURVE",
"1066 1412 CURVE SMOOTH",
"704 1412 OFFCURVE",
"422 1260 OFFCURVE",
"342 1156 CURVE",
"404 1102 LINE",
"470 1202 OFFCURVE",
"720 1346 OFFCURVE",
"1066 1346 CURVE SMOOTH",
"1480 1346 OFFCURVE",
"1798 1170 OFFCURVE",
"1798 700 CURVE SMOOTH",
"1798 186 OFFCURVE",
"1428 46 OFFCURVE",
"1062 46 CURVE SMOOTH",
"707 46 OFFCURVE",
"378 235 OFFCURVE",
"378 662 CURVE SMOOTH",
"378 665 OFFCURVE",
"378 667 OFFCURVE",
"378 670 CURVE",
"1810 670 LINE",
"1810 734 LINE",
"296 734 LINE",
"295 724 OFFCURVE",
"295 703 OFFCURVE",
"295 693 CURVE SMOOTH",
"295 194 OFFCURVE",
"667 -20 OFFCURVE",
"1062 -20 CURVE SMOOTH"
);
}
);
width = 2200;
},
{
anchors = (
{
name = bottom;
position = "{1006, 400}";
},
{
name = ogonek;
position = "{969, 1378}";
},
{
name = top;
position = "{999, 1400}";
}
);
layerId = "16EBFD8D-F4C1-4BAA-8DD7-EBE82D779ED1";
paths = (
{
closed = 1;
nodes = (
"1449 -28 OFFCURVE",
"1942 125 OFFCURVE",
"1942 686 CURVE SMOOTH",
"1942 1255 OFFCURVE",
"1416 1412 OFFCURVE",
"1054 1412 CURVE SMOOTH",
"822 1412 OFFCURVE",
"485 1360 OFFCURVE",
"282 1184 CURVE",
"633 987 LINE",
"680 1048 OFFCURVE",
"855 1121 OFFCURVE",
"1053 1121 CURVE SMOOTH",
"1337 1121 OFFCURVE",
"1551 1031 OFFCURVE",
"1551 697 CURVE SMOOTH",
"1551 336 OFFCURVE",
"1322 261 OFFCURVE",
"1065 261 CURVE SMOOTH",
"846 261 OFFCURVE",
"651 328 OFFCURVE",
"651 538 CURVE SMOOTH",
"651 541 OFFCURVE",
"651 544 OFFCURVE",
"651 547 CURVE",
"1619 547 LINE",
"1619 802 LINE",
"248 802 LINE",
"247 783 OFFCURVE",
"246 703 OFFCURVE",
"246 681 CURVE SMOOTH",
"246 125 OFFCURVE",
"648 -28 OFFCURVE",
"1054 -28 CURVE SMOOTH"
);
}
);
width = 2200;
}
);
leftKerningGroup = O;
rightKerningGroup = O;
unicode = 018F;
},
{
color = 6;
glyphname = T;
lastChange = "2020-09-10 12:23:18 +0000";
layers = (
{
anchors = (
{
name = bottom;
position = "{652, 0}";
},
{
name = center;
position = "{652, 700}";
},
{
name = top;
position = "{652, 1400}";
}
);
layerId = "5521DC30-183F-421A-91F3-644B5E24AFE6";
paths = (
{
closed = 1;
nodes = (
"836 0 LINE",
"836 1130 LINE",
"1194 1130 LINE",
"1194 1400 LINE",
"106 1400 LINE",
"106 1130 LINE",
"462 1130 LINE",
"462 0 LINE"
);
}
);
width = 1300;
},
{
anchors = (
{
name = bottom;
position = "{649, 0}";
},
{
name = center;
position = "{652, 700}";
},
{
name = top;
position = "{652, 1400}";
}
);
layerId = "BE68D89F-AB3F-4BDF-B332-ED50D7C47704";
paths = (
{
closed = 1;
nodes = (
"682 0 LINE",
"682 1336 LINE",
"1130 1336 LINE",
"1130 1400 LINE",
"168 1400 LINE",
"168 1336 LINE",
"616 1336 LINE",
"616 0 LINE"
);
}
);
width = 1300;
},
{
anchors = (
{
name = bottom;
position = "{451, 0}";
},
{
name = center;
position = "{454, 700}";
},
{
name = top;
position = "{454, 1400}";
}
);
layerId = "2E286313-D5BF-4FB4-A4B7-BD9BC13B574E";
paths = (
{
closed = 1;
nodes = (
"484 0 LINE",
"484 1336 LINE",
"774 1336 LINE",
"774 1400 LINE",
"128 1400 LINE",
"128 1336 LINE",
"418 1336 LINE",
"418 0 LINE"
);
}
);
width = 900;
},
{
anchors = (
{
name = bottom;
position = "{1075, 0}";
},
{
name = center;
position = "{1080, 700}";
},
{
name = top;
position = "{1080, 1400}";
}
);
layerId = "E338D14E-1DA5-418D-88BC-8956EEA80AB9";
paths = (
{
closed = 1;
nodes = (
"1114 0 LINE",
"1114 1336 LINE",
"1934 1336 LINE",
"1934 1400 LINE",
"218 1400 LINE",
"218 1336 LINE",
"1038 1336 LINE",
"1038 0 LINE"
);
}
);
width = 2200;
},
{
anchors = (
{
name = bottom;
position = "{448, 0}";
},
{
name = center;
position = "{452, 700}";
},
{
name = top;
position = "{452, 1400}";
}
);
layerId = "5D8A6BC1-E275-4777-AF98-AB9B3DC0EDC1";
paths = (
{
closed = 1;
nodes = (
"619 0 LINE",
"619 1130 LINE",
"854 1130 LINE",
"854 1400 LINE",
"44 1400 LINE",
"44 1130 LINE",
"279 1130 LINE",
"279 0 LINE"
);
}
);
width = 900;
},
{
anchors = (
{
name = bottom;
position = "{1080, 0}";
},
{
name = center;
position = "{1080, 700}";
},
{
name = top;
position = "{1080, 1400}";
}
);
layerId = "16EBFD8D-F4C1-4BAA-8DD7-EBE82D779ED1";
paths = (
{
closed = 1;
nodes = (
"1279 0 LINE",
"1279 1110 LINE",
"1942 1110 LINE",
"1942 1400 LINE",
"218 1400 LINE",
"218 1110 LINE",
"875 1110 LINE",
"875 0 LINE"
);
}
);
width = 2200;
}
);
leftKerningGroup = T;
rightKerningGroup = T;
unicode = 0054;
},
{
color = 3;
glyphname = Tbar;
lastChange = "2020-09-10 12:23:29 +0000";
layers = (
{
components = (
{
name = T;
}
);
layerId = "5521DC30-183F-421A-91F3-644B5E24AFE6";
paths = (
{
closed = 1;
nodes = (
"1053 580 LINE",
"1053 820 LINE",
"252 820 LINE",
"252 580 LINE"
);
}
);
width = 1300;
},
{
components = (
{
name = T;
}
);
layerId = "BE68D89F-AB3F-4BDF-B332-ED50D7C47704";
paths = (
{
closed = 1;
nodes = (
"994 668 LINE",
"994 732 LINE",
"311 732 LINE",
"311 668 LINE"
);
}
);
width = 1300;
},
{
components = (
{
name = T;
}
);
layerId = "2E286313-D5BF-4FB4-A4B7-BD9BC13B574E";
paths = (
{
closed = 1;
nodes = (
"749 668 LINE",
"749 732 LINE",
"158 732 LINE",
"158 668 LINE"
);
}
);
width = 900;
},
{
components = (
{
name = T;
}
);
layerId = "E338D14E-1DA5-418D-88BC-8956EEA80AB9";
paths = (
{
closed = 1;
nodes = (
"1490 668 LINE",
"1490 732 LINE",
"670 732 LINE",
"670 668 LINE"
);
}
);
width = 2200;
},
{
components = (
{
name = T;
}
);
layerId = "5D8A6BC1-E275-4777-AF98-AB9B3DC0EDC1";
paths = (
{
closed = 1;
nodes = (
"812 580 LINE",
"812 820 LINE",
"90 820 LINE",
"90 580 LINE"
);
}
);
width = 900;
},
{
components = (
{
name = T;
}
);
layerId = "16EBFD8D-F4C1-4BAA-8DD7-EBE82D779ED1";
paths = (
{
closed = 1;
nodes = (
"1563 580 LINE",
"1563 820 LINE",
"601 820 LINE",
"601 580 LINE"
);
}
);
width = 2200;
}
);
leftKerningGroup = T;
rightKerningGroup = T;
unicode = 0166;
},
{
color = 6;
glyphname = U;
lastChange = "2020-09-10 13:26:20 +0000";
layers = (
{
anchors = (
{
name = bottom;
position = "{650, 0}";
},
{
name = ogonek;
position = "{938, 37}";
},
{
name = top;
position = "{650, 1400}";
},
{
name = topright;
position = "{1026, 1400}";
}
);
layerId = "5521DC30-183F-421A-91F3-644B5E24AFE6";
paths = (
{
closed = 1;
nodes = (
"944 -22 OFFCURVE",
"1196 108 OFFCURVE",
"1196 512 CURVE SMOOTH",
"1196 1400 LINE",
"822 1400 LINE",
"822 528 LINE SMOOTH",
"822 326 OFFCURVE",
"764 262 OFFCURVE",
"652 262 CURVE SMOOTH",
"540 262 OFFCURVE",
"480 326 OFFCURVE",
"480 528 CURVE SMOOTH",
"480 1400 LINE",
"106 1400 LINE",
"106 512 LINE SMOOTH",
"106 108 OFFCURVE",
"362 -22 OFFCURVE",
"652 -22 CURVE SMOOTH"
);
}
);
width = 1300;
},
{
anchors = (
{
name = bottom;
position = "{650, 0}";
},
{
name = ogonek;
position = "{878, 37}";
},
{
name = top;
position = "{650, 1400}";
},
{
name = topright;
position = "{1070, 1400}";
}
);
layerId = "BE68D89F-AB3F-4BDF-B332-ED50D7C47704";
paths = (
{
closed = 1;
nodes = (
"906 -22 OFFCURVE",
"1100 154 OFFCURVE",
"1100 568 CURVE SMOOTH",
"1100 1400 LINE",
"1034 1400 LINE",
"1034 572 LINE SMOOTH",
"1034 222 OFFCURVE",
"888 44 OFFCURVE",
"652 44 CURVE SMOOTH",
"418 44 OFFCURVE",
"268 222 OFFCURVE",
"268 572 CURVE SMOOTH",
"268 1400 LINE",
"202 1400 LINE",
"202 568 LINE SMOOTH",
"202 154 OFFCURVE",
"400 -22 OFFCURVE",
"652 -22 CURVE SMOOTH"
);
}
);
width = 1300;
},
{
anchors = (
{
name = bottom;
position = "{450, 0}";
},
{
name = ogonek;
position = "{614, 37}";
},
{
name = top;
position = "{450, 1400}";
},
{
name = topright;
position = "{710, 1400}";
}
);
layerId = "2E286313-D5BF-4FB4-A4B7-BD9BC13B574E";
paths = (
{
closed = 1;
nodes = (
"602 -22 OFFCURVE",
"740 84 OFFCURVE",
"740 412 CURVE SMOOTH",
"740 1400 LINE",
"674 1400 LINE",
"674 416 LINE SMOOTH",
"674 114 OFFCURVE",
"564 44 OFFCURVE",
"450 44 CURVE SMOOTH",
"336 44 OFFCURVE",
"228 114 OFFCURVE",
"228 416 CURVE SMOOTH",
"228 1400 LINE",
"162 1400 LINE",
"162 412 LINE SMOOTH",
"162 84 OFFCURVE",
"298 -22 OFFCURVE",
"450 -22 CURVE SMOOTH"
);
}
);
width = 900;
},
{
anchors = (
{
name = bottom;
position = "{1096, 0}";
},
{
name = ogonek;
position = "{1497, 37}";
},
{
name = top;
position = "{1096, 1400}";
},
{
name = topright;
position = "{1845, 1400}";
}
);
layerId = "E338D14E-1DA5-418D-88BC-8956EEA80AB9";
paths = (
{
closed = 1;
nodes = (
"1540 -22 OFFCURVE",
"1880 144 OFFCURVE",
"1880 598 CURVE SMOOTH",
"1880 1400 LINE",
"1804 1400 LINE",
"1804 572 LINE SMOOTH",
"1804 208 OFFCURVE",
"1512 44 OFFCURVE",
"1100 44 CURVE SMOOTH",
"690 44 OFFCURVE",
"392 208 OFFCURVE",
"392 572 CURVE SMOOTH",
"392 1400 LINE",
"316 1400 LINE",
"316 598 LINE SMOOTH",
"316 144 OFFCURVE",
"664 -22 OFFCURVE",
"1100 -22 CURVE SMOOTH"
);
}
);
width = 2200;
},
{
anchors = (
{
name = bottom;
position = "{450, 0}";
},
{
name = ogonek;
position = "{672, 37}";
},
{
name = top;
position = "{450, 1400}";
},
{
name = topright;
position = "{661, 1400}";
}
);
layerId = "5D8A6BC1-E275-4777-AF98-AB9B3DC0EDC1";
paths = (
{
closed = 1;
nodes = (
"682 -22 OFFCURVE",
"834 109 OFFCURVE",
"834 430 CURVE SMOOTH",
"834 1400 LINE",
"497 1400 LINE",
"497 415 LINE SMOOTH",
"497 302 OFFCURVE",
"488 247 OFFCURVE",
"450 247 CURVE SMOOTH",
"413 247 OFFCURVE",
"405 302 OFFCURVE",
"405 415 CURVE SMOOTH",
"405 1400 LINE",
"67 1400 LINE",
"67 430 LINE SMOOTH",
"67 109 OFFCURVE",
"217 -22 OFFCURVE",
"450 -22 CURVE SMOOTH"
);
}
);
width = 900;
},
{
anchors = (
{
name = bottom;
position = "{1107, 0}";
},
{
name = ogonek;
position = "{1504, 37}";
},
{
name = top;
position = "{1107, 1400}";
},
{
name = topright;
position = "{1792, 1400}";
}
);
layerId = "16EBFD8D-F4C1-4BAA-8DD7-EBE82D779ED1";
paths = (
{
closed = 1;
nodes = (
"1560 -22 OFFCURVE",
"2000 124 OFFCURVE",
"2000 614 CURVE SMOOTH",
"2000 1400 LINE",
"1588 1400 LINE",
"1588 628 LINE SMOOTH",
"1588 359 OFFCURVE",
"1409 287 OFFCURVE",
"1113 287 CURVE SMOOTH",
"817 287 OFFCURVE",
"628 359 OFFCURVE",
"628 628 CURVE SMOOTH",
"628 1400 LINE",
"216 1400 LINE",
"216 614 LINE SMOOTH",
"216 124 OFFCURVE",
"673 -22 OFFCURVE",
"1113 -22 CURVE SMOOTH"
);
}
);
width = 2200;
}
);
leftKerningGroup = U;
rightKerningGroup = U;
unicode = 0055;
},
{
color = 3;
glyphname = Uhorn;
lastChange = "2020-09-10 12:23:29 +0000";
layers = (
{
anchors = (
{
name = bottom;
position = "{450, 0}";
},
{
name = top;
position = "{450, 1400}";
}
);
components = (
{
name = horncomb.case;
transform = "{1, 0, 0, 1, 451, 0}";
}
);
layerId = "2E286313-D5BF-4FB4-A4B7-BD9BC13B574E";
paths = (
{
closed = 1;
nodes = (
"602 -22 OFFCURVE",
"730 84 OFFCURVE",
"730 412 CURVE SMOOTH",
"730 1400 LINE",
"664 1400 LINE",
"664 416 LINE SMOOTH",
"664 114 OFFCURVE",
"564 44 OFFCURVE",
"450 44 CURVE SMOOTH",
"336 44 OFFCURVE",
"238 114 OFFCURVE",
"238 416 CURVE SMOOTH",
"238 1400 LINE",
"172 1400 LINE",
"172 412 LINE SMOOTH",
"172 84 OFFCURVE",
"298 -22 OFFCURVE",
"450 -22 CURVE SMOOTH"
);
}
);
width = 900;
},
{
anchors = (
{
name = bottom;
position = "{450, 0}";
},
{
name = top;
position = "{450, 1400}";
}
);
components = (
{
name = horncomb.case;
transform = "{1, 0, 0, 1, 457, 0}";
}
);
layerId = "5D8A6BC1-E275-4777-AF98-AB9B3DC0EDC1";
paths = (
{
closed = 1;
nodes = (
"682 -22 OFFCURVE",
"834 109 OFFCURVE",
"834 430 CURVE SMOOTH",
"834 1400 LINE",
"497 1400 LINE",
"497 415 LINE SMOOTH",
"497 302 OFFCURVE",
"488 247 OFFCURVE",
"450 247 CURVE SMOOTH",
"413 247 OFFCURVE",
"405 302 OFFCURVE",
"405 415 CURVE SMOOTH",
"405 1400 LINE",
"67 1400 LINE",
"67 430 LINE SMOOTH",
"67 109 OFFCURVE",
"217 -22 OFFCURVE",
"450 -22 CURVE SMOOTH"
);
}
);
width = 900;
},
{
anchors = (
{
name = bottom;
position = "{650, 0}";
},
{
name = top;
position = "{650, 1400}";
}
);
components = (
{
name = horncomb.case;
transform = "{1, 0, 0, 1, 834, 0}";
}
);
layerId = "BE68D89F-AB3F-4BDF-B332-ED50D7C47704";
paths = (
{
closed = 1;
nodes = (
"906 -22 OFFCURVE",
"1100 154 OFFCURVE",
"1100 568 CURVE SMOOTH",
"1100 1400 LINE",
"1034 1400 LINE",
"1034 572 LINE SMOOTH",
"1034 222 OFFCURVE",
"888 44 OFFCURVE",
"652 44 CURVE SMOOTH",
"418 44 OFFCURVE",
"268 222 OFFCURVE",
"268 572 CURVE SMOOTH",
"268 1400 LINE",
"202 1400 LINE",
"202 568 LINE SMOOTH",
"202 154 OFFCURVE",
"400 -22 OFFCURVE",
"652 -22 CURVE SMOOTH"
);
}
);
width = 1300;
},
{
anchors = (
{
name = bottom;
position = "{650, 0}";
},
{
name = top;
position = "{650, 1400}";
}
);
components = (
{
name = horncomb.case;
transform = "{1, 0, 0, 1, 871, 0}";
}
);
layerId = "5521DC30-183F-421A-91F3-644B5E24AFE6";
paths = (
{
closed = 1;
nodes = (
"944 -22 OFFCURVE",
"1196 108 OFFCURVE",
"1196 512 CURVE SMOOTH",
"1196 1400 LINE",
"822 1400 LINE",
"822 528 LINE SMOOTH",
"822 326 OFFCURVE",
"764 262 OFFCURVE",
"652 262 CURVE SMOOTH",
"540 262 OFFCURVE",
"480 326 OFFCURVE",
"480 528 CURVE SMOOTH",
"480 1400 LINE",
"106 1400 LINE",
"106 512 LINE SMOOTH",
"106 108 OFFCURVE",
"362 -22 OFFCURVE",
"652 -22 CURVE SMOOTH"
);
}
);
width = 1300;
},
{
anchors = (
{
name = bottom;
position = "{1100, 0}";
},
{
name = top;
position = "{1100, 1400}";
}
);
components = (
{
name = horncomb.case;
transform = "{1, 0, 0, 1, 1572, 0}";
}
);
layerId = "E338D14E-1DA5-418D-88BC-8956EEA80AB9";
paths = (
{
closed = 1;
nodes = (
"1540 -22 OFFCURVE",
"1880 144 OFFCURVE",
"1880 598 CURVE SMOOTH",
"1880 1400 LINE",
"1804 1400 LINE",
"1804 572 LINE SMOOTH",
"1804 208 OFFCURVE",
"1512 44 OFFCURVE",
"1100 44 CURVE SMOOTH",
"690 44 OFFCURVE",
"392 208 OFFCURVE",
"392 572 CURVE SMOOTH",
"392 1400 LINE",
"316 1400 LINE",
"316 598 LINE SMOOTH",
"316 144 OFFCURVE",
"664 -22 OFFCURVE",
"1100 -22 CURVE SMOOTH"
);
}
);
width = 2200;
},
{
anchors = (
{
name = bottom;
position = "{1100, 0}";
},
{
name = top;
position = "{1100, 1400}";
}
);
components = (
{
name = horncomb.case;
transform = "{1, 0, 0, 1, 1614, 0}";
}
);
layerId = "16EBFD8D-F4C1-4BAA-8DD7-EBE82D779ED1";
paths = (
{
closed = 1;
nodes = (
"1560 -22 OFFCURVE",
"2000 124 OFFCURVE",
"2000 614 CURVE SMOOTH",
"2000 1400 LINE",
"1588 1400 LINE",
"1588 628 LINE SMOOTH",
"1588 359 OFFCURVE",
"1409 287 OFFCURVE",
"1113 287 CURVE SMOOTH",
"817 287 OFFCURVE",
"628 359 OFFCURVE",
"628 628 CURVE SMOOTH",
"628 1400 LINE",
"216 1400 LINE",
"216 614 LINE SMOOTH",
"216 124 OFFCURVE",
"673 -22 OFFCURVE",
"1113 -22 CURVE SMOOTH"
);
}
);
width = 2200;
}
);
leftKerningGroup = U;
rightKerningGroup = U;
unicode = 01AF;
},
{
color = 3;
glyphname = Uogonek;
lastChange = "2020-09-10 12:23:29 +0000";
layers = (
{
anchors = (
{
name = bottom;
position = "{650, 0}";
},
{
name = top;
position = "{650, 1400}";
},
{
name = topright;
position = "{1026, 1400}";
}
);
components = (
{
name = ogonekcomb;
transform = "{1, 0, 0, 1, 270, 72}";
}
);
layerId = "5521DC30-183F-421A-91F3-644B5E24AFE6";
paths = (
{
closed = 1;
nodes = (
"944 -22 OFFCURVE",
"1196 108 OFFCURVE",
"1196 512 CURVE SMOOTH",
"1196 1400 LINE",
"822 1400 LINE",
"822 528 LINE SMOOTH",
"822 326 OFFCURVE",
"764 262 OFFCURVE",
"652 262 CURVE SMOOTH",
"540 262 OFFCURVE",
"480 326 OFFCURVE",
"480 528 CURVE SMOOTH",
"480 1400 LINE",
"106 1400 LINE",
"106 512 LINE SMOOTH",
"106 108 OFFCURVE",
"362 -22 OFFCURVE",
"652 -22 CURVE SMOOTH"
);
}
);
width = 1300;
},
{
anchors = (
{
name = bottom;
position = "{650, 0}";
},
{
name = top;
position = "{650, 1400}";
},
{
name = topright;
position = "{1070, 1400}";
}
);
components = (
{
name = ogonekcomb;
transform = "{1, 0, 0, 1, 292, 72}";
}
);
layerId = "BE68D89F-AB3F-4BDF-B332-ED50D7C47704";
paths = (
{
closed = 1;
nodes = (
"906 -22 OFFCURVE",
"1100 154 OFFCURVE",
"1100 568 CURVE SMOOTH",
"1100 1400 LINE",
"1034 1400 LINE",
"1034 572 LINE SMOOTH",
"1034 222 OFFCURVE",
"888 44 OFFCURVE",
"652 44 CURVE SMOOTH",
"418 44 OFFCURVE",
"268 222 OFFCURVE",
"268 572 CURVE SMOOTH",
"268 1400 LINE",
"202 1400 LINE",
"202 568 LINE SMOOTH",
"202 154 OFFCURVE",
"400 -22 OFFCURVE",
"652 -22 CURVE SMOOTH"
);
}
);
width = 1300;
},
{
anchors = (
{
name = bottom;
position = "{450, 0}";
},
{
name = top;
position = "{450, 1400}";
},
{
name = topright;
position = "{710, 1400}";
}
);
components = (
{
name = ogonekcomb;
transform = "{1, 0, 0, 1, 95, 60}";
}
);
layerId = "2E286313-D5BF-4FB4-A4B7-BD9BC13B574E";
paths = (
{
closed = 1;
nodes = (
"602 -22 OFFCURVE",
"740 84 OFFCURVE",
"740 412 CURVE SMOOTH",
"740 1400 LINE",
"674 1400 LINE",
"674 416 LINE SMOOTH",
"674 114 OFFCURVE",
"564 44 OFFCURVE",
"450 44 CURVE SMOOTH",
"336 44 OFFCURVE",
"228 114 OFFCURVE",
"228 416 CURVE SMOOTH",
"228 1400 LINE",
"162 1400 LINE",
"162 412 LINE SMOOTH",
"162 84 OFFCURVE",
"298 -22 OFFCURVE",
"450 -22 CURVE SMOOTH"
);
}
);
width = 900;
},
{
anchors = (
{
name = bottom;
position = "{1096, 0}";
},
{
name = top;
position = "{1096, 1400}";
},
{
name = topright;
position = "{1845, 1400}";
}
);
components = (
{
name = ogonekcomb;
transform = "{1, 0, 0, 1, 476, 79}";
}
);
layerId = "E338D14E-1DA5-418D-88BC-8956EEA80AB9";
paths = (
{
closed = 1;
nodes = (
"1540 -22 OFFCURVE",
"1880 144 OFFCURVE",
"1880 598 CURVE SMOOTH",
"1880 1400 LINE",
"1804 1400 LINE",
"1804 572 LINE SMOOTH",
"1804 208 OFFCURVE",
"1512 44 OFFCURVE",
"1100 44 CURVE SMOOTH",
"690 44 OFFCURVE",
"392 208 OFFCURVE",
"392 572 CURVE SMOOTH",
"392 1400 LINE",
"316 1400 LINE",
"316 598 LINE SMOOTH",
"316 144 OFFCURVE",
"664 -22 OFFCURVE",
"1100 -22 CURVE SMOOTH"
);
}
);
width = 2200;
},
{
anchors = (
{
name = bottom;
position = "{450, 0}";
},
{
name = top;
position = "{450, 1400}";
},
{
name = topright;
position = "{661, 1400}";
}
);
components = (
{
name = ogonekcomb;
transform = "{1, 0, 0, 1, 95, 89}";
}
);
layerId = "5D8A6BC1-E275-4777-AF98-AB9B3DC0EDC1";
paths = (
{
closed = 1;
nodes = (
"682 -22 OFFCURVE",
"834 109 OFFCURVE",
"834 430 CURVE SMOOTH",
"834 1400 LINE",
"497 1400 LINE",
"497 415 LINE SMOOTH",
"497 302 OFFCURVE",
"488 247 OFFCURVE",
"450 247 CURVE SMOOTH",
"413 247 OFFCURVE",
"405 302 OFFCURVE",
"405 415 CURVE SMOOTH",
"405 1400 LINE",
"67 1400 LINE",
"67 430 LINE SMOOTH",
"67 109 OFFCURVE",
"217 -22 OFFCURVE",
"450 -22 CURVE SMOOTH"
);
}
);
width = 900;
},
{
anchors = (
{
name = bottom;
position = "{1107, 0}";
},
{
name = top;
position = "{1107, 1400}";
},
{
name = topright;
position = "{1792, 1400}";
}
);
components = (
{
name = ogonekcomb;
transform = "{1, 0, 0, 1, 438, 65}";
}
);
layerId = "16EBFD8D-F4C1-4BAA-8DD7-EBE82D779ED1";
paths = (
{
closed = 1;
nodes = (
"1560 -22 OFFCURVE",
"2000 124 OFFCURVE",
"2000 614 CURVE SMOOTH",
"2000 1400 LINE",
"1588 1400 LINE",
"1588 628 LINE SMOOTH",
"1588 359 OFFCURVE",
"1409 287 OFFCURVE",
"1113 287 CURVE SMOOTH",
"817 287 OFFCURVE",
"628 359 OFFCURVE",
"628 628 CURVE SMOOTH",
"628 1400 LINE",
"216 1400 LINE",
"216 614 LINE SMOOTH",
"216 124 OFFCURVE",
"673 -22 OFFCURVE",
"1113 -22 CURVE SMOOTH"
);
}
);
width = 2200;
}
);
leftKerningGroup = U;
rightKerningGroup = U;
unicode = 0172;
},
{
color = 6;
glyphname = V;
lastChange = "2020-09-10 12:23:18 +0000";
layers = (
{
anchors = (
{
name = bottom;
position = "{636, 0}";
},
{
name = top;
position = "{636, 1400}";
}
);
layerId = "5521DC30-183F-421A-91F3-644B5E24AFE6";
paths = (
{
closed = 1;
nodes = (
"942 0 LINE",
"1256 1400 LINE",
"876 1400 LINE",
"652 270 LINE",
"638 270 LINE",
"412 1400 LINE",
"34 1400 LINE",
"346 0 LINE"
);
}
);
width = 1300;
},
{
anchors = (
{
name = bottom;
position = "{624, 0}";
},
{
name = top;
position = "{624, 1400}";
}
);
layerId = "BE68D89F-AB3F-4BDF-B332-ED50D7C47704";
paths = (
{
closed = 1;
nodes = (
"684 0 LINE",
"1083 1400 LINE",
"1009 1400 LINE",
"628 64 LINE",
"624 64 LINE",
"243 1400 LINE",
"169 1400 LINE",
"568 0 LINE"
);
}
);
width = 1300;
},
{
anchors = (
{
name = bottom;
position = "{434, 0}";
},
{
name = top;
position = "{434, 1400}";
}
);
layerId = "2E286313-D5BF-4FB4-A4B7-BD9BC13B574E";
paths = (
{
closed = 1;
nodes = (
"499 0 LINE",
"731 1400 LINE",
"664 1400 LINE",
"443 64 LINE",
"439 64 LINE",
"236 1400 LINE",
"169 1400 LINE",
"381 0 LINE"
);
}
);
width = 900;
},
{
anchors = (
{
name = bottom;
position = "{1098, 0}";
},
{
name = top;
position = "{1098, 1400}";
}
);
layerId = "E338D14E-1DA5-418D-88BC-8956EEA80AB9";
paths = (
{
closed = 1;
nodes = (
"1188 0 LINE",
"1852 1400 LINE",
"1768 1400 LINE",
"1134 64 LINE",
"1048 64 LINE",
"414 1400 LINE",
"330 1400 LINE",
"994 0 LINE"
);
}
);
width = 2200;
},
{
anchors = (
{
name = bottom;
position = "{432, 0}";
},
{
name = top;
position = "{432, 1400}";
}
);
layerId = "5D8A6BC1-E275-4777-AF98-AB9B3DC0EDC1";
paths = (
{
closed = 1;
nodes = (
"742 0 LINE",
"894 1400 LINE",
"518 1400 LINE",
"450 260 LINE",
"442 260 LINE",
"382 1400 LINE",
"6 1400 LINE",
"150 0 LINE"
);
}
);
width = 900;
},
{
anchors = (
{
name = bottom;
position = "{1094, 0}";
},
{
name = top;
position = "{1094, 1400}";
}
);
layerId = "16EBFD8D-F4C1-4BAA-8DD7-EBE82D779ED1";
paths = (
{
closed = 1;
nodes = (
"1402 0 LINE",
"2040 1400 LINE",
"1592 1400 LINE",
"1111 290 LINE",
"1059 290 LINE",
"578 1400 LINE",
"130 1400 LINE",
"768 0 LINE"
);
}
);
width = 2200;
}
);
leftKerningGroup = V;
rightKerningGroup = V;
unicode = 0056;
},
